<svg xmlns="http://www.w3.org/2000/svg" xmlns:xlink="http://www.w3.org/1999/xlink" width="2000" zoomAndPan="magnify" viewBox="0 0 1500 1499.999933" height="2000" preserveAspectRatio="xMidYMid meet" version="1.0"><defs><g/><clipPath id="52763d7dd6"><path d="M 47.339844 562.855469 L 421.628906 562.855469 L 421.628906 937.144531 L 47.339844 937.144531 Z M 47.339844 562.855469 " clip-rule="nonzero"/></clipPath><clipPath id="63cb7edddf"><path d="M 234.484375 562.855469 C 131.128906 562.855469 47.339844 646.644531 47.339844 750 C 47.339844 853.355469 131.128906 937.144531 234.484375 937.144531 C 337.839844 937.144531 421.628906 853.355469 421.628906 750 C 421.628906 646.644531 337.839844 562.855469 234.484375 562.855469 Z M 234.484375 562.855469 " clip-rule="nonzero"/></clipPath><clipPath id="049f75c42b"><path d="M 0.339844 0.855469 L 374.628906 0.855469 L 374.628906 375.144531 L 0.339844 375.144531 Z M 0.339844 0.855469 " clip-rule="nonzero"/></clipPath><clipPath id="d189621f4b"><path d="M 187.484375 0.855469 C 84.128906 0.855469 0.339844 84.644531 0.339844 188 C 0.339844 291.355469 84.128906 375.144531 187.484375 375.144531 C 290.839844 375.144531 374.628906 291.355469 374.628906 188 C 374.628906 84.644531 290.839844 0.855469 187.484375 0.855469 Z M 187.484375 0.855469 " clip-rule="nonzero"/></clipPath><clipPath id="0e7447d669"><rect x="0" width="375" y="0" height="376"/></clipPath><clipPath id="34921b9f2c"><path d="M 47.339844 562.855469 L 421.589844 562.855469 L 421.589844 937.105469 L 47.339844 937.105469 Z M 47.339844 562.855469 " clip-rule="nonzero"/></clipPath><clipPath id="fc4a2c68d3"><path d="M 62.1875 577.703125 L 406.785156 577.703125 L 406.785156 922.296875 L 62.1875 922.296875 Z M 62.1875 577.703125 " clip-rule="nonzero"/></clipPath><clipPath id="a41f4b8d33"><path d="M 234.484375 577.703125 C 139.328125 577.703125 62.1875 654.84375 62.1875 750 C 62.1875 845.15625 139.328125 922.296875 234.484375 922.296875 C 329.640625 922.296875 406.785156 845.15625 406.785156 750 C 406.785156 654.84375 329.640625 577.703125 234.484375 577.703125 Z M 234.484375 577.703125 " clip-rule="nonzero"/></clipPath><clipPath id="b9e3e0999d"><path d="M 0.1875 0.703125 L 344.785156 0.703125 L 344.785156 345.296875 L 0.1875 345.296875 Z M 0.1875 0.703125 " clip-rule="nonzero"/></clipPath><clipPath id="86eecc61de"><path d="M 172.484375 0.703125 C 77.328125 0.703125 0.1875 77.84375 0.1875 173 C 0.1875 268.15625 77.328125 345.296875 172.484375 345.296875 C 267.640625 345.296875 344.785156 268.15625 344.785156 173 C 344.785156 77.84375 267.640625 0.703125 172.484375 0.703125 Z M 172.484375 0.703125 " clip-rule="nonzero"/></clipPath><clipPath id="c56409c25d"><rect x="0" width="345" y="0" height="346"/></clipPath><clipPath id="b179be1a9e"><path d="M 117 659 L 352.632812 659 L 352.632812 841.472656 L 117 841.472656 Z M 117 659 " clip-rule="nonzero"/></clipPath><clipPath id="8c798fea7b"><path d="M 1288.3125 603.617188 L 1343.0625 603.617188 L 1343.0625 658.367188 L 1288.3125 658.367188 Z M 1288.3125 603.617188 " clip-rule="nonzero"/></clipPath></defs><rect x="-150" width="1800" fill="#ffffff" y="-149.999993" height="1799.99992" fill-opacity="1"/><rect x="-150" width="1800" fill="#ffffff" y="-149.999993" height="1799.99992" fill-opacity="1"/><g clip-path="url(#52763d7dd6)"><g clip-path="url(#63cb7edddf)"><g transform="matrix(1, 0, 0, 1, 47, 562)"><g clip-path="url(#0e7447d669)"><g clip-path="url(#049f75c42b)"><g clip-path="url(#d189621f4b)"><path fill="#004aad" d="M 0.339844 0.855469 L 374.628906 0.855469 L 374.628906 375.144531 L 0.339844 375.144531 Z M 0.339844 0.855469 " fill-opacity="1" fill-rule="nonzero"/></g></g></g></g></g></g><g clip-path="url(#34921b9f2c)"><path fill="#c2e9ff" d="M 234.484375 562.855469 C 131.230469 562.855469 47.339844 646.746094 47.339844 750 C 47.339844 853.253906 131.230469 937.140625 234.484375 937.140625 C 337.738281 937.140625 421.625 853.253906 421.625 750 C 421.625 646.746094 337.738281 562.855469 234.484375 562.855469 Z M 234.484375 570.992188 C 333.449219 570.992188 413.488281 651.03125 413.488281 750 C 413.488281 848.964844 333.449219 929.003906 234.484375 929.003906 C 135.515625 929.003906 55.476562 848.964844 55.476562 750 C 55.476562 651.03125 135.515625 570.992188 234.484375 570.992188 Z M 234.484375 570.992188 " fill-opacity="1" fill-rule="nonzero"/></g><g clip-path="url(#fc4a2c68d3)"><g clip-path="url(#a41f4b8d33)"><g transform="matrix(1, 0, 0, 1, 62, 577)"><g clip-path="url(#c56409c25d)"><g clip-path="url(#b9e3e0999d)"><g clip-path="url(#86eecc61de)"><path fill="#004aad" d="M 0.1875 0.703125 L 344.785156 0.703125 L 344.785156 345.296875 L 0.1875 345.296875 Z M 0.1875 0.703125 " fill-opacity="1" fill-rule="nonzero"/></g></g></g></g></g></g><g clip-path="url(#b179be1a9e)"><path fill="#ffffff" d="M 274.132812 841.160156 C 258.691406 841.160156 245.351562 838.441406 234.109375 832.882812 C 236.457031 832.882812 240.65625 832.882812 240.65625 828.5625 C 240.65625 826.214844 238.679688 824.238281 236.332031 824.238281 L 205.574219 824.238281 C 199.890625 824.238281 199.890625 815.589844 205.574219 815.589844 L 245.101562 815.589844 C 250.785156 815.589844 250.785156 806.941406 245.101562 806.941406 C 227.5625 806.941406 210.144531 806.941406 192.601562 806.941406 C 186.917969 806.941406 186.917969 798.296875 192.601562 798.296875 L 226.203125 798.296875 C 231.886719 798.296875 231.886719 789.648438 226.203125 789.648438 C 212.367188 789.648438 198.53125 789.648438 184.820312 789.648438 C 179.136719 789.648438 179.136719 781 184.820312 781 L 204.957031 781 C 210.636719 781 210.636719 772.355469 204.957031 772.355469 L 195.9375 772.355469 C 190.625 772.355469 189.390625 763.707031 196.800781 763.707031 C 201.371094 763.707031 206.066406 763.707031 210.636719 763.707031 C 216.320312 763.707031 216.320312 755.058594 210.636719 755.058594 L 190.132812 755.058594 C 184.449219 755.058594 184.449219 746.414062 190.132812 746.414062 L 204.707031 746.414062 C 210.390625 746.414062 210.390625 737.765625 204.707031 737.765625 L 186.300781 737.765625 C 180.621094 737.765625 180.621094 729.117188 186.300781 729.117188 L 222.25 729.117188 C 227.933594 729.117188 227.933594 720.472656 222.25 720.472656 C 209.277344 720.472656 196.308594 720.472656 183.335938 720.472656 C 177.65625 720.472656 177.65625 711.824219 183.335938 711.824219 L 197.789062 711.824219 C 203.472656 711.824219 203.347656 703.671875 198.53125 703.175781 L 182.71875 703.175781 C 177.039062 703.175781 177.039062 694.53125 182.71875 694.53125 L 212.492188 694.160156 C 219.53125 695.023438 219.410156 686.007812 214.46875 685.511719 L 197.050781 685.511719 C 191.367188 685.511719 191.367188 676.863281 197.050781 676.863281 C 203.71875 676.863281 192.972656 676.863281 199.644531 676.863281 C 205.324219 676.863281 205.203125 668.710938 200.382812 668.21875 C 196.183594 667.847656 188.15625 669.945312 188.15625 663.894531 C 188.15625 658.828125 193.835938 659.570312 196.800781 659.570312 C 209.898438 659.570312 222.992188 659.570312 236.085938 659.570312 L 236.085938 760.742188 C 236.085938 787.425781 248.191406 804.964844 274.625 804.964844 C 300.816406 804.964844 313.167969 788.535156 313.167969 762.101562 L 313.167969 659.570312 L 352.574219 659.570312 L 352.574219 760.496094 C 352.574219 811.511719 325.273438 841.160156 274.132812 841.160156 Z M 122.191406 711.453125 L 129.105469 711.453125 C 134.789062 711.453125 134.789062 720.101562 129.105469 720.101562 L 122.191406 720.101562 C 116.382812 720.101562 116.382812 711.453125 122.191406 711.453125 Z M 188.15625 815.589844 C 191.492188 815.589844 197.421875 814.726562 197.421875 819.914062 C 197.421875 825.101562 191.492188 824.238281 188.15625 824.238281 C 182.347656 824.238281 182.347656 815.589844 188.15625 815.589844 Z M 146.894531 763.460938 L 182.347656 763.460938 C 188.03125 763.460938 188.03125 772.105469 182.347656 772.105469 L 146.894531 772.105469 C 141.089844 772.230469 141.089844 763.460938 146.894531 763.460938 Z M 175.308594 659.570312 L 181.730469 659.570312 C 187.414062 659.570312 187.414062 668.21875 181.730469 668.21875 L 175.308594 668.21875 C 169.5 668.339844 169.5 659.570312 175.308594 659.570312 Z M 151.097656 694.035156 L 172.714844 694.035156 C 178.394531 694.035156 178.394531 702.683594 172.714844 702.683594 L 151.097656 702.683594 C 145.289062 702.804688 145.289062 694.035156 151.097656 694.035156 Z M 161.84375 728.746094 L 174.195312 728.746094 C 179.878906 728.746094 179.878906 737.394531 174.195312 737.394531 L 161.84375 737.394531 C 156.160156 737.394531 156.160156 728.746094 161.84375 728.746094 Z M 142.570312 711.453125 L 167.773438 711.453125 C 173.453125 711.453125 173.453125 720.101562 167.773438 720.101562 L 142.570312 720.101562 C 136.890625 720.101562 136.890625 711.453125 142.570312 711.453125 Z M 167.894531 780.878906 C 171.601562 780.878906 177.902344 779.890625 177.902344 785.203125 C 177.902344 790.511719 171.726562 789.523438 167.894531 789.523438 C 162.089844 789.523438 162.089844 780.878906 167.894531 780.878906 Z M 167.894531 780.878906 " fill-opacity="1" fill-rule="evenodd"/></g><g fill="#004aad" fill-opacity="1"><g transform="translate(459.774007, 809.30235)"><g><path d="M 94.46875 2.015625 C 63.3125 2.015625 40.6875 -3.984375 26.59375 -15.984375 C 12.507812 -27.984375 5.46875 -46.320312 5.46875 -71 L 5.46875 -141.609375 L 53 -141.609375 L 53 -71 C 53 -66.820312 53.503906 -62.773438 54.515625 -58.859375 C 55.523438 -54.953125 57.445312 -51.414062 60.28125 -48.25 C 63.113281 -45.082031 67.257812 -42.585938 72.71875 -40.765625 C 78.1875 -38.941406 85.4375 -38.03125 94.46875 -38.03125 C 103.507812 -38.03125 110.789062 -38.972656 116.3125 -40.859375 C 121.84375 -42.753906 126.023438 -45.285156 128.859375 -48.453125 C 131.691406 -51.617188 133.613281 -55.15625 134.625 -59.0625 C 135.632812 -62.976562 136.140625 -66.957031 136.140625 -71 L 136.140625 -141.609375 L 183.484375 -141.609375 L 183.484375 -71 C 183.484375 -46.457031 176.398438 -28.148438 162.234375 -16.078125 C 148.078125 -4.015625 125.488281 2.015625 94.46875 2.015625 Z M 94.46875 2.015625 "/></g></g></g><g fill="#004aad" fill-opacity="1"><g transform="translate(652.960746, 809.30235)"><g><path d="M 5.46875 0 L 5.46875 -141.609375 L 68.171875 -141.609375 L 140.59375 -51.78125 L 140.59375 -141.609375 L 187.9375 -141.609375 L 187.9375 0 L 125.421875 0 L 53 -89.8125 L 53 0 Z M 5.46875 0 "/></g></g></g><g fill="#004aad" fill-opacity="1"><g transform="translate(850.597856, 809.30235)"><g><path d="M 5.46875 0 L 5.46875 -141.609375 L 53 -141.609375 L 53 0 Z M 5.46875 0 "/></g></g></g><g fill="#004aad" fill-opacity="1"><g transform="translate(913.10548, 809.30235)"><g><path d="M 3.4375 0 L 74.4375 -70.796875 L 3.4375 -141.609375 L 66.359375 -141.609375 L 107.828125 -98.515625 L 149.296875 -141.609375 L 212.203125 -141.609375 L 141.203125 -70.796875 L 212.203125 0 L 149.296875 0 L 107.828125 -43.09375 L 66.359375 0 Z M 3.4375 0 "/></g></g></g><g fill="#004aad" fill-opacity="1"><g transform="translate(1132.994436, 809.30235)"><g><path d="M 3.4375 0 L 66.765625 -141.609375 L 135.734375 -141.609375 L 198.859375 0 L 146.671875 0 L 135.140625 -26.90625 L 67.359375 -26.90625 L 55.625 0 Z M 80.71875 -60.484375 L 121.578125 -60.484375 L 101.15625 -107.828125 Z M 80.71875 -60.484375 "/></g></g></g><g fill="#000000" fill-opacity="1"><g transform="translate(461.487702, 903.376726)"><g><path d="M 92.859375 -65.84375 L 73.34375 0 L 61.109375 0 L 47.28125 -49.84375 L 32.59375 0 L 20.46875 0.09375 L 1.796875 -65.84375 L 13.265625 -65.84375 L 26.90625 -12.21875 L 41.6875 -65.84375 L 53.8125 -65.84375 L 67.5625 -12.5 L 81.296875 -65.84375 Z M 92.859375 -65.84375 "/></g></g></g><g fill="#000000" fill-opacity="1"><g transform="translate(558.034263, 903.376726)"><g><path d="M 3.5 -26.34375 C 3.5 -31.582031 4.585938 -36.222656 6.765625 -40.265625 C 8.953125 -44.304688 11.921875 -47.445312 15.671875 -49.6875 C 19.429688 -51.9375 23.585938 -53.0625 28.140625 -53.0625 C 32.242188 -53.0625 35.828125 -52.253906 38.890625 -50.640625 C 41.953125 -49.035156 44.398438 -47.03125 46.234375 -44.625 L 46.234375 -52.203125 L 57.140625 -52.203125 L 57.140625 0 L 46.234375 0 L 46.234375 -7.765625 C 44.398438 -5.304688 41.90625 -3.253906 38.75 -1.609375 C 35.59375 0.0351562 31.992188 0.859375 27.953125 0.859375 C 23.460938 0.859375 19.351562 -0.289062 15.625 -2.59375 C 11.90625 -4.90625 8.953125 -8.128906 6.765625 -12.265625 C 4.585938 -16.398438 3.5 -21.09375 3.5 -26.34375 Z M 46.234375 -26.15625 C 46.234375 -29.75 45.488281 -32.875 44 -35.53125 C 42.519531 -38.1875 40.578125 -40.207031 38.171875 -41.59375 C 35.773438 -42.988281 33.191406 -43.6875 30.421875 -43.6875 C 27.640625 -43.6875 25.046875 -43.003906 22.640625 -41.640625 C 20.242188 -40.285156 18.300781 -38.296875 16.8125 -35.671875 C 15.332031 -33.046875 14.59375 -29.9375 14.59375 -26.34375 C 14.59375 -22.738281 15.332031 -19.578125 16.8125 -16.859375 C 18.300781 -14.148438 20.257812 -12.082031 22.6875 -10.65625 C 25.125 -9.238281 27.703125 -8.53125 30.421875 -8.53125 C 33.191406 -8.53125 35.773438 -9.222656 38.171875 -10.609375 C 40.578125 -12.003906 42.519531 -14.039062 44 -16.71875 C 45.488281 -19.40625 46.234375 -22.550781 46.234375 -26.15625 Z M 46.234375 -26.15625 "/></g></g></g><g fill="#000000" fill-opacity="1"><g transform="translate(624.167307, 903.376726)"><g><path d="M 19.703125 -43.390625 L 19.703125 -14.5 C 19.703125 -12.539062 20.160156 -11.132812 21.078125 -10.28125 C 21.992188 -9.425781 23.554688 -9 25.765625 -9 L 32.40625 -9 L 32.40625 0 L 23.875 0 C 19.007812 0 15.28125 -1.132812 12.6875 -3.40625 C 10.101562 -5.6875 8.8125 -9.382812 8.8125 -14.5 L 8.8125 -43.390625 L 2.65625 -43.390625 L 2.65625 -52.203125 L 8.8125 -52.203125 L 8.8125 -65.1875 L 19.703125 -65.1875 L 19.703125 -52.203125 L 32.40625 -52.203125 L 32.40625 -43.390625 Z M 19.703125 -43.390625 "/></g></g></g><g fill="#000000" fill-opacity="1"><g transform="translate(661.308028, 903.376726)"><g><path d="M 54.953125 -27.375 C 54.953125 -25.425781 54.828125 -23.660156 54.578125 -22.078125 L 14.6875 -22.078125 C 15 -17.910156 16.546875 -14.5625 19.328125 -12.03125 C 22.109375 -9.507812 25.519531 -8.25 29.5625 -8.25 C 35.375 -8.25 39.476562 -10.675781 41.875 -15.53125 L 53.53125 -15.53125 C 51.957031 -10.738281 49.097656 -6.804688 44.953125 -3.734375 C 40.816406 -0.671875 35.6875 0.859375 29.5625 0.859375 C 24.570312 0.859375 20.101562 -0.257812 16.15625 -2.5 C 12.207031 -4.75 9.109375 -7.910156 6.859375 -11.984375 C 4.617188 -16.054688 3.5 -20.78125 3.5 -26.15625 C 3.5 -31.519531 4.585938 -36.238281 6.765625 -40.3125 C 8.953125 -44.382812 12.019531 -47.523438 15.96875 -49.734375 C 19.914062 -51.953125 24.445312 -53.0625 29.5625 -53.0625 C 34.488281 -53.0625 38.878906 -51.984375 42.734375 -49.828125 C 46.585938 -47.679688 49.585938 -44.664062 51.734375 -40.78125 C 53.878906 -36.90625 54.953125 -32.4375 54.953125 -27.375 Z M 43.6875 -30.796875 C 43.613281 -34.773438 42.1875 -37.960938 39.40625 -40.359375 C 36.632812 -42.765625 33.195312 -43.96875 29.09375 -43.96875 C 25.363281 -43.96875 22.171875 -42.78125 19.515625 -40.40625 C 16.859375 -38.039062 15.28125 -34.835938 14.78125 -30.796875 Z M 43.6875 -30.796875 "/></g></g></g><g fill="#000000" fill-opacity="1"><g transform="translate(721.661554, 903.376726)"><g><path d="M 17.90625 -44.625 C 19.488281 -47.28125 21.585938 -49.347656 24.203125 -50.828125 C 26.828125 -52.316406 29.941406 -53.0625 33.546875 -53.0625 L 33.546875 -41.875 L 30.796875 -41.875 C 26.566406 -41.875 23.359375 -40.800781 21.171875 -38.65625 C 18.992188 -36.507812 17.90625 -32.785156 17.90625 -27.484375 L 17.90625 0 L 7.109375 0 L 7.109375 -52.203125 L 17.90625 -52.203125 Z M 17.90625 -44.625 "/></g></g></g><g fill="#000000" fill-opacity="1"><g transform="translate(759.9392, 903.376726)"><g/></g></g><g fill="#000000" fill-opacity="1"><g transform="translate(786.468341, 903.376726)"><g><path d="M 49.65625 -65.84375 L 49.65625 -57.046875 L 32.125 -57.046875 L 32.125 0 L 21.3125 0 L 21.3125 -57.046875 L 3.6875 -57.046875 L 3.6875 -65.84375 Z M 49.65625 -65.84375 "/></g></g></g><g fill="#000000" fill-opacity="1"><g transform="translate(841.800337, 903.376726)"><g><path d="M 54.953125 -27.375 C 54.953125 -25.425781 54.828125 -23.660156 54.578125 -22.078125 L 14.6875 -22.078125 C 15 -17.910156 16.546875 -14.5625 19.328125 -12.03125 C 22.109375 -9.507812 25.519531 -8.25 29.5625 -8.25 C 35.375 -8.25 39.476562 -10.675781 41.875 -15.53125 L 53.53125 -15.53125 C 51.957031 -10.738281 49.097656 -6.804688 44.953125 -3.734375 C 40.816406 -0.671875 35.6875 0.859375 29.5625 0.859375 C 24.570312 0.859375 20.101562 -0.257812 16.15625 -2.5 C 12.207031 -4.75 9.109375 -7.910156 6.859375 -11.984375 C 4.617188 -16.054688 3.5 -20.78125 3.5 -26.15625 C 3.5 -31.519531 4.585938 -36.238281 6.765625 -40.3125 C 8.953125 -44.382812 12.019531 -47.523438 15.96875 -49.734375 C 19.914062 -51.953125 24.445312 -53.0625 29.5625 -53.0625 C 34.488281 -53.0625 38.878906 -51.984375 42.734375 -49.828125 C 46.585938 -47.679688 49.585938 -44.664062 51.734375 -40.78125 C 53.878906 -36.90625 54.953125 -32.4375 54.953125 -27.375 Z M 43.6875 -30.796875 C 43.613281 -34.773438 42.1875 -37.960938 39.40625 -40.359375 C 36.632812 -42.765625 33.195312 -43.96875 29.09375 -43.96875 C 25.363281 -43.96875 22.171875 -42.78125 19.515625 -40.40625 C 16.859375 -38.039062 15.28125 -34.835938 14.78125 -30.796875 Z M 43.6875 -30.796875 "/></g></g></g><g fill="#000000" fill-opacity="1"><g transform="translate(902.153863, 903.376726)"><g><path d="M 3.5 -26.15625 C 3.5 -31.519531 4.585938 -36.238281 6.765625 -40.3125 C 8.953125 -44.382812 11.972656 -47.523438 15.828125 -49.734375 C 19.679688 -51.953125 24.101562 -53.0625 29.09375 -53.0625 C 35.40625 -53.0625 40.628906 -51.5625 44.765625 -48.5625 C 48.898438 -45.5625 51.695312 -41.28125 53.15625 -35.71875 L 41.5 -35.71875 C 40.550781 -38.3125 39.035156 -40.332031 36.953125 -41.78125 C 34.867188 -43.238281 32.25 -43.96875 29.09375 -43.96875 C 24.664062 -43.96875 21.140625 -42.398438 18.515625 -39.265625 C 15.898438 -36.140625 14.59375 -31.769531 14.59375 -26.15625 C 14.59375 -20.53125 15.898438 -16.140625 18.515625 -12.984375 C 21.140625 -9.828125 24.664062 -8.25 29.09375 -8.25 C 35.34375 -8.25 39.476562 -10.992188 41.5 -16.484375 L 53.15625 -16.484375 C 51.632812 -11.179688 48.789062 -6.960938 44.625 -3.828125 C 40.457031 -0.703125 35.28125 0.859375 29.09375 0.859375 C 24.101562 0.859375 19.679688 -0.257812 15.828125 -2.5 C 11.972656 -4.75 8.953125 -7.910156 6.765625 -11.984375 C 4.585938 -16.054688 3.5 -20.78125 3.5 -26.15625 Z M 3.5 -26.15625 "/></g></g></g><g fill="#000000" fill-opacity="1"><g transform="translate(960.896702, 903.376726)"><g><path d="M 34.109375 -53.0625 C 38.085938 -53.0625 41.640625 -52.207031 44.765625 -50.5 C 47.890625 -48.789062 50.351562 -46.265625 52.15625 -42.921875 C 53.957031 -39.578125 54.859375 -35.535156 54.859375 -30.796875 L 54.859375 0 L 44.15625 0 L 44.15625 -29.1875 C 44.15625 -33.851562 42.984375 -37.4375 40.640625 -39.9375 C 38.304688 -42.4375 35.117188 -43.6875 31.078125 -43.6875 C 27.035156 -43.6875 23.828125 -42.4375 21.453125 -39.9375 C 19.085938 -37.4375 17.90625 -33.851562 17.90625 -29.1875 L 17.90625 0 L 7.109375 0 L 7.109375 -70.109375 L 17.90625 -70.109375 L 17.90625 -46.140625 C 19.738281 -48.347656 22.0625 -50.050781 24.875 -51.25 C 27.6875 -52.457031 30.765625 -53.0625 34.109375 -53.0625 Z M 34.109375 -53.0625 "/></g></g></g><g fill="#000000" fill-opacity="1"><g transform="translate(1024.282088, 903.376726)"><g><path d="M 33.453125 -53.0625 C 37.554688 -53.0625 41.234375 -52.207031 44.484375 -50.5 C 47.734375 -48.789062 50.273438 -46.265625 52.109375 -42.921875 C 53.941406 -39.578125 54.859375 -35.535156 54.859375 -30.796875 L 54.859375 0 L 44.15625 0 L 44.15625 -29.1875 C 44.15625 -33.851562 42.984375 -37.4375 40.640625 -39.9375 C 38.304688 -42.4375 35.117188 -43.6875 31.078125 -43.6875 C 27.035156 -43.6875 23.828125 -42.4375 21.453125 -39.9375 C 19.085938 -37.4375 17.90625 -33.851562 17.90625 -29.1875 L 17.90625 0 L 7.109375 0 L 7.109375 -52.203125 L 17.90625 -52.203125 L 17.90625 -46.234375 C 19.675781 -48.378906 21.929688 -50.050781 24.671875 -51.25 C 27.421875 -52.457031 30.347656 -53.0625 33.453125 -53.0625 Z M 33.453125 -53.0625 "/></g></g></g><g fill="#000000" fill-opacity="1"><g transform="translate(1087.667474, 903.376726)"><g><path d="M 29.75 0.859375 C 24.820312 0.859375 20.367188 -0.257812 16.390625 -2.5 C 12.410156 -4.75 9.28125 -7.910156 7 -11.984375 C 4.726562 -16.054688 3.59375 -20.78125 3.59375 -26.15625 C 3.59375 -31.457031 4.757812 -36.160156 7.09375 -40.265625 C 9.4375 -44.367188 12.628906 -47.523438 16.671875 -49.734375 C 20.710938 -51.953125 25.226562 -53.0625 30.21875 -53.0625 C 35.207031 -53.0625 39.722656 -51.953125 43.765625 -49.734375 C 47.816406 -47.523438 51.007812 -44.367188 53.34375 -40.265625 C 55.675781 -36.160156 56.84375 -31.457031 56.84375 -26.15625 C 56.84375 -20.84375 55.644531 -16.132812 53.25 -12.03125 C 50.851562 -7.925781 47.582031 -4.75 43.4375 -2.5 C 39.300781 -0.257812 34.738281 0.859375 29.75 0.859375 Z M 29.75 -8.53125 C 32.53125 -8.53125 35.132812 -9.191406 37.5625 -10.515625 C 40 -11.835938 41.972656 -13.828125 43.484375 -16.484375 C 45.003906 -19.140625 45.765625 -22.363281 45.765625 -26.15625 C 45.765625 -29.945312 45.035156 -33.148438 43.578125 -35.765625 C 42.128906 -38.390625 40.203125 -40.363281 37.796875 -41.6875 C 35.398438 -43.019531 32.8125 -43.6875 30.03125 -43.6875 C 27.25 -43.6875 24.675781 -43.019531 22.3125 -41.6875 C 19.945312 -40.363281 18.066406 -38.390625 16.671875 -35.765625 C 15.285156 -33.148438 14.59375 -29.945312 14.59375 -26.15625 C 14.59375 -20.53125 16.03125 -16.1875 18.90625 -13.125 C 21.78125 -10.0625 25.394531 -8.53125 29.75 -8.53125 Z M 29.75 -8.53125 "/></g></g></g><g fill="#000000" fill-opacity="1"><g transform="translate(1150.01067, 903.376726)"><g><path d="M 17.90625 -70.109375 L 17.90625 0 L 7.109375 0 L 7.109375 -70.109375 Z M 17.90625 -70.109375 "/></g></g></g><g fill="#000000" fill-opacity="1"><g transform="translate(1176.918794, 903.376726)"><g><path d="M 29.75 0.859375 C 24.820312 0.859375 20.367188 -0.257812 16.390625 -2.5 C 12.410156 -4.75 9.28125 -7.910156 7 -11.984375 C 4.726562 -16.054688 3.59375 -20.78125 3.59375 -26.15625 C 3.59375 -31.457031 4.757812 -36.160156 7.09375 -40.265625 C 9.4375 -44.367188 12.628906 -47.523438 16.671875 -49.734375 C 20.710938 -51.953125 25.226562 -53.0625 30.21875 -53.0625 C 35.207031 -53.0625 39.722656 -51.953125 43.765625 -49.734375 C 47.816406 -47.523438 51.007812 -44.367188 53.34375 -40.265625 C 55.675781 -36.160156 56.84375 -31.457031 56.84375 -26.15625 C 56.84375 -20.84375 55.644531 -16.132812 53.25 -12.03125 C 50.851562 -7.925781 47.582031 -4.75 43.4375 -2.5 C 39.300781 -0.257812 34.738281 0.859375 29.75 0.859375 Z M 29.75 -8.53125 C 32.53125 -8.53125 35.132812 -9.191406 37.5625 -10.515625 C 40 -11.835938 41.972656 -13.828125 43.484375 -16.484375 C 45.003906 -19.140625 45.765625 -22.363281 45.765625 -26.15625 C 45.765625 -29.945312 45.035156 -33.148438 43.578125 -35.765625 C 42.128906 -38.390625 40.203125 -40.363281 37.796875 -41.6875 C 35.398438 -43.019531 32.8125 -43.6875 30.03125 -43.6875 C 27.25 -43.6875 24.675781 -43.019531 22.3125 -41.6875 C 19.945312 -40.363281 18.066406 -38.390625 16.671875 -35.765625 C 15.285156 -33.148438 14.59375 -29.945312 14.59375 -26.15625 C 14.59375 -20.53125 16.03125 -16.1875 18.90625 -13.125 C 21.78125 -10.0625 25.394531 -8.53125 29.75 -8.53125 Z M 29.75 -8.53125 "/></g></g></g><g fill="#000000" fill-opacity="1"><g transform="translate(1239.261989, 903.376726)"><g><path d="M 28.140625 -53.0625 C 32.179688 -53.0625 35.765625 -52.253906 38.890625 -50.640625 C 42.015625 -49.035156 44.460938 -47.03125 46.234375 -44.625 L 46.234375 -52.203125 L 57.140625 -52.203125 L 57.140625 0.859375 C 57.140625 5.648438 56.125 9.925781 54.09375 13.6875 C 52.070312 17.445312 49.148438 20.398438 45.328125 22.546875 C 41.515625 24.691406 36.953125 25.765625 31.640625 25.765625 C 24.566406 25.765625 18.691406 24.109375 14.015625 20.796875 C 9.347656 17.484375 6.695312 12.984375 6.0625 7.296875 L 16.765625 7.296875 C 17.585938 10.015625 19.34375 12.207031 22.03125 13.875 C 24.71875 15.550781 27.921875 16.390625 31.640625 16.390625 C 36.003906 16.390625 39.523438 15.0625 42.203125 12.40625 C 44.890625 9.757812 46.234375 5.910156 46.234375 0.859375 L 46.234375 -7.859375 C 44.398438 -5.398438 41.921875 -3.332031 38.796875 -1.65625 C 35.671875 0.0195312 32.117188 0.859375 28.140625 0.859375 C 23.585938 0.859375 19.429688 -0.289062 15.671875 -2.59375 C 11.921875 -4.90625 8.953125 -8.128906 6.765625 -12.265625 C 4.585938 -16.398438 3.5 -21.09375 3.5 -26.34375 C 3.5 -31.582031 4.585938 -36.222656 6.765625 -40.265625 C 8.953125 -44.304688 11.921875 -47.445312 15.671875 -49.6875 C 19.429688 -51.9375 23.585938 -53.0625 28.140625 -53.0625 Z M 46.234375 -26.15625 C 46.234375 -29.75 45.488281 -32.875 44 -35.53125 C 42.519531 -38.1875 40.578125 -40.207031 38.171875 -41.59375 C 35.773438 -42.988281 33.191406 -43.6875 30.421875 -43.6875 C 27.640625 -43.6875 25.046875 -43.003906 22.640625 -41.640625 C 20.242188 -40.285156 18.300781 -38.296875 16.8125 -35.671875 C 15.332031 -33.046875 14.59375 -29.9375 14.59375 -26.34375 C 14.59375 -22.738281 15.332031 -19.578125 16.8125 -16.859375 C 18.300781 -14.148438 20.257812 -12.082031 22.6875 -10.65625 C 25.125 -9.238281 27.703125 -8.53125 30.421875 -8.53125 C 33.191406 -8.53125 35.773438 -9.222656 38.171875 -10.609375 C 40.578125 -12.003906 42.519531 -14.039062 44 -16.71875 C 45.488281 -19.40625 46.234375 -22.550781 46.234375 -26.15625 Z M 46.234375 -26.15625 "/></g></g></g><g fill="#000000" fill-opacity="1"><g transform="translate(1305.39501, 903.376726)"><g><path d="M 12.609375 -59.125 C 10.648438 -59.125 9.003906 -59.785156 7.671875 -61.109375 C 6.347656 -62.441406 5.6875 -64.085938 5.6875 -66.046875 C 5.6875 -68.003906 6.347656 -69.644531 7.671875 -70.96875 C 9.003906 -72.289062 10.648438 -72.953125 12.609375 -72.953125 C 14.492188 -72.953125 16.097656 -72.289062 17.421875 -70.96875 C 18.753906 -69.644531 19.421875 -68.003906 19.421875 -66.046875 C 19.421875 -64.085938 18.753906 -62.441406 17.421875 -61.109375 C 16.097656 -59.785156 14.492188 -59.125 12.609375 -59.125 Z M 17.90625 -52.203125 L 17.90625 0 L 7.109375 0 L 7.109375 -52.203125 Z M 17.90625 -52.203125 "/></g></g></g><g fill="#000000" fill-opacity="1"><g transform="translate(1332.30318, 903.376726)"><g><path d="M 54.953125 -27.375 C 54.953125 -25.425781 54.828125 -23.660156 54.578125 -22.078125 L 14.6875 -22.078125 C 15 -17.910156 16.546875 -14.5625 19.328125 -12.03125 C 22.109375 -9.507812 25.519531 -8.25 29.5625 -8.25 C 35.375 -8.25 39.476562 -10.675781 41.875 -15.53125 L 53.53125 -15.53125 C 51.957031 -10.738281 49.097656 -6.804688 44.953125 -3.734375 C 40.816406 -0.671875 35.6875 0.859375 29.5625 0.859375 C 24.570312 0.859375 20.101562 -0.257812 16.15625 -2.5 C 12.207031 -4.75 9.109375 -7.910156 6.859375 -11.984375 C 4.617188 -16.054688 3.5 -20.78125 3.5 -26.15625 C 3.5 -31.519531 4.585938 -36.238281 6.765625 -40.3125 C 8.953125 -44.382812 12.019531 -47.523438 15.96875 -49.734375 C 19.914062 -51.953125 24.445312 -53.0625 29.5625 -53.0625 C 34.488281 -53.0625 38.878906 -51.984375 42.734375 -49.828125 C 46.585938 -47.679688 49.585938 -44.664062 51.734375 -40.78125 C 53.878906 -36.90625 54.953125 -32.4375 54.953125 -27.375 Z M 43.6875 -30.796875 C 43.613281 -34.773438 42.1875 -37.960938 39.40625 -40.359375 C 36.632812 -42.765625 33.195312 -43.96875 29.09375 -43.96875 C 25.363281 -43.96875 22.171875 -42.78125 19.515625 -40.40625 C 16.859375 -38.039062 15.28125 -34.835938 14.78125 -30.796875 Z M 43.6875 -30.796875 "/></g></g></g><g fill="#000000" fill-opacity="1"><g transform="translate(1392.656659, 903.376726)"><g><path d="M 26.0625 0.859375 C 21.945312 0.859375 18.265625 0.117188 15.015625 -1.359375 C 11.765625 -2.847656 9.191406 -4.875 7.296875 -7.4375 C 5.398438 -10 4.390625 -12.859375 4.265625 -16.015625 L 15.4375 -16.015625 C 15.632812 -13.804688 16.695312 -11.957031 18.625 -10.46875 C 20.550781 -8.988281 22.960938 -8.25 25.859375 -8.25 C 28.898438 -8.25 31.253906 -8.832031 32.921875 -10 C 34.597656 -11.164062 35.4375 -12.664062 35.4375 -14.5 C 35.4375 -16.457031 34.503906 -17.910156 32.640625 -18.859375 C 30.773438 -19.804688 27.820312 -20.847656 23.78125 -21.984375 C 19.863281 -23.054688 16.671875 -24.097656 14.203125 -25.109375 C 11.742188 -26.117188 9.613281 -27.664062 7.8125 -29.75 C 6.007812 -31.832031 5.109375 -34.582031 5.109375 -38 C 5.109375 -40.769531 5.929688 -43.304688 7.578125 -45.609375 C 9.222656 -47.921875 11.578125 -49.738281 14.640625 -51.0625 C 17.703125 -52.394531 21.222656 -53.0625 25.203125 -53.0625 C 31.140625 -53.0625 35.921875 -51.5625 39.546875 -48.5625 C 43.179688 -45.5625 45.128906 -41.472656 45.390625 -36.296875 L 34.578125 -36.296875 C 34.390625 -38.628906 33.441406 -40.488281 31.734375 -41.875 C 30.035156 -43.269531 27.734375 -43.96875 24.828125 -43.96875 C 21.984375 -43.96875 19.800781 -43.429688 18.28125 -42.359375 C 16.769531 -41.285156 16.015625 -39.863281 16.015625 -38.09375 C 16.015625 -36.695312 16.519531 -35.523438 17.53125 -34.578125 C 18.539062 -33.628906 19.769531 -32.882812 21.21875 -32.34375 C 22.675781 -31.8125 24.828125 -31.132812 27.671875 -30.3125 C 31.460938 -29.300781 34.570312 -28.273438 37 -27.234375 C 39.425781 -26.191406 41.523438 -24.660156 43.296875 -22.640625 C 45.066406 -20.617188 45.984375 -17.9375 46.046875 -14.59375 C 46.046875 -11.625 45.222656 -8.96875 43.578125 -6.625 C 41.941406 -4.289062 39.625 -2.457031 36.625 -1.125 C 33.625 0.195312 30.101562 0.859375 26.0625 0.859375 Z M 26.0625 0.859375 "/></g></g></g><path fill="#004aad" d="M 1305.769531 640.652344 L 1302.382812 640.652344 L 1302.382812 624.984375 L 1296.410156 624.984375 L 1296.410156 622.148438 L 1311.730469 622.148438 L 1311.730469 624.984375 L 1305.769531 624.984375 L 1305.769531 640.652344 " fill-opacity="1" fill-rule="nonzero"/><path fill="#004aad" d="M 1323.875 635.6875 C 1324.277344 634.230469 1324.78125 632.667969 1325.378906 631 L 1328.574219 622.148438 L 1333.332031 622.148438 L 1333.332031 640.652344 L 1329.945312 640.652344 L 1329.945312 631.277344 C 1329.945312 629.902344 1330 628.308594 1330.109375 626.492188 L 1329.984375 626.492188 C 1329.828125 627.015625 1329.644531 627.605469 1329.433594 628.261719 C 1329.21875 628.917969 1329 629.5625 1328.769531 630.199219 L 1324.9375 640.652344 L 1322.753906 640.652344 L 1318.921875 630.199219 C 1318.691406 629.5625 1318.46875 628.917969 1318.257812 628.261719 C 1318.046875 627.605469 1317.863281 627.015625 1317.707031 626.492188 L 1317.582031 626.492188 C 1317.691406 628.199219 1317.746094 629.789062 1317.746094 631.261719 L 1317.746094 640.652344 L 1314.359375 640.652344 L 1314.359375 622.148438 L 1319.089844 622.148438 L 1322.28125 630.957031 C 1322.816406 632.421875 1323.320312 634 1323.789062 635.6875 L 1323.875 635.6875 " fill-opacity="1" fill-rule="nonzero"/><g clip-path="url(#8c798fea7b)"><path fill="#004aad" d="M 1340.25 631.039062 C 1340.25 644.558594 1329.25 655.554688 1315.734375 655.554688 C 1302.214844 655.554688 1291.21875 644.558594 1291.21875 631.039062 C 1291.21875 617.523438 1302.214844 606.523438 1315.734375 606.523438 C 1329.25 606.523438 1340.25 617.523438 1340.25 631.039062 Z M 1341 620.367188 C 1339.617188 617.097656 1337.640625 614.167969 1335.125 611.648438 C 1332.605469 609.132812 1329.671875 607.15625 1326.40625 605.773438 C 1323.027344 604.34375 1319.433594 603.617188 1315.734375 603.617188 C 1312.03125 603.617188 1308.441406 604.34375 1305.058594 605.773438 C 1301.792969 607.15625 1298.859375 609.132812 1296.34375 611.648438 C 1293.824219 614.167969 1291.847656 617.097656 1290.46875 620.367188 C 1289.035156 623.746094 1288.3125 627.339844 1288.3125 631.039062 C 1288.3125 634.742188 1289.035156 638.332031 1290.46875 641.714844 C 1291.847656 644.980469 1293.824219 647.914062 1296.34375 650.429688 C 1298.859375 652.949219 1301.792969 654.925781 1305.058594 656.304688 C 1308.441406 657.738281 1312.03125 658.460938 1315.734375 658.460938 C 1319.433594 658.460938 1323.027344 657.738281 1326.40625 656.304688 C 1329.671875 654.925781 1332.605469 652.949219 1335.125 650.429688 C 1337.640625 647.914062 1339.617188 644.980469 1341 641.714844 C 1342.429688 638.332031 1343.15625 634.742188 1343.15625 631.039062 C 1343.15625 627.339844 1342.429688 623.746094 1341 620.367188 " fill-opacity="1" fill-rule="nonzero"/></g><g fill="#000000" fill-opacity="1"><g transform="translate(694.680904, 648.671516)"><g><path d="M 17.234375 -5.734375 L 5.953125 -5.734375 L 2.890625 0 L -0.671875 0 L 13.171875 -25.640625 L 17.0625 -25.640625 L 21.828125 0 L 18.28125 0 Z M 16.765625 -8.359375 L 14.390625 -21.53125 L 7.359375 -8.359375 Z M 16.765625 -8.359375 "/></g></g></g><g fill="#000000" fill-opacity="1"><g transform="translate(720.356248, 648.671516)"><g/></g></g><g fill="#000000" fill-opacity="1"><g transform="translate(732.12107, 648.671516)"><g><path d="M 6.0625 -5.546875 C 5.988281 -5.179688 5.953125 -4.863281 5.953125 -4.59375 C 5.953125 -3.96875 6.144531 -3.519531 6.53125 -3.25 C 6.914062 -2.976562 7.539062 -2.84375 8.40625 -2.84375 L 10.875 -2.84375 L 10.359375 0 L 7.328125 0 C 5.722656 0 4.519531 -0.304688 3.71875 -0.921875 C 2.914062 -1.535156 2.515625 -2.546875 2.515625 -3.953125 C 2.515625 -4.492188 2.5625 -5.023438 2.65625 -5.546875 L 4.765625 -17.5 L 2.1875 -17.5 L 2.65625 -20.28125 L 5.296875 -20.28125 L 6.171875 -25.375 L 9.578125 -25.375 L 8.6875 -20.28125 L 13.953125 -20.28125 L 13.46875 -17.5 L 8.171875 -17.5 Z M 6.0625 -5.546875 "/></g></g></g><g fill="#000000" fill-opacity="1"><g transform="translate(746.327639, 648.671516)"><g><path d="M 7.25 -16.421875 C 8.0625 -17.753906 9.082031 -18.789062 10.3125 -19.53125 C 11.550781 -20.269531 12.960938 -20.640625 14.546875 -20.640625 L 13.90625 -17.171875 L 13.03125 -17.171875 C 11.269531 -17.171875 9.800781 -16.703125 8.625 -15.765625 C 7.457031 -14.828125 6.679688 -13.25 6.296875 -11.03125 L 4.328125 0 L 0.96875 0 L 4.546875 -20.28125 L 7.921875 -20.28125 Z M 7.25 -16.421875 "/></g></g></g><g fill="#000000" fill-opacity="1"><g transform="translate(760.867173, 648.671516)"><g><path d="M 22.53125 -20.28125 L 18.9375 0 L 15.578125 0 L 16.09375 -2.953125 C 15.28125 -1.921875 14.242188 -1.117188 12.984375 -0.546875 C 11.722656 0.015625 10.414062 0.296875 9.0625 0.296875 C 6.945312 0.296875 5.253906 -0.273438 3.984375 -1.421875 C 2.710938 -2.566406 2.078125 -4.210938 2.078125 -6.359375 C 2.078125 -6.898438 2.132812 -7.582031 2.25 -8.40625 L 4.359375 -20.28125 L 7.703125 -20.28125 L 5.703125 -8.84375 C 5.597656 -8.320312 5.546875 -7.78125 5.546875 -7.21875 C 5.546875 -5.707031 5.957031 -4.5625 6.78125 -3.78125 C 7.613281 -3.007812 8.769531 -2.625 10.25 -2.625 C 12.019531 -2.625 13.53125 -3.175781 14.78125 -4.28125 C 16.03125 -5.394531 16.828125 -7.015625 17.171875 -9.140625 L 17.171875 -9.03125 L 19.171875 -20.28125 Z M 22.53125 -20.28125 "/></g></g></g><g fill="#000000" fill-opacity="1"><g transform="translate(785.284652, 648.671516)"><g><path d="M 13.359375 -20.609375 C 15.054688 -20.609375 16.523438 -20.28125 17.765625 -19.625 C 19.015625 -18.96875 19.96875 -18.054688 20.625 -16.890625 C 21.28125 -15.722656 21.609375 -14.382812 21.609375 -12.875 C 21.609375 -12.351562 21.546875 -11.722656 21.421875 -10.984375 C 21.328125 -10.347656 21.164062 -9.679688 20.9375 -8.984375 L 4.734375 -8.984375 C 4.679688 -8.492188 4.65625 -8.140625 4.65625 -7.921875 C 4.65625 -6.210938 5.164062 -4.882812 6.1875 -3.9375 C 7.21875 -2.988281 8.5625 -2.515625 10.21875 -2.515625 C 11.664062 -2.515625 12.9375 -2.851562 14.03125 -3.53125 C 15.132812 -4.207031 15.96875 -5.113281 16.53125 -6.25 L 20.171875 -6.25 C 19.273438 -4.300781 17.90625 -2.71875 16.0625 -1.5 C 14.226562 -0.28125 12.101562 0.328125 9.6875 0.328125 C 7.15625 0.328125 5.117188 -0.398438 3.578125 -1.859375 C 2.035156 -3.328125 1.265625 -5.332031 1.265625 -7.875 C 1.265625 -8.59375 1.335938 -9.359375 1.484375 -10.171875 C 1.847656 -12.265625 2.597656 -14.101562 3.734375 -15.6875 C 4.867188 -17.269531 6.269531 -18.484375 7.9375 -19.328125 C 9.601562 -20.179688 11.410156 -20.609375 13.359375 -20.609375 Z M 18.015625 -11.4375 C 18.085938 -11.925781 18.125 -12.378906 18.125 -12.796875 C 18.125 -14.378906 17.625 -15.601562 16.625 -16.46875 C 15.632812 -17.332031 14.335938 -17.765625 12.734375 -17.765625 C 11.003906 -17.765625 9.4375 -17.203125 8.03125 -16.078125 C 6.625 -14.953125 5.675781 -13.40625 5.1875 -11.4375 Z M 18.015625 -11.4375 "/></g></g></g><g fill="#000000" fill-opacity="1"><g transform="translate(808.962213, 648.671516)"><g/></g></g><g fill="#000000" fill-opacity="1"><g transform="translate(820.727036, 648.671516)"><g><path d="M 7.25 -16.53125 C 8.132812 -17.695312 9.304688 -18.664062 10.765625 -19.4375 C 12.222656 -20.21875 13.816406 -20.609375 15.546875 -20.609375 C 17.117188 -20.609375 18.515625 -20.28125 19.734375 -19.625 C 20.960938 -18.96875 21.90625 -18.03125 22.5625 -16.8125 C 23.226562 -15.59375 23.5625 -14.15625 23.5625 -12.5 C 23.5625 -11.789062 23.488281 -11.03125 23.34375 -10.21875 C 22.976562 -8.164062 22.234375 -6.335938 21.109375 -4.734375 C 19.984375 -3.128906 18.613281 -1.882812 17 -1 C 15.382812 -0.113281 13.675781 0.328125 11.875 0.328125 C 10.144531 0.328125 8.691406 -0.0546875 7.515625 -0.828125 C 6.347656 -1.609375 5.507812 -2.578125 5 -3.734375 L 2.65625 9.625 L -0.703125 9.625 L 4.546875 -20.28125 L 7.921875 -20.28125 Z M 19.90625 -10.21875 C 20 -10.726562 20.046875 -11.289062 20.046875 -11.90625 C 20.046875 -13.707031 19.515625 -15.117188 18.453125 -16.140625 C 17.398438 -17.171875 16.035156 -17.6875 14.359375 -17.6875 C 13.117188 -17.6875 11.921875 -17.382812 10.765625 -16.78125 C 9.609375 -16.175781 8.613281 -15.300781 7.78125 -14.15625 C 6.957031 -13.007812 6.410156 -11.679688 6.140625 -10.171875 C 6.046875 -9.648438 6 -9.082031 6 -8.46875 C 6 -6.664062 6.535156 -5.238281 7.609375 -4.1875 C 8.679688 -3.144531 10.039062 -2.625 11.6875 -2.625 C 12.945312 -2.625 14.148438 -2.925781 15.296875 -3.53125 C 16.441406 -4.132812 17.425781 -5.007812 18.25 -6.15625 C 19.082031 -7.300781 19.632812 -8.65625 19.90625 -10.21875 Z M 19.90625 -10.21875 "/></g></g></g><g fill="#000000" fill-opacity="1"><g transform="translate(846.476377, 648.671516)"><g><path d="M 7.25 -16.421875 C 8.0625 -17.753906 9.082031 -18.789062 10.3125 -19.53125 C 11.550781 -20.269531 12.960938 -20.640625 14.546875 -20.640625 L 13.90625 -17.171875 L 13.03125 -17.171875 C 11.269531 -17.171875 9.800781 -16.703125 8.625 -15.765625 C 7.457031 -14.828125 6.679688 -13.25 6.296875 -11.03125 L 4.328125 0 L 0.96875 0 L 4.546875 -20.28125 L 7.921875 -20.28125 Z M 7.25 -16.421875 "/></g></g></g><g fill="#000000" fill-opacity="1"><g transform="translate(861.015911, 648.671516)"><g><path d="M 9.875 0.328125 C 8.175781 0.328125 6.675781 -0.0195312 5.375 -0.71875 C 4.082031 -1.425781 3.078125 -2.414062 2.359375 -3.6875 C 1.648438 -4.957031 1.296875 -6.429688 1.296875 -8.109375 C 1.296875 -10.398438 1.828125 -12.5 2.890625 -14.40625 C 3.953125 -16.320312 5.410156 -17.832031 7.265625 -18.9375 C 9.128906 -20.050781 11.207031 -20.609375 13.5 -20.609375 C 15.207031 -20.609375 16.71875 -20.253906 18.03125 -19.546875 C 19.351562 -18.847656 20.378906 -17.863281 21.109375 -16.59375 C 21.835938 -15.320312 22.203125 -13.835938 22.203125 -12.140625 C 22.203125 -9.835938 21.65625 -7.738281 20.5625 -5.84375 C 19.476562 -3.945312 18 -2.441406 16.125 -1.328125 C 14.25 -0.222656 12.164062 0.328125 9.875 0.328125 Z M 10.28125 -2.515625 C 11.882812 -2.515625 13.328125 -2.953125 14.609375 -3.828125 C 15.890625 -4.703125 16.894531 -5.859375 17.625 -7.296875 C 18.351562 -8.742188 18.71875 -10.296875 18.71875 -11.953125 C 18.71875 -13.828125 18.175781 -15.265625 17.09375 -16.265625 C 16.007812 -17.265625 14.65625 -17.765625 13.03125 -17.765625 C 11.425781 -17.765625 9.992188 -17.328125 8.734375 -16.453125 C 7.472656 -15.578125 6.492188 -14.410156 5.796875 -12.953125 C 5.109375 -11.492188 4.765625 -9.925781 4.765625 -8.25 C 4.765625 -6.425781 5.28125 -5.015625 6.3125 -4.015625 C 7.351562 -3.015625 8.675781 -2.515625 10.28125 -2.515625 Z M 10.28125 -2.515625 "/></g></g></g><g fill="#000000" fill-opacity="1"><g transform="translate(885.433389, 648.671516)"><g><path d="M 6.0625 -5.546875 C 5.988281 -5.179688 5.953125 -4.863281 5.953125 -4.59375 C 5.953125 -3.96875 6.144531 -3.519531 6.53125 -3.25 C 6.914062 -2.976562 7.539062 -2.84375 8.40625 -2.84375 L 10.875 -2.84375 L 10.359375 0 L 7.328125 0 C 5.722656 0 4.519531 -0.304688 3.71875 -0.921875 C 2.914062 -1.535156 2.515625 -2.546875 2.515625 -3.953125 C 2.515625 -4.492188 2.5625 -5.023438 2.65625 -5.546875 L 4.765625 -17.5 L 2.1875 -17.5 L 2.65625 -20.28125 L 5.296875 -20.28125 L 6.171875 -25.375 L 9.578125 -25.375 L 8.6875 -20.28125 L 13.953125 -20.28125 L 13.46875 -17.5 L 8.171875 -17.5 Z M 6.0625 -5.546875 "/></g></g></g><g fill="#000000" fill-opacity="1"><g transform="translate(899.639947, 648.671516)"><g><path d="M 13.359375 -20.609375 C 15.054688 -20.609375 16.523438 -20.28125 17.765625 -19.625 C 19.015625 -18.96875 19.96875 -18.054688 20.625 -16.890625 C 21.28125 -15.722656 21.609375 -14.382812 21.609375 -12.875 C 21.609375 -12.351562 21.546875 -11.722656 21.421875 -10.984375 C 21.328125 -10.347656 21.164062 -9.679688 20.9375 -8.984375 L 4.734375 -8.984375 C 4.679688 -8.492188 4.65625 -8.140625 4.65625 -7.921875 C 4.65625 -6.210938 5.164062 -4.882812 6.1875 -3.9375 C 7.21875 -2.988281 8.5625 -2.515625 10.21875 -2.515625 C 11.664062 -2.515625 12.9375 -2.851562 14.03125 -3.53125 C 15.132812 -4.207031 15.96875 -5.113281 16.53125 -6.25 L 20.171875 -6.25 C 19.273438 -4.300781 17.90625 -2.71875 16.0625 -1.5 C 14.226562 -0.28125 12.101562 0.328125 9.6875 0.328125 C 7.15625 0.328125 5.117188 -0.398438 3.578125 -1.859375 C 2.035156 -3.328125 1.265625 -5.332031 1.265625 -7.875 C 1.265625 -8.59375 1.335938 -9.359375 1.484375 -10.171875 C 1.847656 -12.265625 2.597656 -14.101562 3.734375 -15.6875 C 4.867188 -17.269531 6.269531 -18.484375 7.9375 -19.328125 C 9.601562 -20.179688 11.410156 -20.609375 13.359375 -20.609375 Z M 18.015625 -11.4375 C 18.085938 -11.925781 18.125 -12.378906 18.125 -12.796875 C 18.125 -14.378906 17.625 -15.601562 16.625 -16.46875 C 15.632812 -17.332031 14.335938 -17.765625 12.734375 -17.765625 C 11.003906 -17.765625 9.4375 -17.203125 8.03125 -16.078125 C 6.625 -14.953125 5.675781 -13.40625 5.1875 -11.4375 Z M 18.015625 -11.4375 "/></g></g></g><g fill="#000000" fill-opacity="1"><g transform="translate(923.317519, 648.671516)"><g><path d="M 1.484375 -10.171875 C 1.847656 -12.265625 2.59375 -14.09375 3.71875 -15.65625 C 4.84375 -17.226562 6.226562 -18.445312 7.875 -19.3125 C 9.53125 -20.175781 11.320312 -20.609375 13.25 -20.609375 C 15.738281 -20.609375 17.675781 -20.003906 19.0625 -18.796875 C 20.457031 -17.585938 21.234375 -15.910156 21.390625 -13.765625 L 17.765625 -13.765625 C 17.640625 -14.992188 17.140625 -15.96875 16.265625 -16.6875 C 15.390625 -17.40625 14.210938 -17.765625 12.734375 -17.765625 C 10.804688 -17.765625 9.132812 -17.101562 7.71875 -15.78125 C 6.300781 -14.457031 5.378906 -12.585938 4.953125 -10.171875 C 4.828125 -9.359375 4.765625 -8.679688 4.765625 -8.140625 C 4.765625 -6.335938 5.242188 -4.945312 6.203125 -3.96875 C 7.171875 -3 8.457031 -2.515625 10.0625 -2.515625 C 11.539062 -2.515625 12.828125 -2.859375 13.921875 -3.546875 C 15.023438 -4.242188 15.875 -5.234375 16.46875 -6.515625 L 20.09375 -6.515625 C 19.207031 -4.441406 17.835938 -2.78125 15.984375 -1.53125 C 14.128906 -0.289062 11.984375 0.328125 9.546875 0.328125 C 7.003906 0.328125 4.988281 -0.394531 3.5 -1.84375 C 2.007812 -3.300781 1.265625 -5.289062 1.265625 -7.8125 C 1.265625 -8.570312 1.335938 -9.359375 1.484375 -10.171875 Z M 1.484375 -10.171875 "/></g></g></g><g fill="#000000" fill-opacity="1"><g transform="translate(946.514118, 648.671516)"><g><path d="M 6.0625 -5.546875 C 5.988281 -5.179688 5.953125 -4.863281 5.953125 -4.59375 C 5.953125 -3.96875 6.144531 -3.519531 6.53125 -3.25 C 6.914062 -2.976562 7.539062 -2.84375 8.40625 -2.84375 L 10.875 -2.84375 L 10.359375 0 L 7.328125 0 C 5.722656 0 4.519531 -0.304688 3.71875 -0.921875 C 2.914062 -1.535156 2.515625 -2.546875 2.515625 -3.953125 C 2.515625 -4.492188 2.5625 -5.023438 2.65625 -5.546875 L 4.765625 -17.5 L 2.1875 -17.5 L 2.65625 -20.28125 L 5.296875 -20.28125 L 6.171875 -25.375 L 9.578125 -25.375 L 8.6875 -20.28125 L 13.953125 -20.28125 L 13.46875 -17.5 L 8.171875 -17.5 Z M 6.0625 -5.546875 "/></g></g></g><g fill="#000000" fill-opacity="1"><g transform="translate(960.720698, 648.671516)"><g><path d="M 9.875 0.328125 C 8.175781 0.328125 6.675781 -0.0195312 5.375 -0.71875 C 4.082031 -1.425781 3.078125 -2.414062 2.359375 -3.6875 C 1.648438 -4.957031 1.296875 -6.429688 1.296875 -8.109375 C 1.296875 -10.398438 1.828125 -12.5 2.890625 -14.40625 C 3.953125 -16.320312 5.410156 -17.832031 7.265625 -18.9375 C 9.128906 -20.050781 11.207031 -20.609375 13.5 -20.609375 C 15.207031 -20.609375 16.71875 -20.253906 18.03125 -19.546875 C 19.351562 -18.847656 20.378906 -17.863281 21.109375 -16.59375 C 21.835938 -15.320312 22.203125 -13.835938 22.203125 -12.140625 C 22.203125 -9.835938 21.65625 -7.738281 20.5625 -5.84375 C 19.476562 -3.945312 18 -2.441406 16.125 -1.328125 C 14.25 -0.222656 12.164062 0.328125 9.875 0.328125 Z M 10.28125 -2.515625 C 11.882812 -2.515625 13.328125 -2.953125 14.609375 -3.828125 C 15.890625 -4.703125 16.894531 -5.859375 17.625 -7.296875 C 18.351562 -8.742188 18.71875 -10.296875 18.71875 -11.953125 C 18.71875 -13.828125 18.175781 -15.265625 17.09375 -16.265625 C 16.007812 -17.265625 14.65625 -17.765625 13.03125 -17.765625 C 11.425781 -17.765625 9.992188 -17.328125 8.734375 -16.453125 C 7.472656 -15.578125 6.492188 -14.410156 5.796875 -12.953125 C 5.109375 -11.492188 4.765625 -9.925781 4.765625 -8.25 C 4.765625 -6.425781 5.28125 -5.015625 6.3125 -4.015625 C 7.351562 -3.015625 8.675781 -2.515625 10.28125 -2.515625 Z M 10.28125 -2.515625 "/></g></g></g><g fill="#000000" fill-opacity="1"><g transform="translate(985.138177, 648.671516)"><g><path d="M 7.25 -16.421875 C 8.0625 -17.753906 9.082031 -18.789062 10.3125 -19.53125 C 11.550781 -20.269531 12.960938 -20.640625 14.546875 -20.640625 L 13.90625 -17.171875 L 13.03125 -17.171875 C 11.269531 -17.171875 9.800781 -16.703125 8.625 -15.765625 C 7.457031 -14.828125 6.679688 -13.25 6.296875 -11.03125 L 4.328125 0 L 0.96875 0 L 4.546875 -20.28125 L 7.921875 -20.28125 Z M 7.25 -16.421875 "/></g></g></g><g fill="#000000" fill-opacity="1"><g transform="translate(999.677711, 648.671516)"><g/></g></g><g fill="#000000" fill-opacity="1"><g transform="translate(1011.442534, 648.671516)"><g><path d="M 9.875 0.328125 C 8.175781 0.328125 6.675781 -0.0195312 5.375 -0.71875 C 4.082031 -1.425781 3.078125 -2.414062 2.359375 -3.6875 C 1.648438 -4.957031 1.296875 -6.429688 1.296875 -8.109375 C 1.296875 -10.398438 1.828125 -12.5 2.890625 -14.40625 C 3.953125 -16.320312 5.410156 -17.832031 7.265625 -18.9375 C 9.128906 -20.050781 11.207031 -20.609375 13.5 -20.609375 C 15.207031 -20.609375 16.71875 -20.253906 18.03125 -19.546875 C 19.351562 -18.847656 20.378906 -17.863281 21.109375 -16.59375 C 21.835938 -15.320312 22.203125 -13.835938 22.203125 -12.140625 C 22.203125 -9.835938 21.65625 -7.738281 20.5625 -5.84375 C 19.476562 -3.945312 18 -2.441406 16.125 -1.328125 C 14.25 -0.222656 12.164062 0.328125 9.875 0.328125 Z M 10.28125 -2.515625 C 11.882812 -2.515625 13.328125 -2.953125 14.609375 -3.828125 C 15.890625 -4.703125 16.894531 -5.859375 17.625 -7.296875 C 18.351562 -8.742188 18.71875 -10.296875 18.71875 -11.953125 C 18.71875 -13.828125 18.175781 -15.265625 17.09375 -16.265625 C 16.007812 -17.265625 14.65625 -17.765625 13.03125 -17.765625 C 11.425781 -17.765625 9.992188 -17.328125 8.734375 -16.453125 C 7.472656 -15.578125 6.492188 -14.410156 5.796875 -12.953125 C 5.109375 -11.492188 4.765625 -9.925781 4.765625 -8.25 C 4.765625 -6.425781 5.28125 -5.015625 6.3125 -4.015625 C 7.351562 -3.015625 8.675781 -2.515625 10.28125 -2.515625 Z M 10.28125 -2.515625 "/></g></g></g><g fill="#000000" fill-opacity="1"><g transform="translate(1035.860012, 648.671516)"><g><path d="M 13.5 -25.453125 C 12 -25.453125 10.894531 -25.160156 10.1875 -24.578125 C 9.488281 -24.003906 9.03125 -23.050781 8.8125 -21.71875 L 8.546875 -20.28125 L 12.796875 -20.28125 L 12.328125 -17.5 L 8.0625 -17.5 L 4.953125 0 L 1.59375 0 L 4.65625 -17.5 L 2.078125 -17.5 L 2.546875 -20.28125 L 5.140625 -20.28125 L 5.40625 -21.71875 C 5.820312 -23.988281 6.707031 -25.644531 8.0625 -26.6875 C 9.414062 -27.738281 11.390625 -28.265625 13.984375 -28.265625 Z M 13.5 -25.453125 "/></g></g></g><g fill="#000000" fill-opacity="1"><g transform="translate(1048.771717, 648.671516)"><g/></g></g><g fill="#000000" fill-opacity="1"><g transform="translate(1060.536539, 648.671516)"><g><path d="M 5.890625 -20.28125 L 9.328125 -3.921875 L 18.53125 -20.28125 L 22.015625 -20.28125 L 4.546875 9.546875 L 1.03125 9.546875 L 6.765625 -0.21875 L 2.140625 -20.28125 Z M 5.890625 -20.28125 "/></g></g></g><g fill="#000000" fill-opacity="1"><g transform="translate(1082.105309, 648.671516)"><g><path d="M 9.875 0.328125 C 8.175781 0.328125 6.675781 -0.0195312 5.375 -0.71875 C 4.082031 -1.425781 3.078125 -2.414062 2.359375 -3.6875 C 1.648438 -4.957031 1.296875 -6.429688 1.296875 -8.109375 C 1.296875 -10.398438 1.828125 -12.5 2.890625 -14.40625 C 3.953125 -16.320312 5.410156 -17.832031 7.265625 -18.9375 C 9.128906 -20.050781 11.207031 -20.609375 13.5 -20.609375 C 15.207031 -20.609375 16.71875 -20.253906 18.03125 -19.546875 C 19.351562 -18.847656 20.378906 -17.863281 21.109375 -16.59375 C 21.835938 -15.320312 22.203125 -13.835938 22.203125 -12.140625 C 22.203125 -9.835938 21.65625 -7.738281 20.5625 -5.84375 C 19.476562 -3.945312 18 -2.441406 16.125 -1.328125 C 14.25 -0.222656 12.164062 0.328125 9.875 0.328125 Z M 10.28125 -2.515625 C 11.882812 -2.515625 13.328125 -2.953125 14.609375 -3.828125 C 15.890625 -4.703125 16.894531 -5.859375 17.625 -7.296875 C 18.351562 -8.742188 18.71875 -10.296875 18.71875 -11.953125 C 18.71875 -13.828125 18.175781 -15.265625 17.09375 -16.265625 C 16.007812 -17.265625 14.65625 -17.765625 13.03125 -17.765625 C 11.425781 -17.765625 9.992188 -17.328125 8.734375 -16.453125 C 7.472656 -15.578125 6.492188 -14.410156 5.796875 -12.953125 C 5.109375 -11.492188 4.765625 -9.925781 4.765625 -8.25 C 4.765625 -6.425781 5.28125 -5.015625 6.3125 -4.015625 C 7.351562 -3.015625 8.675781 -2.515625 10.28125 -2.515625 Z M 10.28125 -2.515625 "/></g></g></g><g fill="#000000" fill-opacity="1"><g transform="translate(1106.522788, 648.671516)"><g><path d="M 22.53125 -20.28125 L 18.9375 0 L 15.578125 0 L 16.09375 -2.953125 C 15.28125 -1.921875 14.242188 -1.117188 12.984375 -0.546875 C 11.722656 0.015625 10.414062 0.296875 9.0625 0.296875 C 6.945312 0.296875 5.253906 -0.273438 3.984375 -1.421875 C 2.710938 -2.566406 2.078125 -4.210938 2.078125 -6.359375 C 2.078125 -6.898438 2.132812 -7.582031 2.25 -8.40625 L 4.359375 -20.28125 L 7.703125 -20.28125 L 5.703125 -8.84375 C 5.597656 -8.320312 5.546875 -7.78125 5.546875 -7.21875 C 5.546875 -5.707031 5.957031 -4.5625 6.78125 -3.78125 C 7.613281 -3.007812 8.769531 -2.625 10.25 -2.625 C 12.019531 -2.625 13.53125 -3.175781 14.78125 -4.28125 C 16.03125 -5.394531 16.828125 -7.015625 17.171875 -9.140625 L 17.171875 -9.03125 L 19.171875 -20.28125 Z M 22.53125 -20.28125 "/></g></g></g><g fill="#000000" fill-opacity="1"><g transform="translate(1130.940266, 648.671516)"><g><path d="M 7.25 -16.421875 C 8.0625 -17.753906 9.082031 -18.789062 10.3125 -19.53125 C 11.550781 -20.269531 12.960938 -20.640625 14.546875 -20.640625 L 13.90625 -17.171875 L 13.03125 -17.171875 C 11.269531 -17.171875 9.800781 -16.703125 8.625 -15.765625 C 7.457031 -14.828125 6.679688 -13.25 6.296875 -11.03125 L 4.328125 0 L 0.96875 0 L 4.546875 -20.28125 L 7.921875 -20.28125 Z M 7.25 -16.421875 "/></g></g></g><g fill="#000000" fill-opacity="1"><g transform="translate(1145.4798, 648.671516)"><g/></g></g><g fill="#000000" fill-opacity="1"><g transform="translate(1157.244646, 648.671516)"><g><path d="M 13.5 -25.453125 C 12 -25.453125 10.894531 -25.160156 10.1875 -24.578125 C 9.488281 -24.003906 9.03125 -23.050781 8.8125 -21.71875 L 8.546875 -20.28125 L 12.796875 -20.28125 L 12.328125 -17.5 L 8.0625 -17.5 L 4.953125 0 L 1.59375 0 L 4.65625 -17.5 L 2.078125 -17.5 L 2.546875 -20.28125 L 5.140625 -20.28125 L 5.40625 -21.71875 C 5.820312 -23.988281 6.707031 -25.644531 8.0625 -26.6875 C 9.414062 -27.738281 11.390625 -28.265625 13.984375 -28.265625 Z M 13.5 -25.453125 "/></g></g></g><g fill="#000000" fill-opacity="1"><g transform="translate(1170.156327, 648.671516)"><g><path d="M 1.484375 -10.21875 C 1.847656 -12.28125 2.59375 -14.09375 3.71875 -15.65625 C 4.84375 -17.226562 6.210938 -18.445312 7.828125 -19.3125 C 9.441406 -20.175781 11.160156 -20.609375 12.984375 -20.609375 C 14.765625 -20.609375 16.234375 -20.222656 17.390625 -19.453125 C 18.546875 -18.691406 19.347656 -17.734375 19.796875 -16.578125 L 20.46875 -20.28125 L 23.859375 -20.28125 L 20.28125 0 L 16.875 0 L 17.578125 -3.78125 C 16.691406 -2.59375 15.519531 -1.609375 14.0625 -0.828125 C 12.601562 -0.0546875 11 0.328125 9.25 0.328125 C 7.664062 0.328125 6.269531 -0.0078125 5.0625 -0.6875 C 3.851562 -1.363281 2.914062 -2.328125 2.25 -3.578125 C 1.59375 -4.835938 1.265625 -6.296875 1.265625 -7.953125 C 1.265625 -8.691406 1.335938 -9.445312 1.484375 -10.21875 Z M 18.6875 -10.171875 C 18.78125 -10.691406 18.828125 -11.25 18.828125 -11.84375 C 18.828125 -13.644531 18.289062 -15.066406 17.21875 -16.109375 C 16.144531 -17.160156 14.785156 -17.6875 13.140625 -17.6875 C 11.878906 -17.6875 10.675781 -17.390625 9.53125 -16.796875 C 8.382812 -16.203125 7.398438 -15.335938 6.578125 -14.203125 C 5.765625 -13.066406 5.222656 -11.738281 4.953125 -10.21875 C 4.859375 -9.695312 4.8125 -9.128906 4.8125 -8.515625 C 4.8125 -6.679688 5.335938 -5.238281 6.390625 -4.1875 C 7.453125 -3.144531 8.8125 -2.625 10.46875 -2.625 C 11.726562 -2.625 12.929688 -2.925781 14.078125 -3.53125 C 15.222656 -4.132812 16.207031 -5.007812 17.03125 -6.15625 C 17.863281 -7.300781 18.414062 -8.640625 18.6875 -10.171875 Z M 18.6875 -10.171875 "/></g></g></g><g fill="#000000" fill-opacity="1"><g transform="translate(1195.905668, 648.671516)"><g><path d="M 29.015625 -20.640625 C 31.078125 -20.640625 32.734375 -20.078125 33.984375 -18.953125 C 35.234375 -17.835938 35.859375 -16.207031 35.859375 -14.0625 C 35.859375 -13.269531 35.796875 -12.566406 35.671875 -11.953125 L 33.5625 0 L 30.234375 0 L 32.265625 -11.46875 C 32.359375 -11.988281 32.40625 -12.546875 32.40625 -13.140625 C 32.40625 -14.640625 32.003906 -15.773438 31.203125 -16.546875 C 30.398438 -17.328125 29.273438 -17.71875 27.828125 -17.71875 C 26.148438 -17.71875 24.710938 -17.207031 23.515625 -16.1875 C 22.316406 -15.164062 21.492188 -13.691406 21.046875 -11.765625 L 18.9375 0 L 15.609375 0 L 17.65625 -11.46875 C 17.75 -12.039062 17.796875 -12.609375 17.796875 -13.171875 C 17.796875 -14.648438 17.394531 -15.773438 16.59375 -16.546875 C 15.789062 -17.328125 14.660156 -17.71875 13.203125 -17.71875 C 11.453125 -17.71875 9.957031 -17.15625 8.71875 -16.03125 C 7.488281 -14.914062 6.691406 -13.296875 6.328125 -11.171875 L 6.328125 -11.25 L 4.328125 0 L 0.96875 0 L 4.546875 -20.28125 L 7.921875 -20.28125 L 7.40625 -17.359375 C 8.238281 -18.410156 9.269531 -19.21875 10.5 -19.78125 C 11.738281 -20.351562 13.035156 -20.640625 14.390625 -20.640625 C 16.097656 -20.640625 17.535156 -20.257812 18.703125 -19.5 C 19.878906 -18.738281 20.648438 -17.613281 21.015625 -16.125 C 21.859375 -17.5625 23 -18.671875 24.4375 -19.453125 C 25.882812 -20.242188 27.410156 -20.640625 29.015625 -20.640625 Z M 29.015625 -20.640625 "/></g></g></g><g fill="#000000" fill-opacity="1"><g transform="translate(1234.751628, 648.671516)"><g><path d="M 6.84375 -23.5625 C 6.300781 -23.5625 5.847656 -23.738281 5.484375 -24.09375 C 5.128906 -24.457031 4.953125 -24.910156 4.953125 -25.453125 C 4.953125 -26.191406 5.222656 -26.828125 5.765625 -27.359375 C 6.316406 -27.890625 6.945312 -28.15625 7.65625 -28.15625 C 8.226562 -28.15625 8.6875 -27.984375 9.03125 -27.640625 C 9.375 -27.296875 9.546875 -26.835938 9.546875 -26.265625 C 9.546875 -25.523438 9.273438 -24.890625 8.734375 -24.359375 C 8.191406 -23.828125 7.5625 -23.5625 6.84375 -23.5625 Z M 7.921875 -20.28125 L 4.328125 0 L 0.96875 0 L 4.546875 -20.28125 Z M 7.921875 -20.28125 "/></g></g></g><g fill="#000000" fill-opacity="1"><g transform="translate(1244.59263, 648.671516)"><g><path d="M 9.171875 -27.375 L 4.328125 0 L 0.96875 0 L 5.8125 -27.375 Z M 9.171875 -27.375 "/></g></g></g><g fill="#000000" fill-opacity="1"><g transform="translate(1254.433679, 648.671516)"><g><path d="M 5.890625 -20.28125 L 9.328125 -3.921875 L 18.53125 -20.28125 L 22.015625 -20.28125 L 4.546875 9.546875 L 1.03125 9.546875 L 6.765625 -0.21875 L 2.140625 -20.28125 Z M 5.890625 -20.28125 "/></g></g></g></svg>