<svg xmlns="http://www.w3.org/2000/svg" xmlns:xlink="http://www.w3.org/1999/xlink" width="2000" zoomAndPan="magnify" viewBox="0 0 1500 1499.999933" height="2000" preserveAspectRatio="xMidYMid meet" version="1.0"><defs><g/><clipPath id="389da72baa"><path d="M 525.550781 326.585938 L 974.449219 326.585938 L 974.449219 775.484375 L 525.550781 775.484375 Z M 525.550781 326.585938 " clip-rule="nonzero"/></clipPath><clipPath id="2e4dcc682c"><path d="M 750 326.585938 C 626.039062 326.585938 525.550781 427.074219 525.550781 551.035156 C 525.550781 674.992188 626.039062 775.484375 750 775.484375 C 873.960938 775.484375 974.449219 674.992188 974.449219 551.035156 C 974.449219 427.074219 873.960938 326.585938 750 326.585938 Z M 750 326.585938 " clip-rule="nonzero"/></clipPath><clipPath id="26513c32bd"><path d="M 0.550781 0.585938 L 449.449219 0.585938 L 449.449219 449.484375 L 0.550781 449.484375 Z M 0.550781 0.585938 " clip-rule="nonzero"/></clipPath><clipPath id="32691fdce6"><path d="M 225 0.585938 C 101.039062 0.585938 0.550781 101.074219 0.550781 225.035156 C 0.550781 348.992188 101.039062 449.484375 225 449.484375 C 348.960938 449.484375 449.449219 348.992188 449.449219 225.035156 C 449.449219 101.074219 348.960938 0.585938 225 0.585938 Z M 225 0.585938 " clip-rule="nonzero"/></clipPath><clipPath id="1e0fb9ab67"><rect x="0" width="450" y="0" height="450"/></clipPath><clipPath id="438a3ac94e"><path d="M 525.550781 326.585938 L 974.800781 326.585938 L 974.800781 775.835938 L 525.550781 775.835938 Z M 525.550781 326.585938 " clip-rule="nonzero"/></clipPath><clipPath id="803d553b89"><path d="M 543.355469 344.390625 L 956.644531 344.390625 L 956.644531 757.679688 L 543.355469 757.679688 Z M 543.355469 344.390625 " clip-rule="nonzero"/></clipPath><clipPath id="ecbc55a90b"><path d="M 750 344.390625 C 635.875 344.390625 543.355469 436.910156 543.355469 551.035156 C 543.355469 665.160156 635.875 757.679688 750 757.679688 C 864.125 757.679688 956.644531 665.160156 956.644531 551.035156 C 956.644531 436.910156 864.125 344.390625 750 344.390625 Z M 750 344.390625 " clip-rule="nonzero"/></clipPath><clipPath id="10aef2fd81"><path d="M 0.355469 0.390625 L 413.644531 0.390625 L 413.644531 413.679688 L 0.355469 413.679688 Z M 0.355469 0.390625 " clip-rule="nonzero"/></clipPath><clipPath id="064ad8c6a5"><path d="M 207 0.390625 C 92.875 0.390625 0.355469 92.910156 0.355469 207.035156 C 0.355469 321.160156 92.875 413.679688 207 413.679688 C 321.125 413.679688 413.644531 321.160156 413.644531 207.035156 C 413.644531 92.910156 321.125 0.390625 207 0.390625 Z M 207 0.390625 " clip-rule="nonzero"/></clipPath><clipPath id="1d06322b33"><rect x="0" width="414" y="0" height="414"/></clipPath><clipPath id="acb8104b43"><path d="M 610 442 L 891.859375 442 L 891.859375 661 L 610 661 Z M 610 442 " clip-rule="nonzero"/></clipPath><clipPath id="bd688c6ddb"><rect x="0" width="1057" y="0" height="293"/></clipPath><clipPath id="0d34715af5"><rect x="0" width="1182" y="0" height="160"/></clipPath><clipPath id="2955db56a5"><path d="M 1190.621094 784.707031 L 1256.621094 784.707031 L 1256.621094 850.707031 L 1190.621094 850.707031 Z M 1190.621094 784.707031 " clip-rule="nonzero"/></clipPath><clipPath id="f8b561488a"><rect x="0" width="779" y="0" height="71"/></clipPath></defs><rect x="-150" width="1800" fill="#ffffff" y="-149.999993" height="1799.99992" fill-opacity="1"/><rect x="-150" width="1800" fill="#004aad" y="-149.999993" height="1799.99992" fill-opacity="1"/><g clip-path="url(#389da72baa)"><g clip-path="url(#2e4dcc682c)"><g transform="matrix(1, 0, 0, 1, 525, 326)"><g clip-path="url(#1e0fb9ab67)"><g clip-path="url(#26513c32bd)"><g clip-path="url(#32691fdce6)"><path fill="#004aad" d="M 0.550781 0.585938 L 449.449219 0.585938 L 449.449219 449.484375 L 0.550781 449.484375 Z M 0.550781 0.585938 " fill-opacity="1" fill-rule="nonzero"/></g></g></g></g></g></g><g clip-path="url(#438a3ac94e)"><path fill="#ffffff" d="M 749.996094 326.585938 C 626.160156 326.585938 525.550781 427.195312 525.550781 551.03125 C 525.550781 674.863281 626.160156 775.472656 749.996094 775.472656 C 873.828125 775.472656 974.4375 674.863281 974.4375 551.03125 C 974.4375 427.195312 873.828125 326.585938 749.996094 326.585938 Z M 749.996094 336.34375 C 868.6875 336.34375 964.679688 432.339844 964.679688 551.03125 C 964.679688 669.722656 868.6875 765.714844 749.996094 765.714844 C 631.304688 765.714844 535.308594 669.722656 535.308594 551.03125 C 535.308594 432.339844 631.304688 336.34375 749.996094 336.34375 Z M 749.996094 336.34375 " fill-opacity="1" fill-rule="nonzero"/></g><g clip-path="url(#803d553b89)"><g clip-path="url(#ecbc55a90b)"><g transform="matrix(1, 0, 0, 1, 543, 344)"><g clip-path="url(#1d06322b33)"><g clip-path="url(#10aef2fd81)"><g clip-path="url(#064ad8c6a5)"><path fill="#ffffff" d="M 0.355469 0.390625 L 413.644531 0.390625 L 413.644531 413.679688 L 0.355469 413.679688 Z M 0.355469 0.390625 " fill-opacity="1" fill-rule="nonzero"/></g></g></g></g></g></g><g clip-path="url(#acb8104b43)"><path fill="#004aad" d="M 797.554688 660.371094 C 779.035156 660.371094 763.035156 657.113281 749.550781 650.445312 C 752.367188 650.445312 757.402344 650.445312 757.402344 645.257812 C 757.402344 642.445312 755.035156 640.074219 752.21875 640.074219 L 715.328125 640.074219 C 708.511719 640.074219 708.511719 629.703125 715.328125 629.703125 L 762.738281 629.703125 C 769.554688 629.703125 769.554688 619.332031 762.738281 619.332031 C 741.699219 619.332031 720.808594 619.332031 699.769531 619.332031 C 692.957031 619.332031 692.957031 608.960938 699.769531 608.960938 L 740.070312 608.960938 C 746.886719 608.960938 746.886719 598.589844 740.070312 598.589844 C 723.476562 598.589844 706.882812 598.589844 690.4375 598.589844 C 683.621094 598.589844 683.621094 588.21875 690.4375 588.21875 L 714.585938 588.21875 C 721.402344 588.21875 721.402344 577.847656 714.585938 577.847656 L 703.769531 577.847656 C 697.398438 577.847656 695.917969 567.476562 704.808594 567.476562 C 710.289062 567.476562 715.921875 567.476562 721.402344 567.476562 C 728.21875 567.476562 728.21875 557.105469 721.402344 557.105469 L 696.808594 557.105469 C 689.992188 557.105469 689.992188 546.734375 696.808594 546.734375 L 714.289062 546.734375 C 721.105469 546.734375 721.105469 536.363281 714.289062 536.363281 L 692.214844 536.363281 C 685.398438 536.363281 685.398438 525.992188 692.214844 525.992188 L 735.328125 525.992188 C 742.144531 525.992188 742.144531 515.621094 735.328125 515.621094 C 719.773438 515.621094 704.214844 515.621094 688.660156 515.621094 C 681.84375 515.621094 681.84375 505.25 688.660156 505.25 L 705.992188 505.25 C 712.808594 505.25 712.660156 495.472656 706.882812 494.878906 L 687.917969 494.878906 C 681.101562 494.878906 681.101562 484.507812 687.917969 484.507812 L 723.625 484.0625 C 732.070312 485.101562 731.921875 474.285156 725.996094 473.691406 L 705.105469 473.691406 C 698.289062 473.691406 698.289062 463.320312 705.105469 463.320312 C 713.105469 463.320312 700.214844 463.320312 708.214844 463.320312 C 715.03125 463.320312 714.882812 453.542969 709.105469 452.949219 C 704.066406 452.507812 694.4375 455.023438 694.4375 447.765625 C 694.4375 441.691406 701.253906 442.578125 704.808594 442.578125 C 720.511719 442.578125 736.21875 442.578125 751.921875 442.578125 L 751.921875 563.921875 C 751.921875 595.921875 766.441406 616.960938 798.148438 616.960938 C 829.558594 616.960938 844.371094 597.257812 844.371094 565.550781 L 844.371094 442.578125 L 891.636719 442.578125 L 891.636719 563.625 C 891.636719 624.8125 858.890625 660.371094 797.554688 660.371094 Z M 615.320312 504.804688 L 623.617188 504.804688 C 630.433594 504.804688 630.433594 515.175781 623.617188 515.175781 L 615.320312 515.175781 C 608.359375 515.175781 608.359375 504.804688 615.320312 504.804688 Z M 694.4375 629.703125 C 698.4375 629.703125 705.550781 628.664062 705.550781 634.886719 C 705.550781 641.109375 698.4375 640.074219 694.4375 640.074219 C 687.472656 640.074219 687.472656 629.703125 694.4375 629.703125 Z M 644.953125 567.179688 L 687.472656 567.179688 C 694.289062 567.179688 694.289062 577.550781 687.472656 577.550781 L 644.953125 577.550781 C 637.988281 577.699219 637.988281 567.179688 644.953125 567.179688 Z M 679.027344 442.578125 L 686.734375 442.578125 C 693.546875 442.578125 693.546875 452.949219 686.734375 452.949219 L 679.027344 452.949219 C 672.066406 453.097656 672.066406 442.578125 679.027344 442.578125 Z M 649.988281 483.914062 L 675.917969 483.914062 C 682.734375 483.914062 682.734375 494.285156 675.917969 494.285156 L 649.988281 494.285156 C 643.027344 494.433594 643.027344 483.914062 649.988281 483.914062 Z M 662.878906 525.546875 L 677.695312 525.546875 C 684.511719 525.546875 684.511719 535.917969 677.695312 535.917969 L 662.878906 535.917969 C 656.0625 535.917969 656.0625 525.546875 662.878906 525.546875 Z M 639.765625 504.804688 L 669.992188 504.804688 C 676.804688 504.804688 676.804688 515.175781 669.992188 515.175781 L 639.765625 515.175781 C 632.953125 515.175781 632.953125 504.804688 639.765625 504.804688 Z M 670.140625 588.070312 C 674.582031 588.070312 682.140625 586.886719 682.140625 593.257812 C 682.140625 599.625 674.730469 598.441406 670.140625 598.441406 C 663.175781 598.441406 663.175781 588.070312 670.140625 588.070312 Z M 670.140625 588.070312 " fill-opacity="1" fill-rule="evenodd"/></g><g transform="matrix(1, 0, 0, 1, 224, 812)"><g clip-path="url(#bd688c6ddb)"><g fill="#ffffff" fill-opacity="1"><g transform="translate(0.860891, 219.49617)"><g><path d="M 113.296875 2.421875 C 75.929688 2.421875 48.796875 -4.773438 31.890625 -19.171875 C 14.992188 -33.566406 6.546875 -55.5625 6.546875 -85.15625 L 6.546875 -169.828125 L 63.5625 -169.828125 L 63.5625 -85.15625 C 63.5625 -80.144531 64.164062 -75.289062 65.375 -70.59375 C 66.59375 -65.90625 68.898438 -61.660156 72.296875 -57.859375 C 75.691406 -54.054688 80.664062 -51.0625 87.21875 -48.875 C 93.769531 -46.695312 102.460938 -45.609375 113.296875 -45.609375 C 124.128906 -45.609375 132.863281 -46.738281 139.5 -49 C 146.132812 -51.269531 151.148438 -54.304688 154.546875 -58.109375 C 157.941406 -61.910156 160.242188 -66.15625 161.453125 -70.84375 C 162.671875 -75.53125 163.28125 -80.300781 163.28125 -85.15625 L 163.28125 -169.828125 L 220.046875 -169.828125 L 220.046875 -85.15625 C 220.046875 -55.71875 211.550781 -33.757812 194.5625 -19.28125 C 177.582031 -4.8125 150.492188 2.421875 113.296875 2.421875 Z M 113.296875 2.421875 "/></g></g></g><g fill="#ffffff" fill-opacity="1"><g transform="translate(232.555997, 219.49617)"><g><path d="M 6.546875 0 L 6.546875 -169.828125 L 81.765625 -169.828125 L 168.609375 -62.109375 L 168.609375 -169.828125 L 225.390625 -169.828125 L 225.390625 0 L 150.421875 0 L 63.5625 -107.71875 L 63.5625 0 Z M 6.546875 0 "/></g></g></g><g fill="#ffffff" fill-opacity="1"><g transform="translate(469.588577, 219.49617)"><g><path d="M 6.546875 0 L 6.546875 -169.828125 L 63.5625 -169.828125 L 63.5625 0 Z M 6.546875 0 "/></g></g></g><g fill="#ffffff" fill-opacity="1"><g transform="translate(544.555993, 219.49617)"><g><path d="M 4.125 0 L 89.28125 -84.90625 L 4.125 -169.828125 L 79.578125 -169.828125 L 129.3125 -118.15625 L 179.046875 -169.828125 L 254.5 -169.828125 L 169.34375 -84.90625 L 254.5 0 L 179.046875 0 L 129.3125 -51.671875 L 79.578125 0 Z M 4.125 0 "/></g></g></g><g fill="#ffffff" fill-opacity="1"><g transform="translate(808.275932, 219.49617)"><g><path d="M 4.125 0 L 80.0625 -169.828125 L 162.796875 -169.828125 L 238.484375 0 L 175.890625 0 L 162.0625 -32.265625 L 80.78125 -32.265625 L 66.71875 0 Z M 96.796875 -72.546875 L 145.8125 -72.546875 L 121.296875 -129.3125 Z M 96.796875 -72.546875 "/></g></g></g></g></g><g transform="matrix(1, 0, 0, 1, 160, 1025)"><g clip-path="url(#0d34715af5)"><g fill="#ffffff" fill-opacity="1"><g transform="translate(1.271782, 119.797322)"><g><path d="M 111.375 -78.984375 L 87.953125 0 L 73.296875 0 L 56.703125 -59.78125 L 39.09375 0 L 24.546875 0.109375 L 2.15625 -78.984375 L 15.90625 -78.984375 L 32.28125 -14.65625 L 50 -78.984375 L 64.546875 -78.984375 L 81.03125 -15 L 97.5 -78.984375 Z M 111.375 -78.984375 "/></g></g></g><g fill="#ffffff" fill-opacity="1"><g transform="translate(117.061154, 119.797322)"><g><path d="M 4.203125 -31.59375 C 4.203125 -37.882812 5.507812 -43.453125 8.125 -48.296875 C 10.738281 -53.140625 14.296875 -56.90625 18.796875 -59.59375 C 23.304688 -62.289062 28.289062 -63.640625 33.75 -63.640625 C 38.675781 -63.640625 42.972656 -62.671875 46.640625 -60.734375 C 50.316406 -58.804688 53.253906 -56.40625 55.453125 -53.53125 L 55.453125 -62.609375 L 68.53125 -62.609375 L 68.53125 0 L 55.453125 0 L 55.453125 -9.3125 C 53.253906 -6.363281 50.257812 -3.90625 46.46875 -1.9375 C 42.6875 0.03125 38.375 1.015625 33.53125 1.015625 C 28.144531 1.015625 23.21875 -0.363281 18.75 -3.125 C 14.28125 -5.882812 10.738281 -9.742188 8.125 -14.703125 C 5.507812 -19.671875 4.203125 -25.300781 4.203125 -31.59375 Z M 55.453125 -31.359375 C 55.453125 -35.679688 54.5625 -39.429688 52.78125 -42.609375 C 51 -45.796875 48.671875 -48.222656 45.796875 -49.890625 C 42.921875 -51.554688 39.816406 -52.390625 36.484375 -52.390625 C 33.148438 -52.390625 30.039062 -51.570312 27.15625 -49.9375 C 24.28125 -48.3125 21.953125 -45.925781 20.171875 -42.78125 C 18.390625 -39.632812 17.5 -35.90625 17.5 -31.59375 C 17.5 -27.269531 18.390625 -23.476562 20.171875 -20.21875 C 21.953125 -16.96875 24.300781 -14.488281 27.21875 -12.78125 C 30.132812 -11.082031 33.222656 -10.234375 36.484375 -10.234375 C 39.816406 -10.234375 42.921875 -11.066406 45.796875 -12.734375 C 48.671875 -14.398438 51 -16.84375 52.78125 -20.0625 C 54.5625 -23.28125 55.453125 -27.046875 55.453125 -31.359375 Z M 55.453125 -31.359375 "/></g></g></g><g fill="#ffffff" fill-opacity="1"><g transform="translate(196.375261, 119.797322)"><g><path d="M 23.640625 -52.046875 L 23.640625 -17.390625 C 23.640625 -15.035156 24.1875 -13.347656 25.28125 -12.328125 C 26.382812 -11.304688 28.257812 -10.796875 30.90625 -10.796875 L 38.859375 -10.796875 L 38.859375 0 L 28.640625 0 C 22.804688 0 18.332031 -1.363281 15.21875 -4.09375 C 12.113281 -6.820312 10.5625 -11.253906 10.5625 -17.390625 L 10.5625 -52.046875 L 3.1875 -52.046875 L 3.1875 -62.609375 L 10.5625 -62.609375 L 10.5625 -78.1875 L 23.640625 -78.1875 L 23.640625 -62.609375 L 38.859375 -62.609375 L 38.859375 -52.046875 Z M 23.640625 -52.046875 "/></g></g></g><g fill="#ffffff" fill-opacity="1"><g transform="translate(240.918559, 119.797322)"><g><path d="M 65.90625 -32.84375 C 65.90625 -30.488281 65.753906 -28.367188 65.453125 -26.484375 L 17.609375 -26.484375 C 17.992188 -21.484375 19.851562 -17.46875 23.1875 -14.4375 C 26.519531 -11.40625 30.609375 -9.890625 35.453125 -9.890625 C 42.421875 -9.890625 47.347656 -12.804688 50.234375 -18.640625 L 64.203125 -18.640625 C 62.304688 -12.878906 58.878906 -8.160156 53.921875 -4.484375 C 48.960938 -0.816406 42.804688 1.015625 35.453125 1.015625 C 29.472656 1.015625 24.113281 -0.328125 19.375 -3.015625 C 14.632812 -5.703125 10.921875 -9.488281 8.234375 -14.375 C 5.546875 -19.257812 4.203125 -24.921875 4.203125 -31.359375 C 4.203125 -37.804688 5.507812 -43.472656 8.125 -48.359375 C 10.738281 -53.242188 14.410156 -57.007812 19.140625 -59.65625 C 23.878906 -62.3125 29.316406 -63.640625 35.453125 -63.640625 C 41.359375 -63.640625 46.625 -62.347656 51.25 -59.765625 C 55.875 -57.191406 59.472656 -53.578125 62.046875 -48.921875 C 64.617188 -44.265625 65.90625 -38.90625 65.90625 -32.84375 Z M 52.390625 -36.9375 C 52.316406 -41.707031 50.613281 -45.53125 47.28125 -48.40625 C 43.945312 -51.289062 39.816406 -52.734375 34.890625 -52.734375 C 30.421875 -52.734375 26.59375 -51.3125 23.40625 -48.46875 C 20.226562 -45.625 18.335938 -41.78125 17.734375 -36.9375 Z M 52.390625 -36.9375 "/></g></g></g><g fill="#ffffff" fill-opacity="1"><g transform="translate(313.301244, 119.797322)"><g><path d="M 21.484375 -53.53125 C 23.367188 -56.707031 25.882812 -59.1875 29.03125 -60.96875 C 32.175781 -62.75 35.910156 -63.640625 40.234375 -63.640625 L 40.234375 -50.234375 L 36.9375 -50.234375 C 31.851562 -50.234375 28.003906 -48.941406 25.390625 -46.359375 C 22.785156 -43.785156 21.484375 -39.316406 21.484375 -32.953125 L 21.484375 0 L 8.515625 0 L 8.515625 -62.609375 L 21.484375 -62.609375 Z M 21.484375 -53.53125 "/></g></g></g><g fill="#ffffff" fill-opacity="1"><g transform="translate(359.20808, 119.797322)"><g/></g></g><g fill="#ffffff" fill-opacity="1"><g transform="translate(391.024836, 119.797322)"><g><path d="M 59.546875 -78.984375 L 59.546875 -68.40625 L 38.53125 -68.40625 L 38.53125 0 L 25.5625 0 L 25.5625 -68.40625 L 4.4375 -68.40625 L 4.4375 -78.984375 Z M 59.546875 -78.984375 "/></g></g></g><g fill="#ffffff" fill-opacity="1"><g transform="translate(457.385102, 119.797322)"><g><path d="M 65.90625 -32.84375 C 65.90625 -30.488281 65.753906 -28.367188 65.453125 -26.484375 L 17.609375 -26.484375 C 17.992188 -21.484375 19.851562 -17.46875 23.1875 -14.4375 C 26.519531 -11.40625 30.609375 -9.890625 35.453125 -9.890625 C 42.421875 -9.890625 47.347656 -12.804688 50.234375 -18.640625 L 64.203125 -18.640625 C 62.304688 -12.878906 58.878906 -8.160156 53.921875 -4.484375 C 48.960938 -0.816406 42.804688 1.015625 35.453125 1.015625 C 29.472656 1.015625 24.113281 -0.328125 19.375 -3.015625 C 14.632812 -5.703125 10.921875 -9.488281 8.234375 -14.375 C 5.546875 -19.257812 4.203125 -24.921875 4.203125 -31.359375 C 4.203125 -37.804688 5.507812 -43.472656 8.125 -48.359375 C 10.738281 -53.242188 14.410156 -57.007812 19.140625 -59.65625 C 23.878906 -62.3125 29.316406 -63.640625 35.453125 -63.640625 C 41.359375 -63.640625 46.625 -62.347656 51.25 -59.765625 C 55.875 -57.191406 59.472656 -53.578125 62.046875 -48.921875 C 64.617188 -44.265625 65.90625 -38.90625 65.90625 -32.84375 Z M 52.390625 -36.9375 C 52.316406 -41.707031 50.613281 -45.53125 47.28125 -48.40625 C 43.945312 -51.289062 39.816406 -52.734375 34.890625 -52.734375 C 30.421875 -52.734375 26.59375 -51.3125 23.40625 -48.46875 C 20.226562 -45.625 18.335938 -41.78125 17.734375 -36.9375 Z M 52.390625 -36.9375 "/></g></g></g><g fill="#ffffff" fill-opacity="1"><g transform="translate(529.767787, 119.797322)"><g><path d="M 4.203125 -31.359375 C 4.203125 -37.804688 5.507812 -43.472656 8.125 -48.359375 C 10.738281 -53.242188 14.351562 -57.007812 18.96875 -59.65625 C 23.59375 -62.3125 28.898438 -63.640625 34.890625 -63.640625 C 42.460938 -63.640625 48.726562 -61.835938 53.6875 -58.234375 C 58.65625 -54.640625 62.007812 -49.507812 63.75 -42.84375 L 49.78125 -42.84375 C 48.632812 -45.945312 46.8125 -48.367188 44.3125 -50.109375 C 41.8125 -51.859375 38.671875 -52.734375 34.890625 -52.734375 C 29.585938 -52.734375 25.363281 -50.859375 22.21875 -47.109375 C 19.070312 -43.359375 17.5 -38.109375 17.5 -31.359375 C 17.5 -24.617188 19.070312 -19.351562 22.21875 -15.5625 C 25.363281 -11.78125 29.585938 -9.890625 34.890625 -9.890625 C 42.390625 -9.890625 47.351562 -13.1875 49.78125 -19.78125 L 63.75 -19.78125 C 61.9375 -13.414062 58.53125 -8.359375 53.53125 -4.609375 C 48.53125 -0.859375 42.316406 1.015625 34.890625 1.015625 C 28.898438 1.015625 23.59375 -0.328125 18.96875 -3.015625 C 14.351562 -5.703125 10.738281 -9.488281 8.125 -14.375 C 5.507812 -19.257812 4.203125 -24.921875 4.203125 -31.359375 Z M 4.203125 -31.359375 "/></g></g></g><g fill="#ffffff" fill-opacity="1"><g transform="translate(600.218729, 119.797322)"><g><path d="M 40.90625 -63.640625 C 45.675781 -63.640625 49.9375 -62.613281 53.6875 -60.5625 C 57.445312 -58.519531 60.40625 -55.488281 62.5625 -51.46875 C 64.71875 -47.457031 65.796875 -42.613281 65.796875 -36.9375 L 65.796875 0 L 52.953125 0 L 52.953125 -35 C 52.953125 -40.601562 51.550781 -44.898438 48.75 -47.890625 C 45.945312 -50.890625 42.125 -52.390625 37.28125 -52.390625 C 32.425781 -52.390625 28.578125 -50.890625 25.734375 -47.890625 C 22.898438 -44.898438 21.484375 -40.601562 21.484375 -35 L 21.484375 0 L 8.515625 0 L 8.515625 -84.09375 L 21.484375 -84.09375 L 21.484375 -55.34375 C 23.679688 -58 26.460938 -60.046875 29.828125 -61.484375 C 33.203125 -62.921875 36.894531 -63.640625 40.90625 -63.640625 Z M 40.90625 -63.640625 "/></g></g></g><g fill="#ffffff" fill-opacity="1"><g transform="translate(676.237566, 119.797322)"><g><path d="M 40.109375 -63.640625 C 45.035156 -63.640625 49.445312 -62.613281 53.34375 -60.5625 C 57.25 -58.519531 60.300781 -55.488281 62.5 -51.46875 C 64.695312 -47.457031 65.796875 -42.613281 65.796875 -36.9375 L 65.796875 0 L 52.953125 0 L 52.953125 -35 C 52.953125 -40.601562 51.550781 -44.898438 48.75 -47.890625 C 45.945312 -50.890625 42.125 -52.390625 37.28125 -52.390625 C 32.425781 -52.390625 28.578125 -50.890625 25.734375 -47.890625 C 22.898438 -44.898438 21.484375 -40.601562 21.484375 -35 L 21.484375 0 L 8.515625 0 L 8.515625 -62.609375 L 21.484375 -62.609375 L 21.484375 -55.453125 C 23.597656 -58.035156 26.300781 -60.046875 29.59375 -61.484375 C 32.894531 -62.921875 36.398438 -63.640625 40.109375 -63.640625 Z M 40.109375 -63.640625 "/></g></g></g><g fill="#ffffff" fill-opacity="1"><g transform="translate(752.256402, 119.797322)"><g><path d="M 35.6875 1.015625 C 29.769531 1.015625 24.425781 -0.328125 19.65625 -3.015625 C 14.882812 -5.703125 11.132812 -9.488281 8.40625 -14.375 C 5.675781 -19.257812 4.3125 -24.921875 4.3125 -31.359375 C 4.3125 -37.722656 5.710938 -43.367188 8.515625 -48.296875 C 11.328125 -53.222656 15.15625 -57.007812 20 -59.65625 C 24.851562 -62.3125 30.269531 -63.640625 36.25 -63.640625 C 42.238281 -63.640625 47.65625 -62.3125 52.5 -59.65625 C 57.351562 -57.007812 61.179688 -53.222656 63.984375 -48.296875 C 66.785156 -43.367188 68.1875 -37.722656 68.1875 -31.359375 C 68.1875 -24.992188 66.742188 -19.347656 63.859375 -14.421875 C 60.984375 -9.503906 57.0625 -5.703125 52.09375 -3.015625 C 47.132812 -0.328125 41.664062 1.015625 35.6875 1.015625 Z M 35.6875 -10.234375 C 39.019531 -10.234375 42.144531 -11.023438 45.0625 -12.609375 C 47.976562 -14.203125 50.34375 -16.585938 52.15625 -19.765625 C 53.976562 -22.953125 54.890625 -26.816406 54.890625 -31.359375 C 54.890625 -35.910156 54.015625 -39.753906 52.265625 -42.890625 C 50.523438 -46.035156 48.21875 -48.40625 45.34375 -50 C 42.46875 -51.59375 39.363281 -52.390625 36.03125 -52.390625 C 32.695312 -52.390625 29.609375 -51.59375 26.765625 -50 C 23.921875 -48.40625 21.664062 -46.035156 20 -42.890625 C 18.332031 -39.753906 17.5 -35.910156 17.5 -31.359375 C 17.5 -24.617188 19.222656 -19.410156 22.671875 -15.734375 C 26.117188 -12.066406 30.457031 -10.234375 35.6875 -10.234375 Z M 35.6875 -10.234375 "/></g></g></g><g fill="#ffffff" fill-opacity="1"><g transform="translate(827.025307, 119.797322)"><g><path d="M 21.484375 -84.09375 L 21.484375 0 L 8.515625 0 L 8.515625 -84.09375 Z M 21.484375 -84.09375 "/></g></g></g><g fill="#ffffff" fill-opacity="1"><g transform="translate(859.296539, 119.797322)"><g><path d="M 35.6875 1.015625 C 29.769531 1.015625 24.425781 -0.328125 19.65625 -3.015625 C 14.882812 -5.703125 11.132812 -9.488281 8.40625 -14.375 C 5.675781 -19.257812 4.3125 -24.921875 4.3125 -31.359375 C 4.3125 -37.722656 5.710938 -43.367188 8.515625 -48.296875 C 11.328125 -53.222656 15.15625 -57.007812 20 -59.65625 C 24.851562 -62.3125 30.269531 -63.640625 36.25 -63.640625 C 42.238281 -63.640625 47.65625 -62.3125 52.5 -59.65625 C 57.351562 -57.007812 61.179688 -53.222656 63.984375 -48.296875 C 66.785156 -43.367188 68.1875 -37.722656 68.1875 -31.359375 C 68.1875 -24.992188 66.742188 -19.347656 63.859375 -14.421875 C 60.984375 -9.503906 57.0625 -5.703125 52.09375 -3.015625 C 47.132812 -0.328125 41.664062 1.015625 35.6875 1.015625 Z M 35.6875 -10.234375 C 39.019531 -10.234375 42.144531 -11.023438 45.0625 -12.609375 C 47.976562 -14.203125 50.34375 -16.585938 52.15625 -19.765625 C 53.976562 -22.953125 54.890625 -26.816406 54.890625 -31.359375 C 54.890625 -35.910156 54.015625 -39.753906 52.265625 -42.890625 C 50.523438 -46.035156 48.21875 -48.40625 45.34375 -50 C 42.46875 -51.59375 39.363281 -52.390625 36.03125 -52.390625 C 32.695312 -52.390625 29.609375 -51.59375 26.765625 -50 C 23.921875 -48.40625 21.664062 -46.035156 20 -42.890625 C 18.332031 -39.753906 17.5 -35.910156 17.5 -31.359375 C 17.5 -24.617188 19.222656 -19.410156 22.671875 -15.734375 C 26.117188 -12.066406 30.457031 -10.234375 35.6875 -10.234375 Z M 35.6875 -10.234375 "/></g></g></g><g fill="#ffffff" fill-opacity="1"><g transform="translate(934.065444, 119.797322)"><g><path d="M 33.75 -63.640625 C 38.601562 -63.640625 42.90625 -62.671875 46.65625 -60.734375 C 50.40625 -58.804688 53.335938 -56.40625 55.453125 -53.53125 L 55.453125 -62.609375 L 68.53125 -62.609375 L 68.53125 1.015625 C 68.53125 6.773438 67.316406 11.910156 64.890625 16.421875 C 62.460938 20.929688 58.957031 24.472656 54.375 27.046875 C 49.789062 29.617188 44.316406 30.90625 37.953125 30.90625 C 29.472656 30.90625 22.425781 28.914062 16.8125 24.9375 C 11.207031 20.96875 8.023438 15.570312 7.265625 8.75 L 20.109375 8.75 C 21.097656 12.007812 23.203125 14.640625 26.421875 16.640625 C 29.640625 18.648438 33.484375 19.65625 37.953125 19.65625 C 43.179688 19.65625 47.40625 18.0625 50.625 14.875 C 53.84375 11.695312 55.453125 7.078125 55.453125 1.015625 L 55.453125 -9.4375 C 53.253906 -6.476562 50.28125 -3.992188 46.53125 -1.984375 C 42.78125 0.015625 38.519531 1.015625 33.75 1.015625 C 28.289062 1.015625 23.304688 -0.363281 18.796875 -3.125 C 14.296875 -5.882812 10.738281 -9.742188 8.125 -14.703125 C 5.507812 -19.671875 4.203125 -25.300781 4.203125 -31.59375 C 4.203125 -37.882812 5.507812 -43.453125 8.125 -48.296875 C 10.738281 -53.140625 14.296875 -56.90625 18.796875 -59.59375 C 23.304688 -62.289062 28.289062 -63.640625 33.75 -63.640625 Z M 55.453125 -31.359375 C 55.453125 -35.679688 54.5625 -39.429688 52.78125 -42.609375 C 51 -45.796875 48.671875 -48.222656 45.796875 -49.890625 C 42.921875 -51.554688 39.816406 -52.390625 36.484375 -52.390625 C 33.148438 -52.390625 30.039062 -51.570312 27.15625 -49.9375 C 24.28125 -48.3125 21.953125 -45.925781 20.171875 -42.78125 C 18.390625 -39.632812 17.5 -35.90625 17.5 -31.59375 C 17.5 -27.269531 18.390625 -23.476562 20.171875 -20.21875 C 21.953125 -16.96875 24.300781 -14.488281 27.21875 -12.78125 C 30.132812 -11.082031 33.222656 -10.234375 36.484375 -10.234375 C 39.816406 -10.234375 42.921875 -11.066406 45.796875 -12.734375 C 48.671875 -14.398438 51 -16.84375 52.78125 -20.0625 C 54.5625 -23.28125 55.453125 -27.046875 55.453125 -31.359375 Z M 55.453125 -31.359375 "/></g></g></g><g fill="#ffffff" fill-opacity="1"><g transform="translate(1013.379601, 119.797322)"><g><path d="M 15.109375 -70.90625 C 12.765625 -70.90625 10.796875 -71.703125 9.203125 -73.296875 C 7.609375 -74.890625 6.8125 -76.859375 6.8125 -79.203125 C 6.8125 -81.554688 7.609375 -83.523438 9.203125 -85.109375 C 10.796875 -86.703125 12.765625 -87.5 15.109375 -87.5 C 17.378906 -87.5 19.3125 -86.703125 20.90625 -85.109375 C 22.5 -83.523438 23.296875 -81.554688 23.296875 -79.203125 C 23.296875 -76.859375 22.5 -74.890625 20.90625 -73.296875 C 19.3125 -71.703125 17.378906 -70.90625 15.109375 -70.90625 Z M 21.484375 -62.609375 L 21.484375 0 L 8.515625 0 L 8.515625 -62.609375 Z M 21.484375 -62.609375 "/></g></g></g><g fill="#ffffff" fill-opacity="1"><g transform="translate(1045.650833, 119.797322)"><g><path d="M 65.90625 -32.84375 C 65.90625 -30.488281 65.753906 -28.367188 65.453125 -26.484375 L 17.609375 -26.484375 C 17.992188 -21.484375 19.851562 -17.46875 23.1875 -14.4375 C 26.519531 -11.40625 30.609375 -9.890625 35.453125 -9.890625 C 42.421875 -9.890625 47.347656 -12.804688 50.234375 -18.640625 L 64.203125 -18.640625 C 62.304688 -12.878906 58.878906 -8.160156 53.921875 -4.484375 C 48.960938 -0.816406 42.804688 1.015625 35.453125 1.015625 C 29.472656 1.015625 24.113281 -0.328125 19.375 -3.015625 C 14.632812 -5.703125 10.921875 -9.488281 8.234375 -14.375 C 5.546875 -19.257812 4.203125 -24.921875 4.203125 -31.359375 C 4.203125 -37.804688 5.507812 -43.472656 8.125 -48.359375 C 10.738281 -53.242188 14.410156 -57.007812 19.140625 -59.65625 C 23.878906 -62.3125 29.316406 -63.640625 35.453125 -63.640625 C 41.359375 -63.640625 46.625 -62.347656 51.25 -59.765625 C 55.875 -57.191406 59.472656 -53.578125 62.046875 -48.921875 C 64.617188 -44.265625 65.90625 -38.90625 65.90625 -32.84375 Z M 52.390625 -36.9375 C 52.316406 -41.707031 50.613281 -45.53125 47.28125 -48.40625 C 43.945312 -51.289062 39.816406 -52.734375 34.890625 -52.734375 C 30.421875 -52.734375 26.59375 -51.3125 23.40625 -48.46875 C 20.226562 -45.625 18.335938 -41.78125 17.734375 -36.9375 Z M 52.390625 -36.9375 "/></g></g></g><g fill="#ffffff" fill-opacity="1"><g transform="translate(1118.033518, 119.797322)"><g><path d="M 31.25 1.015625 C 26.320312 1.015625 21.90625 0.128906 18 -1.640625 C 14.101562 -3.421875 11.019531 -5.84375 8.75 -8.90625 C 6.476562 -11.976562 5.265625 -15.410156 5.109375 -19.203125 L 18.515625 -19.203125 C 18.742188 -16.554688 20.015625 -14.34375 22.328125 -12.5625 C 24.640625 -10.78125 27.539062 -9.890625 31.03125 -9.890625 C 34.664062 -9.890625 37.484375 -10.585938 39.484375 -11.984375 C 41.492188 -13.390625 42.5 -15.191406 42.5 -17.390625 C 42.5 -19.734375 41.378906 -21.472656 39.140625 -22.609375 C 36.910156 -23.742188 33.375 -24.992188 28.53125 -26.359375 C 23.832031 -27.648438 20.003906 -28.898438 17.046875 -30.109375 C 14.085938 -31.328125 11.53125 -33.1875 9.375 -35.6875 C 7.21875 -38.1875 6.140625 -41.476562 6.140625 -45.5625 C 6.140625 -48.894531 7.125 -51.941406 9.09375 -54.703125 C 11.0625 -57.472656 13.878906 -59.65625 17.546875 -61.25 C 21.222656 -62.84375 25.453125 -63.640625 30.234375 -63.640625 C 37.347656 -63.640625 43.082031 -61.835938 47.4375 -58.234375 C 51.800781 -54.640625 54.132812 -49.738281 54.4375 -43.53125 L 41.484375 -43.53125 C 41.253906 -46.332031 40.113281 -48.566406 38.0625 -50.234375 C 36.019531 -51.898438 33.257812 -52.734375 29.78125 -52.734375 C 26.363281 -52.734375 23.742188 -52.085938 21.921875 -50.796875 C 20.109375 -49.503906 19.203125 -47.800781 19.203125 -45.6875 C 19.203125 -44.019531 19.804688 -42.617188 21.015625 -41.484375 C 22.234375 -40.347656 23.710938 -39.457031 25.453125 -38.8125 C 27.191406 -38.164062 29.769531 -37.347656 33.1875 -36.359375 C 37.726562 -35.148438 41.457031 -33.921875 44.375 -32.671875 C 47.289062 -31.421875 49.804688 -29.582031 51.921875 -27.15625 C 54.046875 -24.738281 55.148438 -21.519531 55.234375 -17.5 C 55.234375 -13.9375 54.242188 -10.753906 52.265625 -7.953125 C 50.296875 -5.148438 47.515625 -2.953125 43.921875 -1.359375 C 40.328125 0.222656 36.101562 1.015625 31.25 1.015625 Z M 31.25 1.015625 "/></g></g></g></g></g><path fill="#ffffff" d="M 1211.5625 829.125 L 1207.5 829.125 L 1207.5 810.332031 L 1200.332031 810.332031 L 1200.332031 806.933594 L 1218.710938 806.933594 L 1218.710938 810.332031 L 1211.5625 810.332031 L 1211.5625 829.125 " fill-opacity="1" fill-rule="nonzero"/><path fill="#ffffff" d="M 1233.273438 823.171875 C 1233.757812 821.421875 1234.363281 819.550781 1235.082031 817.546875 L 1238.910156 806.933594 L 1244.617188 806.933594 L 1244.617188 829.125 L 1240.554688 829.125 L 1240.554688 817.878906 C 1240.554688 816.230469 1240.621094 814.320312 1240.753906 812.140625 L 1240.605469 812.140625 C 1240.414062 812.769531 1240.195312 813.480469 1239.941406 814.265625 C 1239.6875 815.050781 1239.421875 815.824219 1239.144531 816.585938 L 1234.550781 829.125 L 1231.929688 829.125 L 1227.335938 816.585938 C 1227.058594 815.824219 1226.792969 815.050781 1226.539062 814.265625 C 1226.285156 813.480469 1226.0625 812.769531 1225.875 812.140625 L 1225.726562 812.140625 C 1225.859375 814.1875 1225.925781 816.09375 1225.925781 817.863281 L 1225.925781 829.125 L 1221.863281 829.125 L 1221.863281 806.933594 L 1227.535156 806.933594 L 1231.367188 817.496094 C 1232.007812 819.253906 1232.609375 821.144531 1233.171875 823.171875 L 1233.273438 823.171875 " fill-opacity="1" fill-rule="nonzero"/><g clip-path="url(#2955db56a5)"><path fill="#ffffff" d="M 1252.914062 817.59375 C 1252.914062 833.808594 1239.722656 847 1223.511719 847 C 1207.296875 847 1194.109375 833.808594 1194.109375 817.59375 C 1194.109375 801.382812 1207.296875 788.191406 1223.511719 788.191406 C 1239.722656 788.191406 1252.914062 801.382812 1252.914062 817.59375 Z M 1253.8125 804.792969 C 1252.15625 800.875 1249.785156 797.359375 1246.765625 794.339844 C 1243.746094 791.320312 1240.230469 788.949219 1236.3125 787.292969 C 1232.257812 785.578125 1227.949219 784.707031 1223.511719 784.707031 C 1219.070312 784.707031 1214.765625 785.578125 1210.707031 787.292969 C 1206.792969 788.949219 1203.273438 791.320312 1200.253906 794.339844 C 1197.234375 797.359375 1194.863281 800.875 1193.207031 804.792969 C 1191.492188 808.847656 1190.621094 813.15625 1190.621094 817.59375 C 1190.621094 822.035156 1191.492188 826.34375 1193.207031 830.398438 C 1194.863281 834.316406 1197.234375 837.832031 1200.253906 840.851562 C 1203.273438 843.871094 1206.792969 846.242188 1210.707031 847.898438 C 1214.765625 849.613281 1219.070312 850.484375 1223.511719 850.484375 C 1227.949219 850.484375 1232.257812 849.613281 1236.3125 847.898438 C 1240.230469 846.242188 1243.746094 843.871094 1246.765625 840.851562 C 1249.785156 837.832031 1252.15625 834.316406 1253.8125 830.398438 C 1255.53125 826.34375 1256.398438 822.035156 1256.398438 817.59375 C 1256.398438 813.15625 1255.53125 808.847656 1253.8125 804.792969 " fill-opacity="1" fill-rule="nonzero"/></g><g transform="matrix(1, 0, 0, 1, 393, 785)"><g clip-path="url(#f8b561488a)"><g fill="#ffffff" fill-opacity="1"><g transform="translate(1.553837, 52.288935)"><g><path d="M 24.375 -7.734375 L 9.21875 -7.734375 L 6.4375 0 L 1.640625 0 L 14.203125 -34.546875 L 19.4375 -34.546875 L 31.953125 0 L 27.171875 0 Z M 23.078125 -11.421875 L 16.796875 -28.96875 L 10.515625 -11.421875 Z M 23.078125 -11.421875 "/></g></g></g><g fill="#ffffff" fill-opacity="1"><g transform="translate(36.152217, 52.288935)"><g/></g></g><g fill="#ffffff" fill-opacity="1"><g transform="translate(50.460247, 52.288935)"><g><path d="M 9.375 -23.578125 L 9.375 -7.484375 C 9.375 -6.148438 9.65625 -5.207031 10.21875 -4.65625 C 10.78125 -4.113281 11.757812 -3.84375 13.15625 -3.84375 L 16.5 -3.84375 L 16.5 0 L 12.421875 0 C 9.890625 0 7.992188 -0.578125 6.734375 -1.734375 C 5.472656 -2.898438 4.84375 -4.816406 4.84375 -7.484375 L 4.84375 -23.578125 L 1.296875 -23.578125 L 1.296875 -27.328125 L 4.84375 -27.328125 L 4.84375 -34.203125 L 9.375 -34.203125 L 9.375 -27.328125 L 16.5 -27.328125 L 16.5 -23.578125 Z M 9.375 -23.578125 "/></g></g></g><g fill="#ffffff" fill-opacity="1"><g transform="translate(69.604071, 52.288935)"><g><path d="M 8.375 -22.890625 C 9.175781 -24.453125 10.316406 -25.664062 11.796875 -26.53125 C 13.273438 -27.394531 15.078125 -27.828125 17.203125 -27.828125 L 17.203125 -23.140625 L 16 -23.140625 C 10.914062 -23.140625 8.375 -20.378906 8.375 -14.859375 L 8.375 0 L 3.84375 0 L 3.84375 -27.328125 L 8.375 -27.328125 Z M 8.375 -22.890625 "/></g></g></g><g fill="#ffffff" fill-opacity="1"><g transform="translate(89.196577, 52.288935)"><g><path d="M 28.078125 -27.328125 L 28.078125 0 L 23.53125 0 L 23.53125 -4.03125 C 22.664062 -2.632812 21.457031 -1.546875 19.90625 -0.765625 C 18.363281 0.015625 16.664062 0.40625 14.8125 0.40625 C 12.6875 0.40625 10.773438 -0.0351562 9.078125 -0.921875 C 7.378906 -1.804688 6.039062 -3.128906 5.0625 -4.890625 C 4.082031 -6.648438 3.59375 -8.789062 3.59375 -11.3125 L 3.59375 -27.328125 L 8.078125 -27.328125 L 8.078125 -11.921875 C 8.078125 -9.222656 8.757812 -7.148438 10.125 -5.703125 C 11.488281 -4.265625 13.347656 -3.546875 15.703125 -3.546875 C 18.128906 -3.546875 20.039062 -4.289062 21.4375 -5.78125 C 22.832031 -7.28125 23.53125 -9.457031 23.53125 -12.3125 L 23.53125 -27.328125 Z M 28.078125 -27.328125 "/></g></g></g><g fill="#ffffff" fill-opacity="1"><g transform="translate(122.099942, 52.288935)"><g><path d="M 28.765625 -14.703125 C 28.765625 -13.835938 28.71875 -12.925781 28.625 -11.96875 L 6.78125 -11.96875 C 6.945312 -9.269531 7.867188 -7.164062 9.546875 -5.65625 C 11.222656 -4.144531 13.257812 -3.390625 15.65625 -3.390625 C 17.613281 -3.390625 19.25 -3.84375 20.5625 -4.75 C 21.875 -5.664062 22.796875 -6.890625 23.328125 -8.421875 L 28.21875 -8.421875 C 27.488281 -5.796875 26.023438 -3.660156 23.828125 -2.015625 C 21.640625 -0.367188 18.914062 0.453125 15.65625 0.453125 C 13.0625 0.453125 10.742188 -0.128906 8.703125 -1.296875 C 6.660156 -2.460938 5.054688 -4.113281 3.890625 -6.25 C 2.722656 -8.394531 2.140625 -10.882812 2.140625 -13.71875 C 2.140625 -16.539062 2.703125 -19.015625 3.828125 -21.140625 C 4.960938 -23.265625 6.550781 -24.898438 8.59375 -26.046875 C 10.644531 -27.191406 13 -27.765625 15.65625 -27.765625 C 18.25 -27.765625 20.539062 -27.195312 22.53125 -26.0625 C 24.53125 -24.9375 26.066406 -23.382812 27.140625 -21.40625 C 28.222656 -19.4375 28.765625 -17.203125 28.765625 -14.703125 Z M 24.078125 -15.65625 C 24.078125 -17.382812 23.691406 -18.867188 22.921875 -20.109375 C 22.160156 -21.359375 21.125 -22.304688 19.8125 -22.953125 C 18.5 -23.609375 17.046875 -23.9375 15.453125 -23.9375 C 13.160156 -23.9375 11.207031 -23.203125 9.59375 -21.734375 C 7.988281 -20.273438 7.066406 -18.25 6.828125 -15.65625 Z M 24.078125 -15.65625 "/></g></g></g><g fill="#ffffff" fill-opacity="1"><g transform="translate(154.006243, 52.288935)"><g/></g></g><g fill="#ffffff" fill-opacity="1"><g transform="translate(168.314274, 52.288935)"><g><path d="M 8.375 -22.28125 C 9.269531 -23.84375 10.609375 -25.144531 12.390625 -26.1875 C 14.171875 -27.238281 16.238281 -27.765625 18.59375 -27.765625 C 21.019531 -27.765625 23.222656 -27.179688 25.203125 -26.015625 C 27.179688 -24.859375 28.734375 -23.222656 29.859375 -21.109375 C 30.992188 -19.003906 31.5625 -16.554688 31.5625 -13.765625 C 31.5625 -11.003906 30.992188 -8.539062 29.859375 -6.375 C 28.734375 -4.21875 27.179688 -2.539062 25.203125 -1.34375 C 23.222656 -0.144531 21.019531 0.453125 18.59375 0.453125 C 16.269531 0.453125 14.21875 -0.0664062 12.4375 -1.109375 C 10.65625 -2.160156 9.300781 -3.46875 8.375 -5.03125 L 8.375 12.96875 L 3.84375 12.96875 L 3.84375 -27.328125 L 8.375 -27.328125 Z M 26.921875 -13.765625 C 26.921875 -15.828125 26.503906 -17.617188 25.671875 -19.140625 C 24.847656 -20.671875 23.726562 -21.832031 22.3125 -22.625 C 20.894531 -23.425781 19.34375 -23.828125 17.65625 -23.828125 C 15.988281 -23.828125 14.445312 -23.421875 13.03125 -22.609375 C 11.625 -21.796875 10.492188 -20.613281 9.640625 -19.0625 C 8.796875 -17.519531 8.375 -15.738281 8.375 -13.71875 C 8.375 -11.65625 8.796875 -9.847656 9.640625 -8.296875 C 10.492188 -6.753906 11.625 -5.578125 13.03125 -4.765625 C 14.445312 -3.953125 15.988281 -3.546875 17.65625 -3.546875 C 19.34375 -3.546875 20.894531 -3.953125 22.3125 -4.765625 C 23.726562 -5.578125 24.847656 -6.753906 25.671875 -8.296875 C 26.503906 -9.847656 26.921875 -11.671875 26.921875 -13.765625 Z M 26.921875 -13.765625 "/></g></g></g><g fill="#ffffff" fill-opacity="1"><g transform="translate(203.012368, 52.288935)"><g><path d="M 8.375 -22.890625 C 9.175781 -24.453125 10.316406 -25.664062 11.796875 -26.53125 C 13.273438 -27.394531 15.078125 -27.828125 17.203125 -27.828125 L 17.203125 -23.140625 L 16 -23.140625 C 10.914062 -23.140625 8.375 -20.378906 8.375 -14.859375 L 8.375 0 L 3.84375 0 L 3.84375 -27.328125 L 8.375 -27.328125 Z M 8.375 -22.890625 "/></g></g></g><g fill="#ffffff" fill-opacity="1"><g transform="translate(222.604874, 52.288935)"><g><path d="M 15.75 0.453125 C 13.195312 0.453125 10.878906 -0.128906 8.796875 -1.296875 C 6.722656 -2.460938 5.09375 -4.113281 3.90625 -6.25 C 2.726562 -8.394531 2.140625 -10.882812 2.140625 -13.71875 C 2.140625 -16.507812 2.742188 -18.972656 3.953125 -21.109375 C 5.171875 -23.253906 6.828125 -24.898438 8.921875 -26.046875 C 11.015625 -27.191406 13.359375 -27.765625 15.953125 -27.765625 C 18.546875 -27.765625 20.890625 -27.191406 22.984375 -26.046875 C 25.078125 -24.898438 26.726562 -23.265625 27.9375 -21.140625 C 29.15625 -19.015625 29.765625 -16.539062 29.765625 -13.71875 C 29.765625 -10.882812 29.140625 -8.394531 27.890625 -6.25 C 26.648438 -4.113281 24.960938 -2.460938 22.828125 -1.296875 C 20.703125 -0.128906 18.34375 0.453125 15.75 0.453125 Z M 15.75 -3.546875 C 17.382812 -3.546875 18.914062 -3.925781 20.34375 -4.6875 C 21.769531 -5.445312 22.921875 -6.59375 23.796875 -8.125 C 24.679688 -9.65625 25.125 -11.519531 25.125 -13.71875 C 25.125 -15.90625 24.691406 -17.765625 23.828125 -19.296875 C 22.960938 -20.828125 21.832031 -21.960938 20.4375 -22.703125 C 19.039062 -23.453125 17.53125 -23.828125 15.90625 -23.828125 C 14.238281 -23.828125 12.71875 -23.453125 11.34375 -22.703125 C 9.96875 -21.960938 8.863281 -20.828125 8.03125 -19.296875 C 7.195312 -17.765625 6.78125 -15.90625 6.78125 -13.71875 C 6.78125 -11.488281 7.1875 -9.609375 8 -8.078125 C 8.8125 -6.546875 9.898438 -5.40625 11.265625 -4.65625 C 12.628906 -3.914062 14.125 -3.546875 15.75 -3.546875 Z M 15.75 -3.546875 "/></g></g></g><g fill="#ffffff" fill-opacity="1"><g transform="translate(255.508239, 52.288935)"><g><path d="M 9.375 -23.578125 L 9.375 -7.484375 C 9.375 -6.148438 9.65625 -5.207031 10.21875 -4.65625 C 10.78125 -4.113281 11.757812 -3.84375 13.15625 -3.84375 L 16.5 -3.84375 L 16.5 0 L 12.421875 0 C 9.890625 0 7.992188 -0.578125 6.734375 -1.734375 C 5.472656 -2.898438 4.84375 -4.816406 4.84375 -7.484375 L 4.84375 -23.578125 L 1.296875 -23.578125 L 1.296875 -27.328125 L 4.84375 -27.328125 L 4.84375 -34.203125 L 9.375 -34.203125 L 9.375 -27.328125 L 16.5 -27.328125 L 16.5 -23.578125 Z M 9.375 -23.578125 "/></g></g></g><g fill="#ffffff" fill-opacity="1"><g transform="translate(274.652048, 52.288935)"><g><path d="M 28.765625 -14.703125 C 28.765625 -13.835938 28.71875 -12.925781 28.625 -11.96875 L 6.78125 -11.96875 C 6.945312 -9.269531 7.867188 -7.164062 9.546875 -5.65625 C 11.222656 -4.144531 13.257812 -3.390625 15.65625 -3.390625 C 17.613281 -3.390625 19.25 -3.84375 20.5625 -4.75 C 21.875 -5.664062 22.796875 -6.890625 23.328125 -8.421875 L 28.21875 -8.421875 C 27.488281 -5.796875 26.023438 -3.660156 23.828125 -2.015625 C 21.640625 -0.367188 18.914062 0.453125 15.65625 0.453125 C 13.0625 0.453125 10.742188 -0.128906 8.703125 -1.296875 C 6.660156 -2.460938 5.054688 -4.113281 3.890625 -6.25 C 2.722656 -8.394531 2.140625 -10.882812 2.140625 -13.71875 C 2.140625 -16.539062 2.703125 -19.015625 3.828125 -21.140625 C 4.960938 -23.265625 6.550781 -24.898438 8.59375 -26.046875 C 10.644531 -27.191406 13 -27.765625 15.65625 -27.765625 C 18.25 -27.765625 20.539062 -27.195312 22.53125 -26.0625 C 24.53125 -24.9375 26.066406 -23.382812 27.140625 -21.40625 C 28.222656 -19.4375 28.765625 -17.203125 28.765625 -14.703125 Z M 24.078125 -15.65625 C 24.078125 -17.382812 23.691406 -18.867188 22.921875 -20.109375 C 22.160156 -21.359375 21.125 -22.304688 19.8125 -22.953125 C 18.5 -23.609375 17.046875 -23.9375 15.453125 -23.9375 C 13.160156 -23.9375 11.207031 -23.203125 9.59375 -21.734375 C 7.988281 -20.273438 7.066406 -18.25 6.828125 -15.65625 Z M 24.078125 -15.65625 "/></g></g></g><g fill="#ffffff" fill-opacity="1"><g transform="translate(306.558364, 52.288935)"><g><path d="M 2.140625 -13.71875 C 2.140625 -16.539062 2.703125 -19.003906 3.828125 -21.109375 C 4.960938 -23.222656 6.535156 -24.859375 8.546875 -26.015625 C 10.554688 -27.179688 12.859375 -27.765625 15.453125 -27.765625 C 18.804688 -27.765625 21.570312 -26.953125 23.75 -25.328125 C 25.9375 -23.703125 27.378906 -21.441406 28.078125 -18.546875 L 23.1875 -18.546875 C 22.71875 -20.210938 21.8125 -21.523438 20.46875 -22.484375 C 19.125 -23.453125 17.453125 -23.9375 15.453125 -23.9375 C 12.859375 -23.9375 10.765625 -23.046875 9.171875 -21.265625 C 7.578125 -19.484375 6.78125 -16.96875 6.78125 -13.71875 C 6.78125 -10.425781 7.578125 -7.878906 9.171875 -6.078125 C 10.765625 -4.285156 12.859375 -3.390625 15.453125 -3.390625 C 17.453125 -3.390625 19.113281 -3.851562 20.4375 -4.78125 C 21.769531 -5.71875 22.6875 -7.050781 23.1875 -8.78125 L 28.078125 -8.78125 C 27.335938 -5.988281 25.867188 -3.75 23.671875 -2.0625 C 21.484375 -0.382812 18.742188 0.453125 15.453125 0.453125 C 12.859375 0.453125 10.554688 -0.128906 8.546875 -1.296875 C 6.535156 -2.460938 4.960938 -4.109375 3.828125 -6.234375 C 2.703125 -8.359375 2.140625 -10.851562 2.140625 -13.71875 Z M 2.140625 -13.71875 "/></g></g></g><g fill="#ffffff" fill-opacity="1"><g transform="translate(337.816554, 52.288935)"><g><path d="M 9.375 -23.578125 L 9.375 -7.484375 C 9.375 -6.148438 9.65625 -5.207031 10.21875 -4.65625 C 10.78125 -4.113281 11.757812 -3.84375 13.15625 -3.84375 L 16.5 -3.84375 L 16.5 0 L 12.421875 0 C 9.890625 0 7.992188 -0.578125 6.734375 -1.734375 C 5.472656 -2.898438 4.84375 -4.816406 4.84375 -7.484375 L 4.84375 -23.578125 L 1.296875 -23.578125 L 1.296875 -27.328125 L 4.84375 -27.328125 L 4.84375 -34.203125 L 9.375 -34.203125 L 9.375 -27.328125 L 16.5 -27.328125 L 16.5 -23.578125 Z M 9.375 -23.578125 "/></g></g></g><g fill="#ffffff" fill-opacity="1"><g transform="translate(356.960393, 52.288935)"><g><path d="M 15.75 0.453125 C 13.195312 0.453125 10.878906 -0.128906 8.796875 -1.296875 C 6.722656 -2.460938 5.09375 -4.113281 3.90625 -6.25 C 2.726562 -8.394531 2.140625 -10.882812 2.140625 -13.71875 C 2.140625 -16.507812 2.742188 -18.972656 3.953125 -21.109375 C 5.171875 -23.253906 6.828125 -24.898438 8.921875 -26.046875 C 11.015625 -27.191406 13.359375 -27.765625 15.953125 -27.765625 C 18.546875 -27.765625 20.890625 -27.191406 22.984375 -26.046875 C 25.078125 -24.898438 26.726562 -23.265625 27.9375 -21.140625 C 29.15625 -19.015625 29.765625 -16.539062 29.765625 -13.71875 C 29.765625 -10.882812 29.140625 -8.394531 27.890625 -6.25 C 26.648438 -4.113281 24.960938 -2.460938 22.828125 -1.296875 C 20.703125 -0.128906 18.34375 0.453125 15.75 0.453125 Z M 15.75 -3.546875 C 17.382812 -3.546875 18.914062 -3.925781 20.34375 -4.6875 C 21.769531 -5.445312 22.921875 -6.59375 23.796875 -8.125 C 24.679688 -9.65625 25.125 -11.519531 25.125 -13.71875 C 25.125 -15.90625 24.691406 -17.765625 23.828125 -19.296875 C 22.960938 -20.828125 21.832031 -21.960938 20.4375 -22.703125 C 19.039062 -23.453125 17.53125 -23.828125 15.90625 -23.828125 C 14.238281 -23.828125 12.71875 -23.453125 11.34375 -22.703125 C 9.96875 -21.960938 8.863281 -20.828125 8.03125 -19.296875 C 7.195312 -17.765625 6.78125 -15.90625 6.78125 -13.71875 C 6.78125 -11.488281 7.1875 -9.609375 8 -8.078125 C 8.8125 -6.546875 9.898438 -5.40625 11.265625 -4.65625 C 12.628906 -3.914062 14.125 -3.546875 15.75 -3.546875 Z M 15.75 -3.546875 "/></g></g></g><g fill="#ffffff" fill-opacity="1"><g transform="translate(389.863758, 52.288935)"><g><path d="M 8.375 -22.890625 C 9.175781 -24.453125 10.316406 -25.664062 11.796875 -26.53125 C 13.273438 -27.394531 15.078125 -27.828125 17.203125 -27.828125 L 17.203125 -23.140625 L 16 -23.140625 C 10.914062 -23.140625 8.375 -20.378906 8.375 -14.859375 L 8.375 0 L 3.84375 0 L 3.84375 -27.328125 L 8.375 -27.328125 Z M 8.375 -22.890625 "/></g></g></g><g fill="#ffffff" fill-opacity="1"><g transform="translate(409.456264, 52.288935)"><g/></g></g><g fill="#ffffff" fill-opacity="1"><g transform="translate(423.764294, 52.288935)"><g><path d="M 15.75 0.453125 C 13.195312 0.453125 10.878906 -0.128906 8.796875 -1.296875 C 6.722656 -2.460938 5.09375 -4.113281 3.90625 -6.25 C 2.726562 -8.394531 2.140625 -10.882812 2.140625 -13.71875 C 2.140625 -16.507812 2.742188 -18.972656 3.953125 -21.109375 C 5.171875 -23.253906 6.828125 -24.898438 8.921875 -26.046875 C 11.015625 -27.191406 13.359375 -27.765625 15.953125 -27.765625 C 18.546875 -27.765625 20.890625 -27.191406 22.984375 -26.046875 C 25.078125 -24.898438 26.726562 -23.265625 27.9375 -21.140625 C 29.15625 -19.015625 29.765625 -16.539062 29.765625 -13.71875 C 29.765625 -10.882812 29.140625 -8.394531 27.890625 -6.25 C 26.648438 -4.113281 24.960938 -2.460938 22.828125 -1.296875 C 20.703125 -0.128906 18.34375 0.453125 15.75 0.453125 Z M 15.75 -3.546875 C 17.382812 -3.546875 18.914062 -3.925781 20.34375 -4.6875 C 21.769531 -5.445312 22.921875 -6.59375 23.796875 -8.125 C 24.679688 -9.65625 25.125 -11.519531 25.125 -13.71875 C 25.125 -15.90625 24.691406 -17.765625 23.828125 -19.296875 C 22.960938 -20.828125 21.832031 -21.960938 20.4375 -22.703125 C 19.039062 -23.453125 17.53125 -23.828125 15.90625 -23.828125 C 14.238281 -23.828125 12.71875 -23.453125 11.34375 -22.703125 C 9.96875 -21.960938 8.863281 -20.828125 8.03125 -19.296875 C 7.195312 -17.765625 6.78125 -15.90625 6.78125 -13.71875 C 6.78125 -11.488281 7.1875 -9.609375 8 -8.078125 C 8.8125 -6.546875 9.898438 -5.40625 11.265625 -4.65625 C 12.628906 -3.914062 14.125 -3.546875 15.75 -3.546875 Z M 15.75 -3.546875 "/></g></g></g><g fill="#ffffff" fill-opacity="1"><g transform="translate(456.667659, 52.288935)"><g><path d="M 14.953125 -23.578125 L 9.21875 -23.578125 L 9.21875 0 L 4.6875 0 L 4.6875 -23.578125 L 1.140625 -23.578125 L 1.140625 -27.328125 L 4.6875 -27.328125 L 4.6875 -29.265625 C 4.6875 -32.328125 5.472656 -34.5625 7.046875 -35.96875 C 8.628906 -37.382812 11.164062 -38.09375 14.65625 -38.09375 L 14.65625 -34.296875 C 12.664062 -34.296875 11.257812 -33.90625 10.4375 -33.125 C 9.625 -32.34375 9.21875 -31.054688 9.21875 -29.265625 L 9.21875 -27.328125 L 14.953125 -27.328125 Z M 14.953125 -23.578125 "/></g></g></g><g fill="#ffffff" fill-opacity="1"><g transform="translate(474.06661, 52.288935)"><g/></g></g><g fill="#ffffff" fill-opacity="1"><g transform="translate(488.37464, 52.288935)"><g><path d="M 27.375 -27.328125 L 10.921875 12.859375 L 6.234375 12.859375 L 11.625 -0.296875 L 0.59375 -27.328125 L 5.640625 -27.328125 L 14.203125 -5.1875 L 22.6875 -27.328125 Z M 27.375 -27.328125 "/></g></g></g><g fill="#ffffff" fill-opacity="1"><g transform="translate(517.439275, 52.288935)"><g><path d="M 15.75 0.453125 C 13.195312 0.453125 10.878906 -0.128906 8.796875 -1.296875 C 6.722656 -2.460938 5.09375 -4.113281 3.90625 -6.25 C 2.726562 -8.394531 2.140625 -10.882812 2.140625 -13.71875 C 2.140625 -16.507812 2.742188 -18.972656 3.953125 -21.109375 C 5.171875 -23.253906 6.828125 -24.898438 8.921875 -26.046875 C 11.015625 -27.191406 13.359375 -27.765625 15.953125 -27.765625 C 18.546875 -27.765625 20.890625 -27.191406 22.984375 -26.046875 C 25.078125 -24.898438 26.726562 -23.265625 27.9375 -21.140625 C 29.15625 -19.015625 29.765625 -16.539062 29.765625 -13.71875 C 29.765625 -10.882812 29.140625 -8.394531 27.890625 -6.25 C 26.648438 -4.113281 24.960938 -2.460938 22.828125 -1.296875 C 20.703125 -0.128906 18.34375 0.453125 15.75 0.453125 Z M 15.75 -3.546875 C 17.382812 -3.546875 18.914062 -3.925781 20.34375 -4.6875 C 21.769531 -5.445312 22.921875 -6.59375 23.796875 -8.125 C 24.679688 -9.65625 25.125 -11.519531 25.125 -13.71875 C 25.125 -15.90625 24.691406 -17.765625 23.828125 -19.296875 C 22.960938 -20.828125 21.832031 -21.960938 20.4375 -22.703125 C 19.039062 -23.453125 17.53125 -23.828125 15.90625 -23.828125 C 14.238281 -23.828125 12.71875 -23.453125 11.34375 -22.703125 C 9.96875 -21.960938 8.863281 -20.828125 8.03125 -19.296875 C 7.195312 -17.765625 6.78125 -15.90625 6.78125 -13.71875 C 6.78125 -11.488281 7.1875 -9.609375 8 -8.078125 C 8.8125 -6.546875 9.898438 -5.40625 11.265625 -4.65625 C 12.628906 -3.914062 14.125 -3.546875 15.75 -3.546875 Z M 15.75 -3.546875 "/></g></g></g><g fill="#ffffff" fill-opacity="1"><g transform="translate(550.34264, 52.288935)"><g><path d="M 28.078125 -27.328125 L 28.078125 0 L 23.53125 0 L 23.53125 -4.03125 C 22.664062 -2.632812 21.457031 -1.546875 19.90625 -0.765625 C 18.363281 0.015625 16.664062 0.40625 14.8125 0.40625 C 12.6875 0.40625 10.773438 -0.0351562 9.078125 -0.921875 C 7.378906 -1.804688 6.039062 -3.128906 5.0625 -4.890625 C 4.082031 -6.648438 3.59375 -8.789062 3.59375 -11.3125 L 3.59375 -27.328125 L 8.078125 -27.328125 L 8.078125 -11.921875 C 8.078125 -9.222656 8.757812 -7.148438 10.125 -5.703125 C 11.488281 -4.265625 13.347656 -3.546875 15.703125 -3.546875 C 18.128906 -3.546875 20.039062 -4.289062 21.4375 -5.78125 C 22.832031 -7.28125 23.53125 -9.457031 23.53125 -12.3125 L 23.53125 -27.328125 Z M 28.078125 -27.328125 "/></g></g></g><g fill="#ffffff" fill-opacity="1"><g transform="translate(583.246005, 52.288935)"><g><path d="M 8.375 -22.890625 C 9.175781 -24.453125 10.316406 -25.664062 11.796875 -26.53125 C 13.273438 -27.394531 15.078125 -27.828125 17.203125 -27.828125 L 17.203125 -23.140625 L 16 -23.140625 C 10.914062 -23.140625 8.375 -20.378906 8.375 -14.859375 L 8.375 0 L 3.84375 0 L 3.84375 -27.328125 L 8.375 -27.328125 Z M 8.375 -22.890625 "/></g></g></g><g fill="#ffffff" fill-opacity="1"><g transform="translate(602.838511, 52.288935)"><g/></g></g><g fill="#ffffff" fill-opacity="1"><g transform="translate(617.146572, 52.288935)"><g><path d="M 14.953125 -23.578125 L 9.21875 -23.578125 L 9.21875 0 L 4.6875 0 L 4.6875 -23.578125 L 1.140625 -23.578125 L 1.140625 -27.328125 L 4.6875 -27.328125 L 4.6875 -29.265625 C 4.6875 -32.328125 5.472656 -34.5625 7.046875 -35.96875 C 8.628906 -37.382812 11.164062 -38.09375 14.65625 -38.09375 L 14.65625 -34.296875 C 12.664062 -34.296875 11.257812 -33.90625 10.4375 -33.125 C 9.625 -32.34375 9.21875 -31.054688 9.21875 -29.265625 L 9.21875 -27.328125 L 14.953125 -27.328125 Z M 14.953125 -23.578125 "/></g></g></g><g fill="#ffffff" fill-opacity="1"><g transform="translate(634.545492, 52.288935)"><g><path d="M 2.140625 -13.765625 C 2.140625 -16.554688 2.703125 -19.003906 3.828125 -21.109375 C 4.960938 -23.222656 6.519531 -24.859375 8.5 -26.015625 C 10.476562 -27.179688 12.679688 -27.765625 15.109375 -27.765625 C 17.503906 -27.765625 19.582031 -27.25 21.34375 -26.21875 C 23.101562 -25.195312 24.414062 -23.90625 25.28125 -22.34375 L 25.28125 -27.328125 L 29.859375 -27.328125 L 29.859375 0 L 25.28125 0 L 25.28125 -5.078125 C 24.382812 -3.484375 23.046875 -2.160156 21.265625 -1.109375 C 19.484375 -0.0664062 17.414062 0.453125 15.0625 0.453125 C 12.632812 0.453125 10.4375 -0.144531 8.46875 -1.34375 C 6.507812 -2.539062 4.960938 -4.21875 3.828125 -6.375 C 2.703125 -8.539062 2.140625 -11.003906 2.140625 -13.765625 Z M 25.28125 -13.71875 C 25.28125 -15.769531 24.863281 -17.5625 24.03125 -19.09375 C 23.195312 -20.625 22.070312 -21.796875 20.65625 -22.609375 C 19.25 -23.421875 17.695312 -23.828125 16 -23.828125 C 14.3125 -23.828125 12.769531 -23.425781 11.375 -22.625 C 9.976562 -21.832031 8.863281 -20.671875 8.03125 -19.140625 C 7.195312 -17.617188 6.78125 -15.828125 6.78125 -13.765625 C 6.78125 -11.671875 7.195312 -9.847656 8.03125 -8.296875 C 8.863281 -6.753906 9.976562 -5.578125 11.375 -4.765625 C 12.769531 -3.953125 14.3125 -3.546875 16 -3.546875 C 17.695312 -3.546875 19.25 -3.953125 20.65625 -4.765625 C 22.070312 -5.578125 23.195312 -6.753906 24.03125 -8.296875 C 24.863281 -9.847656 25.28125 -11.65625 25.28125 -13.71875 Z M 25.28125 -13.71875 "/></g></g></g><g fill="#ffffff" fill-opacity="1"><g transform="translate(669.243586, 52.288935)"><g><path d="M 36.703125 -27.828125 C 38.828125 -27.828125 40.71875 -27.382812 42.375 -26.5 C 44.039062 -25.613281 45.351562 -24.289062 46.3125 -22.53125 C 47.28125 -20.769531 47.765625 -18.628906 47.765625 -16.109375 L 47.765625 0 L 43.28125 0 L 43.28125 -15.453125 C 43.28125 -18.179688 42.601562 -20.265625 41.25 -21.703125 C 39.90625 -23.148438 38.085938 -23.875 35.796875 -23.875 C 33.441406 -23.875 31.566406 -23.117188 30.171875 -21.609375 C 28.773438 -20.097656 28.078125 -17.914062 28.078125 -15.0625 L 28.078125 0 L 23.578125 0 L 23.578125 -15.453125 C 23.578125 -18.179688 22.90625 -20.265625 21.5625 -21.703125 C 20.21875 -23.148438 18.398438 -23.875 16.109375 -23.875 C 13.742188 -23.875 11.863281 -23.117188 10.46875 -21.609375 C 9.070312 -20.097656 8.375 -17.914062 8.375 -15.0625 L 8.375 0 L 3.84375 0 L 3.84375 -27.328125 L 8.375 -27.328125 L 8.375 -23.390625 C 9.269531 -24.816406 10.472656 -25.910156 11.984375 -26.671875 C 13.503906 -27.441406 15.175781 -27.828125 17 -27.828125 C 19.289062 -27.828125 21.316406 -27.3125 23.078125 -26.28125 C 24.847656 -25.25 26.164062 -23.734375 27.03125 -21.734375 C 27.789062 -23.660156 29.050781 -25.15625 30.8125 -26.21875 C 32.570312 -27.289062 34.535156 -27.828125 36.703125 -27.828125 Z M 36.703125 -27.828125 "/></g></g></g><g fill="#ffffff" fill-opacity="1"><g transform="translate(721.589809, 52.288935)"><g><path d="M 6.1875 -31.765625 C 5.320312 -31.765625 4.585938 -32.0625 3.984375 -32.65625 C 3.390625 -33.257812 3.09375 -33.992188 3.09375 -34.859375 C 3.09375 -35.710938 3.390625 -36.4375 3.984375 -37.03125 C 4.585938 -37.632812 5.320312 -37.9375 6.1875 -37.9375 C 7.007812 -37.9375 7.710938 -37.632812 8.296875 -37.03125 C 8.878906 -36.4375 9.171875 -35.710938 9.171875 -34.859375 C 9.171875 -33.992188 8.878906 -33.257812 8.296875 -32.65625 C 7.710938 -32.0625 7.007812 -31.765625 6.1875 -31.765625 Z M 8.375 -27.328125 L 8.375 0 L 3.84375 0 L 3.84375 -27.328125 Z M 8.375 -27.328125 "/></g></g></g><g fill="#ffffff" fill-opacity="1"><g transform="translate(734.850888, 52.288935)"><g><path d="M 8.375 -36.890625 L 8.375 0 L 3.84375 0 L 3.84375 -36.890625 Z M 8.375 -36.890625 "/></g></g></g><g fill="#ffffff" fill-opacity="1"><g transform="translate(748.112028, 52.288935)"><g><path d="M 27.375 -27.328125 L 10.921875 12.859375 L 6.234375 12.859375 L 11.625 -0.296875 L 0.59375 -27.328125 L 5.640625 -27.328125 L 14.203125 -5.1875 L 22.6875 -27.328125 Z M 27.375 -27.328125 "/></g></g></g></g></g></svg>