<svg xmlns="http://www.w3.org/2000/svg" xmlns:xlink="http://www.w3.org/1999/xlink" width="2000" zoomAndPan="magnify" viewBox="0 0 1500 1499.999933" height="2000" preserveAspectRatio="xMidYMid meet" version="1.0"><defs><g/><clipPath id="1872353901"><path d="M 160.457031 615.109375 L 430.238281 615.109375 L 430.238281 884.890625 L 160.457031 884.890625 Z M 160.457031 615.109375 " clip-rule="nonzero"/></clipPath><clipPath id="f9e60cc71a"><path d="M 295.347656 615.109375 C 220.851562 615.109375 160.457031 675.503906 160.457031 750 C 160.457031 824.5 220.851562 884.890625 295.347656 884.890625 C 369.847656 884.890625 430.238281 824.5 430.238281 750 C 430.238281 675.503906 369.847656 615.109375 295.347656 615.109375 Z M 295.347656 615.109375 " clip-rule="nonzero"/></clipPath><clipPath id="f74c4a52ee"><path d="M 0.457031 0.109375 L 270.238281 0.109375 L 270.238281 269.890625 L 0.457031 269.890625 Z M 0.457031 0.109375 " clip-rule="nonzero"/></clipPath><clipPath id="580484528d"><path d="M 135.347656 0.109375 C 60.851562 0.109375 0.457031 60.503906 0.457031 135 C 0.457031 209.5 60.851562 269.890625 135.347656 269.890625 C 209.847656 269.890625 270.238281 209.5 270.238281 135 C 270.238281 60.503906 209.847656 0.109375 135.347656 0.109375 Z M 135.347656 0.109375 " clip-rule="nonzero"/></clipPath><clipPath id="38f06964b7"><rect x="0" width="271" y="0" height="270"/></clipPath><clipPath id="af941787eb"><path d="M 150 604.652344 L 441 604.652344 L 441 895.652344 L 150 895.652344 Z M 150 604.652344 " clip-rule="nonzero"/></clipPath><clipPath id="e4cd2061de"><path d="M 211 684.027344 L 380.472656 684.027344 L 380.472656 816 L 211 816 Z M 211 684.027344 " clip-rule="nonzero"/></clipPath><clipPath id="6f1c539171"><rect x="0" width="732" y="0" height="203"/></clipPath><clipPath id="510db403da"><rect x="0" width="791" y="0" height="108"/></clipPath><clipPath id="fb64c52d98"><path d="M 1179.542969 628.285156 L 1225.292969 628.285156 L 1225.292969 674 L 1179.542969 674 Z M 1179.542969 628.285156 " clip-rule="nonzero"/></clipPath><clipPath id="05ce7e9a4e"><rect x="0" width="539" y="0" height="50"/></clipPath></defs><rect x="-150" width="1800" fill="#ffffff" y="-149.999993" height="1799.99992" fill-opacity="1"/><rect x="-150" width="1800" fill="#004aad" y="-149.999993" height="1799.99992" fill-opacity="1"/><g clip-path="url(#1872353901)"><g clip-path="url(#f9e60cc71a)"><g transform="matrix(1, 0, 0, 1, 160, 615)"><g clip-path="url(#38f06964b7)"><g clip-path="url(#f74c4a52ee)"><g clip-path="url(#580484528d)"><path fill="#ffffff" d="M 0.457031 0.109375 L 270.238281 0.109375 L 270.238281 269.890625 L 0.457031 269.890625 Z M 0.457031 0.109375 " fill-opacity="1" fill-rule="nonzero"/></g></g></g></g></g></g><g clip-path="url(#af941787eb)"><path fill="#ffffff" d="M 295.347656 604.652344 C 215.152344 604.652344 150 669.804688 150 750 C 150 830.191406 215.152344 895.347656 295.347656 895.347656 C 375.542969 895.347656 440.695312 830.191406 440.695312 750 C 440.695312 669.804688 375.542969 604.652344 295.347656 604.652344 Z M 295.347656 610.96875 C 372.210938 610.96875 434.375 673.136719 434.375 750 C 434.375 826.863281 372.210938 889.027344 295.347656 889.027344 C 218.484375 889.027344 156.320312 826.863281 156.320312 750 C 156.320312 673.136719 218.484375 610.96875 295.347656 610.96875 Z M 295.347656 610.96875 " fill-opacity="1" fill-rule="nonzero"/></g><g clip-path="url(#e4cd2061de)"><path fill="#004aad" d="M 323.929688 815.710938 C 312.800781 815.710938 303.183594 813.753906 295.082031 809.746094 C 296.773438 809.746094 299.800781 809.746094 299.800781 806.628906 C 299.800781 804.9375 298.375 803.511719 296.683594 803.511719 L 274.511719 803.511719 C 270.417969 803.511719 270.417969 797.28125 274.511719 797.28125 L 303.007812 797.28125 C 307.101562 797.28125 307.101562 791.046875 303.007812 791.046875 C 290.363281 791.046875 277.808594 791.046875 265.164062 791.046875 C 261.066406 791.046875 261.066406 784.8125 265.164062 784.8125 L 289.382812 784.8125 C 293.480469 784.8125 293.480469 778.582031 289.382812 778.582031 C 279.410156 778.582031 269.4375 778.582031 259.554688 778.582031 C 255.457031 778.582031 255.457031 772.347656 259.554688 772.347656 L 274.066406 772.347656 C 278.164062 772.347656 278.164062 766.113281 274.066406 766.113281 L 267.566406 766.113281 C 263.738281 766.113281 262.847656 759.882812 268.191406 759.882812 C 271.484375 759.882812 274.867188 759.882812 278.164062 759.882812 C 282.257812 759.882812 282.257812 753.648438 278.164062 753.648438 L 263.382812 753.648438 C 259.285156 753.648438 259.285156 747.417969 263.382812 747.417969 L 273.890625 747.417969 C 277.984375 747.417969 277.984375 741.183594 273.890625 741.183594 L 260.621094 741.183594 C 256.527344 741.183594 256.527344 734.949219 260.621094 734.949219 L 286.535156 734.949219 C 290.628906 734.949219 290.628906 728.71875 286.535156 728.71875 C 277.183594 728.71875 267.835938 728.71875 258.484375 728.71875 C 254.390625 728.71875 254.390625 722.484375 258.484375 722.484375 L 268.902344 722.484375 C 273 722.484375 272.910156 716.605469 269.4375 716.25 L 258.039062 716.25 C 253.945312 716.25 253.945312 710.019531 258.039062 710.019531 L 279.5 709.75 C 284.574219 710.375 284.484375 703.875 280.925781 703.519531 L 268.367188 703.519531 C 264.273438 703.519531 264.273438 697.285156 268.367188 697.285156 C 273.175781 697.285156 265.429688 697.285156 270.238281 697.285156 C 274.335938 697.285156 274.246094 691.40625 270.773438 691.050781 C 267.746094 690.785156 261.957031 692.296875 261.957031 687.933594 C 261.957031 684.285156 266.054688 684.820312 268.191406 684.820312 C 277.628906 684.820312 287.066406 684.820312 296.507812 684.820312 L 296.507812 757.746094 C 296.507812 776.976562 305.234375 789.621094 324.289062 789.621094 C 343.164062 789.621094 352.070312 777.78125 352.070312 758.722656 L 352.070312 684.820312 L 380.472656 684.820312 L 380.472656 757.566406 C 380.472656 794.339844 360.796875 815.710938 323.929688 815.710938 Z M 214.410156 722.21875 L 219.394531 722.21875 C 223.492188 722.21875 223.492188 728.449219 219.394531 728.449219 L 214.410156 728.449219 C 210.222656 728.449219 210.222656 722.21875 214.410156 722.21875 Z M 261.957031 797.28125 C 264.363281 797.28125 268.636719 796.65625 268.636719 800.398438 C 268.636719 804.136719 264.363281 803.511719 261.957031 803.511719 C 257.773438 803.511719 257.773438 797.28125 261.957031 797.28125 Z M 232.21875 759.703125 L 257.773438 759.703125 C 261.867188 759.703125 261.867188 765.9375 257.773438 765.9375 L 232.21875 765.9375 C 228.03125 766.027344 228.03125 759.703125 232.21875 759.703125 Z M 252.699219 684.820312 L 257.328125 684.820312 C 261.421875 684.820312 261.421875 691.050781 257.328125 691.050781 L 252.699219 691.050781 C 248.511719 691.140625 248.511719 684.820312 252.699219 684.820312 Z M 235.246094 709.660156 L 250.828125 709.660156 C 254.921875 709.660156 254.921875 715.894531 250.828125 715.894531 L 235.246094 715.894531 C 231.058594 715.984375 231.058594 709.660156 235.246094 709.660156 Z M 242.992188 734.683594 L 251.894531 734.683594 C 255.992188 734.683594 255.992188 740.914062 251.894531 740.914062 L 242.992188 740.914062 C 238.894531 740.914062 238.894531 734.683594 242.992188 734.683594 Z M 229.101562 722.21875 L 247.265625 722.21875 C 251.363281 722.21875 251.363281 728.449219 247.265625 728.449219 L 229.101562 728.449219 C 225.003906 728.449219 225.003906 722.21875 229.101562 722.21875 Z M 247.355469 772.257812 C 250.027344 772.257812 254.566406 771.546875 254.566406 775.375 C 254.566406 779.203125 250.113281 778.492188 247.355469 778.492188 C 243.167969 778.492188 243.167969 772.257812 247.355469 772.257812 Z M 247.355469 772.257812 " fill-opacity="1" fill-rule="evenodd"/></g><g transform="matrix(1, 0, 0, 1, 491, 648)"><g clip-path="url(#6f1c539171)"><g fill="#ffffff" fill-opacity="1"><g transform="translate(1.049723, 152.097484)"><g><path d="M 78.390625 1.671875 C 52.535156 1.671875 33.757812 -3.304688 22.0625 -13.265625 C 10.375 -23.222656 4.53125 -38.441406 4.53125 -58.921875 L 4.53125 -117.5 L 43.984375 -117.5 L 43.984375 -58.921875 C 43.984375 -55.453125 44.398438 -52.09375 45.234375 -48.84375 C 46.078125 -45.601562 47.671875 -42.664062 50.015625 -40.03125 C 52.367188 -37.40625 55.8125 -35.335938 60.34375 -33.828125 C 64.875 -32.316406 70.890625 -31.5625 78.390625 -31.5625 C 85.890625 -31.5625 91.929688 -32.34375 96.515625 -33.90625 C 101.109375 -35.46875 104.578125 -37.5625 106.921875 -40.1875 C 109.273438 -42.820312 110.867188 -45.765625 111.703125 -49.015625 C 112.546875 -52.265625 112.96875 -55.566406 112.96875 -58.921875 L 112.96875 -117.5 L 152.25 -117.5 L 152.25 -58.921875 C 152.25 -38.554688 146.375 -23.363281 134.625 -13.34375 C 122.875 -3.332031 104.128906 1.671875 78.390625 1.671875 Z M 78.390625 1.671875 "/></g></g></g><g fill="#ffffff" fill-opacity="1"><g transform="translate(161.350144, 152.097484)"><g><path d="M 4.53125 0 L 4.53125 -117.5 L 56.5625 -117.5 L 116.65625 -42.96875 L 116.65625 -117.5 L 155.9375 -117.5 L 155.9375 0 L 104.078125 0 L 43.984375 -74.53125 L 43.984375 0 Z M 4.53125 0 "/></g></g></g><g fill="#ffffff" fill-opacity="1"><g transform="translate(325.343347, 152.097484)"><g><path d="M 4.53125 0 L 4.53125 -117.5 L 43.984375 -117.5 L 43.984375 0 Z M 4.53125 0 "/></g></g></g><g fill="#ffffff" fill-opacity="1"><g transform="translate(377.210253, 152.097484)"><g><path d="M 2.859375 0 L 61.765625 -58.75 L 2.859375 -117.5 L 55.0625 -117.5 L 89.46875 -81.75 L 123.875 -117.5 L 176.078125 -117.5 L 117.171875 -58.75 L 176.078125 0 L 123.875 0 L 89.46875 -35.75 L 55.0625 0 Z M 2.859375 0 "/></g></g></g><g fill="#ffffff" fill-opacity="1"><g transform="translate(559.667354, 152.097484)"><g><path d="M 2.859375 0 L 55.390625 -117.5 L 112.640625 -117.5 L 165 0 L 121.703125 0 L 112.125 -22.328125 L 55.890625 -22.328125 L 46.15625 0 Z M 66.96875 -50.1875 L 100.890625 -50.1875 L 83.921875 -89.46875 Z M 66.96875 -50.1875 "/></g></g></g></g></g><g transform="matrix(1, 0, 0, 1, 500, 796)"><g clip-path="url(#510db403da)"><g fill="#ffffff" fill-opacity="1"><g transform="translate(1.234827, 80.206626)"><g><path d="M 74.5 -52.828125 L 58.84375 0 L 49.03125 0 L 37.9375 -39.984375 L 26.15625 0 L 16.421875 0.078125 L 1.4375 -52.828125 L 10.640625 -52.828125 L 21.59375 -9.8125 L 33.453125 -52.828125 L 43.171875 -52.828125 L 54.203125 -10.03125 L 65.21875 -52.828125 Z M 74.5 -52.828125 "/></g></g></g><g fill="#ffffff" fill-opacity="1"><g transform="translate(78.691218, 80.206626)"><g><path d="M 2.8125 -21.125 C 2.8125 -25.332031 3.6875 -29.054688 5.4375 -32.296875 C 7.1875 -35.546875 9.566406 -38.066406 12.578125 -39.859375 C 15.597656 -41.660156 18.929688 -42.5625 22.578125 -42.5625 C 25.867188 -42.5625 28.742188 -41.914062 31.203125 -40.625 C 33.660156 -39.332031 35.625 -37.722656 37.09375 -35.796875 L 37.09375 -41.890625 L 45.84375 -41.890625 L 45.84375 0 L 37.09375 0 L 37.09375 -6.234375 C 35.625 -4.253906 33.625 -2.601562 31.09375 -1.28125 C 28.5625 0.03125 25.671875 0.6875 22.421875 0.6875 C 18.828125 0.6875 15.535156 -0.234375 12.546875 -2.078125 C 9.554688 -3.929688 7.1875 -6.519531 5.4375 -9.84375 C 3.6875 -13.164062 2.8125 -16.925781 2.8125 -21.125 Z M 37.09375 -20.984375 C 37.09375 -23.867188 36.492188 -26.375 35.296875 -28.5 C 34.109375 -30.632812 32.550781 -32.257812 30.625 -33.375 C 28.707031 -34.488281 26.632812 -35.046875 24.40625 -35.046875 C 22.175781 -35.046875 20.097656 -34.5 18.171875 -33.40625 C 16.242188 -32.320312 14.679688 -30.726562 13.484375 -28.625 C 12.296875 -26.519531 11.703125 -24.019531 11.703125 -21.125 C 11.703125 -18.238281 12.296875 -15.707031 13.484375 -13.53125 C 14.679688 -11.351562 16.253906 -9.691406 18.203125 -8.546875 C 20.148438 -7.410156 22.21875 -6.84375 24.40625 -6.84375 C 26.632812 -6.84375 28.707031 -7.398438 30.625 -8.515625 C 32.550781 -9.628906 34.109375 -11.257812 35.296875 -13.40625 C 36.492188 -15.5625 37.09375 -18.085938 37.09375 -20.984375 Z M 37.09375 -20.984375 "/></g></g></g><g fill="#ffffff" fill-opacity="1"><g transform="translate(131.747766, 80.206626)"><g><path d="M 15.8125 -34.8125 L 15.8125 -11.625 C 15.8125 -10.0625 16.175781 -8.9375 16.90625 -8.25 C 17.644531 -7.5625 18.898438 -7.21875 20.671875 -7.21875 L 26 -7.21875 L 26 0 L 19.15625 0 C 15.25 0 12.253906 -0.910156 10.171875 -2.734375 C 8.097656 -4.554688 7.0625 -7.519531 7.0625 -11.625 L 7.0625 -34.8125 L 2.125 -34.8125 L 2.125 -41.890625 L 7.0625 -41.890625 L 7.0625 -52.296875 L 15.8125 -52.296875 L 15.8125 -41.890625 L 26 -41.890625 L 26 -34.8125 Z M 15.8125 -34.8125 "/></g></g></g><g fill="#ffffff" fill-opacity="1"><g transform="translate(161.544655, 80.206626)"><g><path d="M 44.09375 -21.96875 C 44.09375 -20.394531 43.988281 -18.976562 43.78125 -17.71875 L 11.78125 -17.71875 C 12.03125 -14.363281 13.269531 -11.671875 15.5 -9.640625 C 17.738281 -7.617188 20.476562 -6.609375 23.71875 -6.609375 C 28.375 -6.609375 31.664062 -8.5625 33.59375 -12.46875 L 42.953125 -12.46875 C 41.679688 -8.613281 39.382812 -5.457031 36.0625 -3 C 32.75 -0.539062 28.632812 0.6875 23.71875 0.6875 C 19.71875 0.6875 16.128906 -0.210938 12.953125 -2.015625 C 9.785156 -3.816406 7.300781 -6.347656 5.5 -9.609375 C 3.707031 -12.878906 2.8125 -16.671875 2.8125 -20.984375 C 2.8125 -25.285156 3.6875 -29.070312 5.4375 -32.34375 C 7.1875 -35.613281 9.644531 -38.132812 12.8125 -39.90625 C 15.976562 -41.675781 19.613281 -42.5625 23.71875 -42.5625 C 27.664062 -42.5625 31.1875 -41.703125 34.28125 -39.984375 C 37.375 -38.265625 39.78125 -35.84375 41.5 -32.71875 C 43.226562 -29.601562 44.09375 -26.019531 44.09375 -21.96875 Z M 35.046875 -24.703125 C 34.992188 -27.898438 33.851562 -30.457031 31.625 -32.375 C 29.394531 -34.300781 26.632812 -35.265625 23.34375 -35.265625 C 20.351562 -35.265625 17.789062 -34.3125 15.65625 -32.40625 C 13.53125 -30.507812 12.265625 -27.941406 11.859375 -24.703125 Z M 35.046875 -24.703125 "/></g></g></g><g fill="#ffffff" fill-opacity="1"><g transform="translate(209.964484, 80.206626)"><g><path d="M 14.359375 -35.796875 C 15.628906 -37.929688 17.316406 -39.59375 19.421875 -40.78125 C 21.523438 -41.96875 24.019531 -42.5625 26.90625 -42.5625 L 26.90625 -33.59375 L 24.703125 -33.59375 C 21.304688 -33.59375 18.734375 -32.734375 16.984375 -31.015625 C 15.234375 -29.296875 14.359375 -26.304688 14.359375 -22.046875 L 14.359375 0 L 5.703125 0 L 5.703125 -41.890625 L 14.359375 -41.890625 Z M 14.359375 -35.796875 "/></g></g></g><g fill="#ffffff" fill-opacity="1"><g transform="translate(240.673501, 80.206626)"><g/></g></g><g fill="#ffffff" fill-opacity="1"><g transform="translate(261.95707, 80.206626)"><g><path d="M 39.828125 -52.828125 L 39.828125 -45.765625 L 25.765625 -45.765625 L 25.765625 0 L 17.109375 0 L 17.109375 -45.765625 L 2.96875 -45.765625 L 2.96875 -52.828125 Z M 39.828125 -52.828125 "/></g></g></g><g fill="#ffffff" fill-opacity="1"><g transform="translate(306.348249, 80.206626)"><g><path d="M 44.09375 -21.96875 C 44.09375 -20.394531 43.988281 -18.976562 43.78125 -17.71875 L 11.78125 -17.71875 C 12.03125 -14.363281 13.269531 -11.671875 15.5 -9.640625 C 17.738281 -7.617188 20.476562 -6.609375 23.71875 -6.609375 C 28.375 -6.609375 31.664062 -8.5625 33.59375 -12.46875 L 42.953125 -12.46875 C 41.679688 -8.613281 39.382812 -5.457031 36.0625 -3 C 32.75 -0.539062 28.632812 0.6875 23.71875 0.6875 C 19.71875 0.6875 16.128906 -0.210938 12.953125 -2.015625 C 9.785156 -3.816406 7.300781 -6.347656 5.5 -9.609375 C 3.707031 -12.878906 2.8125 -16.671875 2.8125 -20.984375 C 2.8125 -25.285156 3.6875 -29.070312 5.4375 -32.34375 C 7.1875 -35.613281 9.644531 -38.132812 12.8125 -39.90625 C 15.976562 -41.675781 19.613281 -42.5625 23.71875 -42.5625 C 27.664062 -42.5625 31.1875 -41.703125 34.28125 -39.984375 C 37.375 -38.265625 39.78125 -35.84375 41.5 -32.71875 C 43.226562 -29.601562 44.09375 -26.019531 44.09375 -21.96875 Z M 35.046875 -24.703125 C 34.992188 -27.898438 33.851562 -30.457031 31.625 -32.375 C 29.394531 -34.300781 26.632812 -35.265625 23.34375 -35.265625 C 20.351562 -35.265625 17.789062 -34.3125 15.65625 -32.40625 C 13.53125 -30.507812 12.265625 -27.941406 11.859375 -24.703125 Z M 35.046875 -24.703125 "/></g></g></g><g fill="#ffffff" fill-opacity="1"><g transform="translate(354.768077, 80.206626)"><g><path d="M 2.8125 -20.984375 C 2.8125 -25.285156 3.6875 -29.070312 5.4375 -32.34375 C 7.1875 -35.613281 9.601562 -38.132812 12.6875 -39.90625 C 15.78125 -41.675781 19.332031 -42.5625 23.34375 -42.5625 C 28.40625 -42.5625 32.59375 -41.359375 35.90625 -38.953125 C 39.226562 -36.546875 41.472656 -33.113281 42.640625 -28.65625 L 33.296875 -28.65625 C 32.535156 -30.738281 31.316406 -32.359375 29.640625 -33.515625 C 27.972656 -34.679688 25.875 -35.265625 23.34375 -35.265625 C 19.789062 -35.265625 16.960938 -34.007812 14.859375 -31.5 C 12.753906 -29 11.703125 -25.492188 11.703125 -20.984375 C 11.703125 -16.472656 12.753906 -12.945312 14.859375 -10.40625 C 16.960938 -7.875 19.789062 -6.609375 23.34375 -6.609375 C 28.351562 -6.609375 31.671875 -8.816406 33.296875 -13.234375 L 42.640625 -13.234375 C 41.429688 -8.972656 39.148438 -5.585938 35.796875 -3.078125 C 32.453125 -0.566406 28.300781 0.6875 23.34375 0.6875 C 19.332031 0.6875 15.78125 -0.210938 12.6875 -2.015625 C 9.601562 -3.816406 7.1875 -6.347656 5.4375 -9.609375 C 3.6875 -12.878906 2.8125 -16.671875 2.8125 -20.984375 Z M 2.8125 -20.984375 "/></g></g></g><g fill="#ffffff" fill-opacity="1"><g transform="translate(401.895681, 80.206626)"><g><path d="M 27.359375 -42.5625 C 30.554688 -42.5625 33.410156 -41.878906 35.921875 -40.515625 C 38.429688 -39.148438 40.40625 -37.125 41.84375 -34.4375 C 43.289062 -31.75 44.015625 -28.503906 44.015625 -24.703125 L 44.015625 0 L 35.421875 0 L 35.421875 -23.40625 C 35.421875 -27.15625 34.484375 -30.03125 32.609375 -32.03125 C 30.734375 -34.039062 28.175781 -35.046875 24.9375 -35.046875 C 21.6875 -35.046875 19.109375 -34.039062 17.203125 -32.03125 C 15.304688 -30.03125 14.359375 -27.15625 14.359375 -23.40625 L 14.359375 0 L 5.703125 0 L 5.703125 -56.25 L 14.359375 -56.25 L 14.359375 -37.015625 C 15.835938 -38.796875 17.703125 -40.164062 19.953125 -41.125 C 22.210938 -42.082031 24.679688 -42.5625 27.359375 -42.5625 Z M 27.359375 -42.5625 "/></g></g></g><g fill="#ffffff" fill-opacity="1"><g transform="translate(452.747885, 80.206626)"><g><path d="M 26.828125 -42.5625 C 30.128906 -42.5625 33.082031 -41.878906 35.6875 -40.515625 C 38.300781 -39.148438 40.34375 -37.125 41.8125 -34.4375 C 43.28125 -31.75 44.015625 -28.503906 44.015625 -24.703125 L 44.015625 0 L 35.421875 0 L 35.421875 -23.40625 C 35.421875 -27.15625 34.484375 -30.03125 32.609375 -32.03125 C 30.734375 -34.039062 28.175781 -35.046875 24.9375 -35.046875 C 21.6875 -35.046875 19.109375 -34.039062 17.203125 -32.03125 C 15.304688 -30.03125 14.359375 -27.15625 14.359375 -23.40625 L 14.359375 0 L 5.703125 0 L 5.703125 -41.890625 L 14.359375 -41.890625 L 14.359375 -37.09375 C 15.785156 -38.820312 17.597656 -40.164062 19.796875 -41.125 C 22.003906 -42.082031 24.347656 -42.5625 26.828125 -42.5625 Z M 26.828125 -42.5625 "/></g></g></g><g fill="#ffffff" fill-opacity="1"><g transform="translate(503.600088, 80.206626)"><g><path d="M 23.875 0.6875 C 19.914062 0.6875 16.335938 -0.210938 13.140625 -2.015625 C 9.953125 -3.816406 7.445312 -6.347656 5.625 -9.609375 C 3.800781 -12.878906 2.890625 -16.671875 2.890625 -20.984375 C 2.890625 -25.234375 3.828125 -29.003906 5.703125 -32.296875 C 7.578125 -35.597656 10.132812 -38.132812 13.375 -39.90625 C 16.625 -41.675781 20.25 -42.5625 24.25 -42.5625 C 28.25 -42.5625 31.867188 -41.675781 35.109375 -39.90625 C 38.359375 -38.132812 40.921875 -35.597656 42.796875 -32.296875 C 44.671875 -29.003906 45.609375 -25.234375 45.609375 -20.984375 C 45.609375 -16.722656 44.644531 -12.945312 42.71875 -9.65625 C 40.789062 -6.363281 38.164062 -3.816406 34.84375 -2.015625 C 31.53125 -0.210938 27.875 0.6875 23.875 0.6875 Z M 23.875 -6.84375 C 26.101562 -6.84375 28.191406 -7.375 30.140625 -8.4375 C 32.085938 -9.5 33.671875 -11.09375 34.890625 -13.21875 C 36.109375 -15.351562 36.71875 -17.941406 36.71875 -20.984375 C 36.71875 -24.023438 36.132812 -26.59375 34.96875 -28.6875 C 33.800781 -30.789062 32.253906 -32.375 30.328125 -33.4375 C 28.398438 -34.507812 26.320312 -35.046875 24.09375 -35.046875 C 21.863281 -35.046875 19.796875 -34.507812 17.890625 -33.4375 C 15.992188 -32.375 14.488281 -30.789062 13.375 -28.6875 C 12.257812 -26.59375 11.703125 -24.023438 11.703125 -20.984375 C 11.703125 -16.472656 12.851562 -12.988281 15.15625 -10.53125 C 17.46875 -8.070312 20.375 -6.84375 23.875 -6.84375 Z M 23.875 -6.84375 "/></g></g></g><g fill="#ffffff" fill-opacity="1"><g transform="translate(553.61616, 80.206626)"><g><path d="M 14.359375 -56.25 L 14.359375 0 L 5.703125 0 L 5.703125 -56.25 Z M 14.359375 -56.25 "/></g></g></g><g fill="#ffffff" fill-opacity="1"><g transform="translate(575.203747, 80.206626)"><g><path d="M 23.875 0.6875 C 19.914062 0.6875 16.335938 -0.210938 13.140625 -2.015625 C 9.953125 -3.816406 7.445312 -6.347656 5.625 -9.609375 C 3.800781 -12.878906 2.890625 -16.671875 2.890625 -20.984375 C 2.890625 -25.234375 3.828125 -29.003906 5.703125 -32.296875 C 7.578125 -35.597656 10.132812 -38.132812 13.375 -39.90625 C 16.625 -41.675781 20.25 -42.5625 24.25 -42.5625 C 28.25 -42.5625 31.867188 -41.675781 35.109375 -39.90625 C 38.359375 -38.132812 40.921875 -35.597656 42.796875 -32.296875 C 44.671875 -29.003906 45.609375 -25.234375 45.609375 -20.984375 C 45.609375 -16.722656 44.644531 -12.945312 42.71875 -9.65625 C 40.789062 -6.363281 38.164062 -3.816406 34.84375 -2.015625 C 31.53125 -0.210938 27.875 0.6875 23.875 0.6875 Z M 23.875 -6.84375 C 26.101562 -6.84375 28.191406 -7.375 30.140625 -8.4375 C 32.085938 -9.5 33.671875 -11.09375 34.890625 -13.21875 C 36.109375 -15.351562 36.71875 -17.941406 36.71875 -20.984375 C 36.71875 -24.023438 36.132812 -26.59375 34.96875 -28.6875 C 33.800781 -30.789062 32.253906 -32.375 30.328125 -33.4375 C 28.398438 -34.507812 26.320312 -35.046875 24.09375 -35.046875 C 21.863281 -35.046875 19.796875 -34.507812 17.890625 -33.4375 C 15.992188 -32.375 14.488281 -30.789062 13.375 -28.6875 C 12.257812 -26.59375 11.703125 -24.023438 11.703125 -20.984375 C 11.703125 -16.472656 12.851562 -12.988281 15.15625 -10.53125 C 17.46875 -8.070312 20.375 -6.84375 23.875 -6.84375 Z M 23.875 -6.84375 "/></g></g></g><g fill="#ffffff" fill-opacity="1"><g transform="translate(625.219818, 80.206626)"><g><path d="M 22.578125 -42.5625 C 25.816406 -42.5625 28.691406 -41.914062 31.203125 -40.625 C 33.710938 -39.332031 35.675781 -37.722656 37.09375 -35.796875 L 37.09375 -41.890625 L 45.84375 -41.890625 L 45.84375 0.6875 C 45.84375 4.539062 45.03125 7.972656 43.40625 10.984375 C 41.78125 13.992188 39.4375 16.359375 36.375 18.078125 C 33.3125 19.804688 29.648438 20.671875 25.390625 20.671875 C 19.710938 20.671875 15 19.335938 11.25 16.671875 C 7.5 14.015625 5.367188 10.410156 4.859375 5.859375 L 13.453125 5.859375 C 14.109375 8.035156 15.515625 9.796875 17.671875 11.140625 C 19.828125 12.484375 22.398438 13.15625 25.390625 13.15625 C 28.890625 13.15625 31.710938 12.085938 33.859375 9.953125 C 36.015625 7.828125 37.09375 4.738281 37.09375 0.6875 L 37.09375 -6.3125 C 35.625 -4.332031 33.632812 -2.671875 31.125 -1.328125 C 28.613281 0.015625 25.765625 0.6875 22.578125 0.6875 C 18.929688 0.6875 15.597656 -0.234375 12.578125 -2.078125 C 9.566406 -3.929688 7.1875 -6.519531 5.4375 -9.84375 C 3.6875 -13.164062 2.8125 -16.925781 2.8125 -21.125 C 2.8125 -25.332031 3.6875 -29.054688 5.4375 -32.296875 C 7.1875 -35.546875 9.566406 -38.066406 12.578125 -39.859375 C 15.597656 -41.660156 18.929688 -42.5625 22.578125 -42.5625 Z M 37.09375 -20.984375 C 37.09375 -23.867188 36.492188 -26.375 35.296875 -28.5 C 34.109375 -30.632812 32.550781 -32.257812 30.625 -33.375 C 28.707031 -34.488281 26.632812 -35.046875 24.40625 -35.046875 C 22.175781 -35.046875 20.097656 -34.5 18.171875 -33.40625 C 16.242188 -32.320312 14.679688 -30.726562 13.484375 -28.625 C 12.296875 -26.519531 11.703125 -24.019531 11.703125 -21.125 C 11.703125 -18.238281 12.296875 -15.707031 13.484375 -13.53125 C 14.679688 -11.351562 16.253906 -9.691406 18.203125 -8.546875 C 20.148438 -7.410156 22.21875 -6.84375 24.40625 -6.84375 C 26.632812 -6.84375 28.707031 -7.398438 30.625 -8.515625 C 32.550781 -9.628906 34.109375 -11.257812 35.296875 -13.40625 C 36.492188 -15.5625 37.09375 -18.085938 37.09375 -20.984375 Z M 37.09375 -20.984375 "/></g></g></g><g fill="#ffffff" fill-opacity="1"><g transform="translate(678.2764, 80.206626)"><g><path d="M 10.109375 -47.4375 C 8.535156 -47.4375 7.21875 -47.96875 6.15625 -49.03125 C 5.09375 -50.09375 4.5625 -51.410156 4.5625 -52.984375 C 4.5625 -54.554688 5.09375 -55.875 6.15625 -56.9375 C 7.21875 -58 8.535156 -58.53125 10.109375 -58.53125 C 11.628906 -58.53125 12.921875 -58 13.984375 -56.9375 C 15.046875 -55.875 15.578125 -54.554688 15.578125 -52.984375 C 15.578125 -51.410156 15.046875 -50.09375 13.984375 -49.03125 C 12.921875 -47.96875 11.628906 -47.4375 10.109375 -47.4375 Z M 14.359375 -41.890625 L 14.359375 0 L 5.703125 0 L 5.703125 -41.890625 Z M 14.359375 -41.890625 "/></g></g></g><g fill="#ffffff" fill-opacity="1"><g transform="translate(699.863987, 80.206626)"><g><path d="M 44.09375 -21.96875 C 44.09375 -20.394531 43.988281 -18.976562 43.78125 -17.71875 L 11.78125 -17.71875 C 12.03125 -14.363281 13.269531 -11.671875 15.5 -9.640625 C 17.738281 -7.617188 20.476562 -6.609375 23.71875 -6.609375 C 28.375 -6.609375 31.664062 -8.5625 33.59375 -12.46875 L 42.953125 -12.46875 C 41.679688 -8.613281 39.382812 -5.457031 36.0625 -3 C 32.75 -0.539062 28.632812 0.6875 23.71875 0.6875 C 19.71875 0.6875 16.128906 -0.210938 12.953125 -2.015625 C 9.785156 -3.816406 7.300781 -6.347656 5.5 -9.609375 C 3.707031 -12.878906 2.8125 -16.671875 2.8125 -20.984375 C 2.8125 -25.285156 3.6875 -29.070312 5.4375 -32.34375 C 7.1875 -35.613281 9.644531 -38.132812 12.8125 -39.90625 C 15.976562 -41.675781 19.613281 -42.5625 23.71875 -42.5625 C 27.664062 -42.5625 31.1875 -41.703125 34.28125 -39.984375 C 37.375 -38.265625 39.78125 -35.84375 41.5 -32.71875 C 43.226562 -29.601562 44.09375 -26.019531 44.09375 -21.96875 Z M 35.046875 -24.703125 C 34.992188 -27.898438 33.851562 -30.457031 31.625 -32.375 C 29.394531 -34.300781 26.632812 -35.265625 23.34375 -35.265625 C 20.351562 -35.265625 17.789062 -34.3125 15.65625 -32.40625 C 13.53125 -30.507812 12.265625 -27.941406 11.859375 -24.703125 Z M 35.046875 -24.703125 "/></g></g></g><g fill="#ffffff" fill-opacity="1"><g transform="translate(748.283816, 80.206626)"><g><path d="M 20.90625 0.6875 C 17.613281 0.6875 14.660156 0.09375 12.046875 -1.09375 C 9.441406 -2.289062 7.378906 -3.914062 5.859375 -5.96875 C 4.335938 -8.019531 3.523438 -10.3125 3.421875 -12.84375 L 12.390625 -12.84375 C 12.546875 -11.070312 13.394531 -9.585938 14.9375 -8.390625 C 16.476562 -7.203125 18.414062 -6.609375 20.75 -6.609375 C 23.1875 -6.609375 25.078125 -7.078125 26.421875 -8.015625 C 27.765625 -8.953125 28.4375 -10.15625 28.4375 -11.625 C 28.4375 -13.195312 27.6875 -14.363281 26.1875 -15.125 C 24.6875 -15.882812 22.316406 -16.722656 19.078125 -17.640625 C 15.929688 -18.492188 13.367188 -19.328125 11.390625 -20.140625 C 9.421875 -20.953125 7.710938 -22.191406 6.265625 -23.859375 C 4.828125 -25.535156 4.109375 -27.742188 4.109375 -30.484375 C 4.109375 -32.710938 4.765625 -34.75 6.078125 -36.59375 C 7.398438 -38.445312 9.289062 -39.90625 11.75 -40.96875 C 14.207031 -42.03125 17.03125 -42.5625 20.21875 -42.5625 C 24.976562 -42.5625 28.816406 -41.359375 31.734375 -38.953125 C 34.648438 -36.546875 36.207031 -33.265625 36.40625 -29.109375 L 27.75 -29.109375 C 27.59375 -30.984375 26.828125 -32.476562 25.453125 -33.59375 C 24.085938 -34.707031 22.242188 -35.265625 19.921875 -35.265625 C 17.640625 -35.265625 15.890625 -34.832031 14.671875 -33.96875 C 13.453125 -33.113281 12.84375 -31.976562 12.84375 -30.5625 C 12.84375 -29.445312 13.25 -28.507812 14.0625 -27.75 C 14.875 -26.988281 15.863281 -26.390625 17.03125 -25.953125 C 18.195312 -25.523438 19.921875 -24.984375 22.203125 -24.328125 C 25.234375 -23.515625 27.722656 -22.6875 29.671875 -21.84375 C 31.628906 -21.007812 33.316406 -19.78125 34.734375 -18.15625 C 36.160156 -16.539062 36.894531 -14.390625 36.9375 -11.703125 C 36.9375 -9.328125 36.273438 -7.203125 34.953125 -5.328125 C 33.640625 -3.453125 31.78125 -1.976562 29.375 -0.90625 C 26.96875 0.15625 24.144531 0.6875 20.90625 0.6875 Z M 20.90625 0.6875 "/></g></g></g></g></g><path fill="#ffffff" d="M 1194.03125 659.011719 L 1191.21875 659.011719 L 1191.21875 646.011719 L 1186.261719 646.011719 L 1186.261719 643.65625 L 1198.976562 643.65625 L 1198.976562 646.011719 L 1194.03125 646.011719 L 1194.03125 659.011719 " fill-opacity="1" fill-rule="nonzero"/><path fill="#ffffff" d="M 1209.050781 654.890625 C 1209.386719 653.683594 1209.804688 652.386719 1210.300781 651 L 1212.949219 643.65625 L 1216.898438 643.65625 L 1216.898438 659.011719 L 1214.085938 659.011719 L 1214.085938 651.230469 C 1214.085938 650.089844 1214.132812 648.769531 1214.226562 647.261719 L 1214.121094 647.261719 C 1213.992188 647.699219 1213.839844 648.1875 1213.664062 648.730469 C 1213.488281 649.273438 1213.304688 649.808594 1213.113281 650.335938 L 1209.933594 659.011719 L 1208.121094 659.011719 L 1204.941406 650.335938 C 1204.75 649.808594 1204.566406 649.273438 1204.390625 648.730469 C 1204.214844 648.1875 1204.0625 647.699219 1203.933594 647.261719 L 1203.828125 647.261719 C 1203.921875 648.675781 1203.96875 649.996094 1203.96875 651.21875 L 1203.96875 659.011719 L 1201.15625 659.011719 L 1201.15625 643.65625 L 1205.082031 643.65625 L 1207.730469 650.96875 C 1208.175781 652.183594 1208.589844 653.492188 1208.980469 654.890625 L 1209.050781 654.890625 " fill-opacity="1" fill-rule="nonzero"/><g clip-path="url(#fb64c52d98)"><path fill="#ffffff" d="M 1222.636719 651.035156 C 1222.636719 662.25 1213.511719 671.375 1202.296875 671.375 C 1191.082031 671.375 1181.957031 662.25 1181.957031 651.035156 C 1181.957031 639.820312 1191.082031 630.695312 1202.296875 630.695312 C 1213.511719 630.695312 1222.636719 639.820312 1222.636719 651.035156 Z M 1223.261719 642.179688 C 1222.113281 639.46875 1220.472656 637.035156 1218.386719 634.945312 C 1216.296875 632.859375 1213.863281 631.21875 1211.152344 630.070312 C 1208.347656 628.882812 1205.367188 628.28125 1202.296875 628.28125 C 1199.226562 628.28125 1196.246094 628.882812 1193.441406 630.070312 C 1190.730469 631.21875 1188.296875 632.859375 1186.207031 634.945312 C 1184.121094 637.035156 1182.480469 639.46875 1181.332031 642.179688 C 1180.144531 644.984375 1179.542969 647.964844 1179.542969 651.035156 C 1179.542969 654.105469 1180.144531 657.085938 1181.332031 659.890625 C 1182.480469 662.601562 1184.121094 665.035156 1186.207031 667.125 C 1188.296875 669.210938 1190.730469 670.851562 1193.441406 672 C 1196.246094 673.183594 1199.226562 673.789062 1202.296875 673.789062 C 1205.367188 673.789062 1208.347656 673.183594 1211.152344 672 C 1213.863281 670.851562 1216.296875 669.210938 1218.386719 667.125 C 1220.472656 665.035156 1222.113281 662.601562 1223.261719 659.890625 C 1224.445312 657.085938 1225.050781 654.105469 1225.050781 651.035156 C 1225.050781 647.964844 1224.445312 644.984375 1223.261719 642.179688 " fill-opacity="1" fill-rule="nonzero"/></g><g transform="matrix(1, 0, 0, 1, 626, 624)"><g clip-path="url(#05ce7e9a4e)"><g fill="#ffffff" fill-opacity="1"><g transform="translate(1.087015, 36.494437)"><g><path d="M 16.875 -5.34375 L 6.375 -5.34375 L 4.453125 0 L 1.140625 0 L 9.828125 -23.90625 L 13.453125 -23.90625 L 22.109375 0 L 18.796875 0 Z M 15.96875 -7.90625 L 11.625 -20.046875 L 7.28125 -7.90625 Z M 15.96875 -7.90625 "/></g></g></g><g fill="#ffffff" fill-opacity="1"><g transform="translate(25.024227, 36.494437)"><g/></g></g><g fill="#ffffff" fill-opacity="1"><g transform="translate(34.923371, 36.494437)"><g><path d="M 6.484375 -16.3125 L 6.484375 -5.171875 C 6.484375 -4.253906 6.675781 -3.601562 7.0625 -3.21875 C 7.457031 -2.84375 8.140625 -2.65625 9.109375 -2.65625 L 11.421875 -2.65625 L 11.421875 0 L 8.59375 0 C 6.84375 0 5.53125 -0.398438 4.65625 -1.203125 C 3.78125 -2.015625 3.34375 -3.335938 3.34375 -5.171875 L 3.34375 -16.3125 L 0.890625 -16.3125 L 0.890625 -18.90625 L 3.34375 -18.90625 L 3.34375 -23.671875 L 6.484375 -23.671875 L 6.484375 -18.90625 L 11.421875 -18.90625 L 11.421875 -16.3125 Z M 6.484375 -16.3125 "/></g></g></g><g fill="#ffffff" fill-opacity="1"><g transform="translate(48.168204, 36.494437)"><g><path d="M 5.796875 -15.828125 C 6.347656 -16.910156 7.132812 -17.75 8.15625 -18.34375 C 9.175781 -18.945312 10.425781 -19.25 11.90625 -19.25 L 11.90625 -16.015625 L 11.078125 -16.015625 C 7.554688 -16.015625 5.796875 -14.101562 5.796875 -10.28125 L 5.796875 0 L 2.65625 0 L 2.65625 -18.90625 L 5.796875 -18.90625 Z M 5.796875 -15.828125 "/></g></g></g><g fill="#ffffff" fill-opacity="1"><g transform="translate(61.723462, 36.494437)"><g><path d="M 19.421875 -18.90625 L 19.421875 0 L 16.28125 0 L 16.28125 -2.796875 C 15.6875 -1.828125 14.851562 -1.070312 13.78125 -0.53125 C 12.707031 0.0078125 11.53125 0.28125 10.25 0.28125 C 8.769531 0.28125 7.441406 -0.0195312 6.265625 -0.625 C 5.097656 -1.238281 4.175781 -2.15625 3.5 -3.375 C 2.820312 -4.59375 2.484375 -6.078125 2.484375 -7.828125 L 2.484375 -18.90625 L 5.59375 -18.90625 L 5.59375 -8.25 C 5.59375 -6.382812 6.0625 -4.953125 7 -3.953125 C 7.945312 -2.953125 9.238281 -2.453125 10.875 -2.453125 C 12.550781 -2.453125 13.867188 -2.96875 14.828125 -4 C 15.796875 -5.03125 16.28125 -6.535156 16.28125 -8.515625 L 16.28125 -18.90625 Z M 19.421875 -18.90625 "/></g></g></g><g fill="#ffffff" fill-opacity="1"><g transform="translate(84.487962, 36.494437)"><g><path d="M 19.90625 -10.171875 C 19.90625 -9.578125 19.867188 -8.945312 19.796875 -8.28125 L 4.6875 -8.28125 C 4.800781 -6.414062 5.4375 -4.957031 6.59375 -3.90625 C 7.757812 -2.863281 9.171875 -2.34375 10.828125 -2.34375 C 12.191406 -2.34375 13.328125 -2.660156 14.234375 -3.296875 C 15.140625 -3.929688 15.773438 -4.773438 16.140625 -5.828125 L 19.53125 -5.828125 C 19.019531 -4.015625 18.003906 -2.535156 16.484375 -1.390625 C 14.972656 -0.253906 13.085938 0.3125 10.828125 0.3125 C 9.035156 0.3125 7.429688 -0.0859375 6.015625 -0.890625 C 4.609375 -1.703125 3.5 -2.847656 2.6875 -4.328125 C 1.882812 -5.816406 1.484375 -7.535156 1.484375 -9.484375 C 1.484375 -11.441406 1.875 -13.15625 2.65625 -14.625 C 3.4375 -16.101562 4.535156 -17.238281 5.953125 -18.03125 C 7.367188 -18.820312 8.992188 -19.21875 10.828125 -19.21875 C 12.628906 -19.21875 14.21875 -18.828125 15.59375 -18.046875 C 16.96875 -17.265625 18.03125 -16.1875 18.78125 -14.8125 C 19.53125 -13.445312 19.90625 -11.898438 19.90625 -10.171875 Z M 16.65625 -10.828125 C 16.65625 -12.023438 16.390625 -13.054688 15.859375 -13.921875 C 15.335938 -14.785156 14.617188 -15.441406 13.703125 -15.890625 C 12.796875 -16.335938 11.789062 -16.5625 10.6875 -16.5625 C 9.101562 -16.5625 7.753906 -16.054688 6.640625 -15.046875 C 5.523438 -14.035156 4.882812 -12.628906 4.71875 -10.828125 Z M 16.65625 -10.828125 "/></g></g></g><g fill="#ffffff" fill-opacity="1"><g transform="translate(106.562634, 36.494437)"><g/></g></g><g fill="#ffffff" fill-opacity="1"><g transform="translate(116.461778, 36.494437)"><g><path d="M 5.796875 -15.421875 C 6.421875 -16.503906 7.347656 -17.40625 8.578125 -18.125 C 9.804688 -18.851562 11.238281 -19.21875 12.875 -19.21875 C 14.550781 -19.21875 16.070312 -18.8125 17.4375 -18 C 18.8125 -17.195312 19.890625 -16.066406 20.671875 -14.609375 C 21.453125 -13.148438 21.84375 -11.453125 21.84375 -9.515625 C 21.84375 -7.609375 21.453125 -5.90625 20.671875 -4.40625 C 19.890625 -2.914062 18.8125 -1.753906 17.4375 -0.921875 C 16.070312 -0.0976562 14.550781 0.3125 12.875 0.3125 C 11.257812 0.3125 9.835938 -0.046875 8.609375 -0.765625 C 7.378906 -1.492188 6.441406 -2.398438 5.796875 -3.484375 L 5.796875 8.96875 L 2.65625 8.96875 L 2.65625 -18.90625 L 5.796875 -18.90625 Z M 18.625 -9.515625 C 18.625 -10.941406 18.335938 -12.179688 17.765625 -13.234375 C 17.191406 -14.296875 16.414062 -15.101562 15.4375 -15.65625 C 14.457031 -16.207031 13.382812 -16.484375 12.21875 -16.484375 C 11.0625 -16.484375 9.992188 -16.203125 9.015625 -15.640625 C 8.046875 -15.078125 7.265625 -14.257812 6.671875 -13.1875 C 6.085938 -12.125 5.796875 -10.890625 5.796875 -9.484375 C 5.796875 -8.054688 6.085938 -6.804688 6.671875 -5.734375 C 7.265625 -4.671875 8.046875 -3.859375 9.015625 -3.296875 C 9.992188 -2.734375 11.0625 -2.453125 12.21875 -2.453125 C 13.382812 -2.453125 14.457031 -2.734375 15.4375 -3.296875 C 16.414062 -3.859375 17.191406 -4.671875 17.765625 -5.734375 C 18.335938 -6.804688 18.625 -8.066406 18.625 -9.515625 Z M 18.625 -9.515625 "/></g></g></g><g fill="#ffffff" fill-opacity="1"><g transform="translate(140.467978, 36.494437)"><g><path d="M 5.796875 -15.828125 C 6.347656 -16.910156 7.132812 -17.75 8.15625 -18.34375 C 9.175781 -18.945312 10.425781 -19.25 11.90625 -19.25 L 11.90625 -16.015625 L 11.078125 -16.015625 C 7.554688 -16.015625 5.796875 -14.101562 5.796875 -10.28125 L 5.796875 0 L 2.65625 0 L 2.65625 -18.90625 L 5.796875 -18.90625 Z M 5.796875 -15.828125 "/></g></g></g><g fill="#ffffff" fill-opacity="1"><g transform="translate(154.023235, 36.494437)"><g><path d="M 10.90625 0.3125 C 9.132812 0.3125 7.53125 -0.0859375 6.09375 -0.890625 C 4.65625 -1.703125 3.523438 -2.847656 2.703125 -4.328125 C 1.890625 -5.816406 1.484375 -7.535156 1.484375 -9.484375 C 1.484375 -11.421875 1.898438 -13.128906 2.734375 -14.609375 C 3.578125 -16.097656 4.722656 -17.238281 6.171875 -18.03125 C 7.617188 -18.820312 9.242188 -19.21875 11.046875 -19.21875 C 12.835938 -19.21875 14.457031 -18.820312 15.90625 -18.03125 C 17.351562 -17.238281 18.492188 -16.101562 19.328125 -14.625 C 20.171875 -13.15625 20.59375 -11.441406 20.59375 -9.484375 C 20.59375 -7.535156 20.160156 -5.816406 19.296875 -4.328125 C 18.441406 -2.847656 17.273438 -1.703125 15.796875 -0.890625 C 14.328125 -0.0859375 12.695312 0.3125 10.90625 0.3125 Z M 10.90625 -2.453125 C 12.03125 -2.453125 13.085938 -2.710938 14.078125 -3.234375 C 15.066406 -3.765625 15.863281 -4.554688 16.46875 -5.609375 C 17.082031 -6.671875 17.390625 -7.960938 17.390625 -9.484375 C 17.390625 -11.003906 17.085938 -12.289062 16.484375 -13.34375 C 15.890625 -14.40625 15.109375 -15.191406 14.140625 -15.703125 C 13.179688 -16.222656 12.132812 -16.484375 11 -16.484375 C 9.851562 -16.484375 8.800781 -16.222656 7.84375 -15.703125 C 6.894531 -15.191406 6.128906 -14.40625 5.546875 -13.34375 C 4.972656 -12.289062 4.6875 -11.003906 4.6875 -9.484375 C 4.6875 -7.941406 4.96875 -6.640625 5.53125 -5.578125 C 6.09375 -4.523438 6.847656 -3.738281 7.796875 -3.21875 C 8.742188 -2.707031 9.78125 -2.453125 10.90625 -2.453125 Z M 10.90625 -2.453125 "/></g></g></g><g fill="#ffffff" fill-opacity="1"><g transform="translate(176.787735, 36.494437)"><g><path d="M 6.484375 -16.3125 L 6.484375 -5.171875 C 6.484375 -4.253906 6.675781 -3.601562 7.0625 -3.21875 C 7.457031 -2.84375 8.140625 -2.65625 9.109375 -2.65625 L 11.421875 -2.65625 L 11.421875 0 L 8.59375 0 C 6.84375 0 5.53125 -0.398438 4.65625 -1.203125 C 3.78125 -2.015625 3.34375 -3.335938 3.34375 -5.171875 L 3.34375 -16.3125 L 0.890625 -16.3125 L 0.890625 -18.90625 L 3.34375 -18.90625 L 3.34375 -23.671875 L 6.484375 -23.671875 L 6.484375 -18.90625 L 11.421875 -18.90625 L 11.421875 -16.3125 Z M 6.484375 -16.3125 "/></g></g></g><g fill="#ffffff" fill-opacity="1"><g transform="translate(190.032557, 36.494437)"><g><path d="M 19.90625 -10.171875 C 19.90625 -9.578125 19.867188 -8.945312 19.796875 -8.28125 L 4.6875 -8.28125 C 4.800781 -6.414062 5.4375 -4.957031 6.59375 -3.90625 C 7.757812 -2.863281 9.171875 -2.34375 10.828125 -2.34375 C 12.191406 -2.34375 13.328125 -2.660156 14.234375 -3.296875 C 15.140625 -3.929688 15.773438 -4.773438 16.140625 -5.828125 L 19.53125 -5.828125 C 19.019531 -4.015625 18.003906 -2.535156 16.484375 -1.390625 C 14.972656 -0.253906 13.085938 0.3125 10.828125 0.3125 C 9.035156 0.3125 7.429688 -0.0859375 6.015625 -0.890625 C 4.609375 -1.703125 3.5 -2.847656 2.6875 -4.328125 C 1.882812 -5.816406 1.484375 -7.535156 1.484375 -9.484375 C 1.484375 -11.441406 1.875 -13.15625 2.65625 -14.625 C 3.4375 -16.101562 4.535156 -17.238281 5.953125 -18.03125 C 7.367188 -18.820312 8.992188 -19.21875 10.828125 -19.21875 C 12.628906 -19.21875 14.21875 -18.828125 15.59375 -18.046875 C 16.96875 -17.265625 18.03125 -16.1875 18.78125 -14.8125 C 19.53125 -13.445312 19.90625 -11.898438 19.90625 -10.171875 Z M 16.65625 -10.828125 C 16.65625 -12.023438 16.390625 -13.054688 15.859375 -13.921875 C 15.335938 -14.785156 14.617188 -15.441406 13.703125 -15.890625 C 12.796875 -16.335938 11.789062 -16.5625 10.6875 -16.5625 C 9.101562 -16.5625 7.753906 -16.054688 6.640625 -15.046875 C 5.523438 -14.035156 4.882812 -12.628906 4.71875 -10.828125 Z M 16.65625 -10.828125 "/></g></g></g><g fill="#ffffff" fill-opacity="1"><g transform="translate(212.10724, 36.494437)"><g><path d="M 1.484375 -9.484375 C 1.484375 -11.441406 1.875 -13.148438 2.65625 -14.609375 C 3.4375 -16.066406 4.519531 -17.195312 5.90625 -18 C 7.300781 -18.8125 8.894531 -19.21875 10.6875 -19.21875 C 13.007812 -19.21875 14.925781 -18.648438 16.4375 -17.515625 C 17.945312 -16.390625 18.941406 -14.828125 19.421875 -12.828125 L 16.046875 -12.828125 C 15.722656 -13.984375 15.09375 -14.894531 14.15625 -15.5625 C 13.226562 -16.226562 12.070312 -16.5625 10.6875 -16.5625 C 8.894531 -16.5625 7.445312 -15.945312 6.34375 -14.71875 C 5.238281 -13.488281 4.6875 -11.742188 4.6875 -9.484375 C 4.6875 -7.210938 5.238281 -5.453125 6.34375 -4.203125 C 7.445312 -2.960938 8.894531 -2.34375 10.6875 -2.34375 C 12.070312 -2.34375 13.222656 -2.664062 14.140625 -3.3125 C 15.066406 -3.957031 15.703125 -4.878906 16.046875 -6.078125 L 19.421875 -6.078125 C 18.921875 -4.140625 17.910156 -2.585938 16.390625 -1.421875 C 14.867188 -0.265625 12.96875 0.3125 10.6875 0.3125 C 8.894531 0.3125 7.300781 -0.0859375 5.90625 -0.890625 C 4.519531 -1.703125 3.4375 -2.84375 2.65625 -4.3125 C 1.875 -5.78125 1.484375 -7.503906 1.484375 -9.484375 Z M 1.484375 -9.484375 "/></g></g></g><g fill="#ffffff" fill-opacity="1"><g transform="translate(233.73351, 36.494437)"><g><path d="M 6.484375 -16.3125 L 6.484375 -5.171875 C 6.484375 -4.253906 6.675781 -3.601562 7.0625 -3.21875 C 7.457031 -2.84375 8.140625 -2.65625 9.109375 -2.65625 L 11.421875 -2.65625 L 11.421875 0 L 8.59375 0 C 6.84375 0 5.53125 -0.398438 4.65625 -1.203125 C 3.78125 -2.015625 3.34375 -3.335938 3.34375 -5.171875 L 3.34375 -16.3125 L 0.890625 -16.3125 L 0.890625 -18.90625 L 3.34375 -18.90625 L 3.34375 -23.671875 L 6.484375 -23.671875 L 6.484375 -18.90625 L 11.421875 -18.90625 L 11.421875 -16.3125 Z M 6.484375 -16.3125 "/></g></g></g><g fill="#ffffff" fill-opacity="1"><g transform="translate(246.978353, 36.494437)"><g><path d="M 10.90625 0.3125 C 9.132812 0.3125 7.53125 -0.0859375 6.09375 -0.890625 C 4.65625 -1.703125 3.523438 -2.847656 2.703125 -4.328125 C 1.890625 -5.816406 1.484375 -7.535156 1.484375 -9.484375 C 1.484375 -11.421875 1.898438 -13.128906 2.734375 -14.609375 C 3.578125 -16.097656 4.722656 -17.238281 6.171875 -18.03125 C 7.617188 -18.820312 9.242188 -19.21875 11.046875 -19.21875 C 12.835938 -19.21875 14.457031 -18.820312 15.90625 -18.03125 C 17.351562 -17.238281 18.492188 -16.101562 19.328125 -14.625 C 20.171875 -13.15625 20.59375 -11.441406 20.59375 -9.484375 C 20.59375 -7.535156 20.160156 -5.816406 19.296875 -4.328125 C 18.441406 -2.847656 17.273438 -1.703125 15.796875 -0.890625 C 14.328125 -0.0859375 12.695312 0.3125 10.90625 0.3125 Z M 10.90625 -2.453125 C 12.03125 -2.453125 13.085938 -2.710938 14.078125 -3.234375 C 15.066406 -3.765625 15.863281 -4.554688 16.46875 -5.609375 C 17.082031 -6.671875 17.390625 -7.960938 17.390625 -9.484375 C 17.390625 -11.003906 17.085938 -12.289062 16.484375 -13.34375 C 15.890625 -14.40625 15.109375 -15.191406 14.140625 -15.703125 C 13.179688 -16.222656 12.132812 -16.484375 11 -16.484375 C 9.851562 -16.484375 8.800781 -16.222656 7.84375 -15.703125 C 6.894531 -15.191406 6.128906 -14.40625 5.546875 -13.34375 C 4.972656 -12.289062 4.6875 -11.003906 4.6875 -9.484375 C 4.6875 -7.941406 4.96875 -6.640625 5.53125 -5.578125 C 6.09375 -4.523438 6.847656 -3.738281 7.796875 -3.21875 C 8.742188 -2.707031 9.78125 -2.453125 10.90625 -2.453125 Z M 10.90625 -2.453125 "/></g></g></g><g fill="#ffffff" fill-opacity="1"><g transform="translate(269.742853, 36.494437)"><g><path d="M 5.796875 -15.828125 C 6.347656 -16.910156 7.132812 -17.75 8.15625 -18.34375 C 9.175781 -18.945312 10.425781 -19.25 11.90625 -19.25 L 11.90625 -16.015625 L 11.078125 -16.015625 C 7.554688 -16.015625 5.796875 -14.101562 5.796875 -10.28125 L 5.796875 0 L 2.65625 0 L 2.65625 -18.90625 L 5.796875 -18.90625 Z M 5.796875 -15.828125 "/></g></g></g><g fill="#ffffff" fill-opacity="1"><g transform="translate(283.298111, 36.494437)"><g/></g></g><g fill="#ffffff" fill-opacity="1"><g transform="translate(293.197255, 36.494437)"><g><path d="M 10.90625 0.3125 C 9.132812 0.3125 7.53125 -0.0859375 6.09375 -0.890625 C 4.65625 -1.703125 3.523438 -2.847656 2.703125 -4.328125 C 1.890625 -5.816406 1.484375 -7.535156 1.484375 -9.484375 C 1.484375 -11.421875 1.898438 -13.128906 2.734375 -14.609375 C 3.578125 -16.097656 4.722656 -17.238281 6.171875 -18.03125 C 7.617188 -18.820312 9.242188 -19.21875 11.046875 -19.21875 C 12.835938 -19.21875 14.457031 -18.820312 15.90625 -18.03125 C 17.351562 -17.238281 18.492188 -16.101562 19.328125 -14.625 C 20.171875 -13.15625 20.59375 -11.441406 20.59375 -9.484375 C 20.59375 -7.535156 20.160156 -5.816406 19.296875 -4.328125 C 18.441406 -2.847656 17.273438 -1.703125 15.796875 -0.890625 C 14.328125 -0.0859375 12.695312 0.3125 10.90625 0.3125 Z M 10.90625 -2.453125 C 12.03125 -2.453125 13.085938 -2.710938 14.078125 -3.234375 C 15.066406 -3.765625 15.863281 -4.554688 16.46875 -5.609375 C 17.082031 -6.671875 17.390625 -7.960938 17.390625 -9.484375 C 17.390625 -11.003906 17.085938 -12.289062 16.484375 -13.34375 C 15.890625 -14.40625 15.109375 -15.191406 14.140625 -15.703125 C 13.179688 -16.222656 12.132812 -16.484375 11 -16.484375 C 9.851562 -16.484375 8.800781 -16.222656 7.84375 -15.703125 C 6.894531 -15.191406 6.128906 -14.40625 5.546875 -13.34375 C 4.972656 -12.289062 4.6875 -11.003906 4.6875 -9.484375 C 4.6875 -7.941406 4.96875 -6.640625 5.53125 -5.578125 C 6.09375 -4.523438 6.847656 -3.738281 7.796875 -3.21875 C 8.742188 -2.707031 9.78125 -2.453125 10.90625 -2.453125 Z M 10.90625 -2.453125 "/></g></g></g><g fill="#ffffff" fill-opacity="1"><g transform="translate(315.961754, 36.494437)"><g><path d="M 10.34375 -16.3125 L 6.375 -16.3125 L 6.375 0 L 3.25 0 L 3.25 -16.3125 L 0.796875 -16.3125 L 0.796875 -18.90625 L 3.25 -18.90625 L 3.25 -20.25 C 3.25 -22.363281 3.789062 -23.910156 4.875 -24.890625 C 5.96875 -25.867188 7.722656 -26.359375 10.140625 -26.359375 L 10.140625 -23.734375 C 8.765625 -23.734375 7.789062 -23.460938 7.21875 -22.921875 C 6.65625 -22.378906 6.375 -21.488281 6.375 -20.25 L 6.375 -18.90625 L 10.34375 -18.90625 Z M 10.34375 -16.3125 "/></g></g></g><g fill="#ffffff" fill-opacity="1"><g transform="translate(337.898525, 36.494437)"><g><path d="M 18.9375 -18.90625 L 7.5625 8.90625 L 4.3125 8.90625 L 8.03125 -0.203125 L 0.40625 -18.90625 L 3.90625 -18.90625 L 9.828125 -3.59375 L 15.703125 -18.90625 Z M 18.9375 -18.90625 "/></g></g></g><g fill="#ffffff" fill-opacity="1"><g transform="translate(358.007163, 36.494437)"><g><path d="M 10.90625 0.3125 C 9.132812 0.3125 7.53125 -0.0859375 6.09375 -0.890625 C 4.65625 -1.703125 3.523438 -2.847656 2.703125 -4.328125 C 1.890625 -5.816406 1.484375 -7.535156 1.484375 -9.484375 C 1.484375 -11.421875 1.898438 -13.128906 2.734375 -14.609375 C 3.578125 -16.097656 4.722656 -17.238281 6.171875 -18.03125 C 7.617188 -18.820312 9.242188 -19.21875 11.046875 -19.21875 C 12.835938 -19.21875 14.457031 -18.820312 15.90625 -18.03125 C 17.351562 -17.238281 18.492188 -16.101562 19.328125 -14.625 C 20.171875 -13.15625 20.59375 -11.441406 20.59375 -9.484375 C 20.59375 -7.535156 20.160156 -5.816406 19.296875 -4.328125 C 18.441406 -2.847656 17.273438 -1.703125 15.796875 -0.890625 C 14.328125 -0.0859375 12.695312 0.3125 10.90625 0.3125 Z M 10.90625 -2.453125 C 12.03125 -2.453125 13.085938 -2.710938 14.078125 -3.234375 C 15.066406 -3.765625 15.863281 -4.554688 16.46875 -5.609375 C 17.082031 -6.671875 17.390625 -7.960938 17.390625 -9.484375 C 17.390625 -11.003906 17.085938 -12.289062 16.484375 -13.34375 C 15.890625 -14.40625 15.109375 -15.191406 14.140625 -15.703125 C 13.179688 -16.222656 12.132812 -16.484375 11 -16.484375 C 9.851562 -16.484375 8.800781 -16.222656 7.84375 -15.703125 C 6.894531 -15.191406 6.128906 -14.40625 5.546875 -13.34375 C 4.972656 -12.289062 4.6875 -11.003906 4.6875 -9.484375 C 4.6875 -7.941406 4.96875 -6.640625 5.53125 -5.578125 C 6.09375 -4.523438 6.847656 -3.738281 7.796875 -3.21875 C 8.742188 -2.707031 9.78125 -2.453125 10.90625 -2.453125 Z M 10.90625 -2.453125 "/></g></g></g><g fill="#ffffff" fill-opacity="1"><g transform="translate(380.771663, 36.494437)"><g><path d="M 19.421875 -18.90625 L 19.421875 0 L 16.28125 0 L 16.28125 -2.796875 C 15.6875 -1.828125 14.851562 -1.070312 13.78125 -0.53125 C 12.707031 0.0078125 11.53125 0.28125 10.25 0.28125 C 8.769531 0.28125 7.441406 -0.0195312 6.265625 -0.625 C 5.097656 -1.238281 4.175781 -2.15625 3.5 -3.375 C 2.820312 -4.59375 2.484375 -6.078125 2.484375 -7.828125 L 2.484375 -18.90625 L 5.59375 -18.90625 L 5.59375 -8.25 C 5.59375 -6.382812 6.0625 -4.953125 7 -3.953125 C 7.945312 -2.953125 9.238281 -2.453125 10.875 -2.453125 C 12.550781 -2.453125 13.867188 -2.96875 14.828125 -4 C 15.796875 -5.03125 16.28125 -6.535156 16.28125 -8.515625 L 16.28125 -18.90625 Z M 19.421875 -18.90625 "/></g></g></g><g fill="#ffffff" fill-opacity="1"><g transform="translate(403.536163, 36.494437)"><g><path d="M 5.796875 -15.828125 C 6.347656 -16.910156 7.132812 -17.75 8.15625 -18.34375 C 9.175781 -18.945312 10.425781 -19.25 11.90625 -19.25 L 11.90625 -16.015625 L 11.078125 -16.015625 C 7.554688 -16.015625 5.796875 -14.101562 5.796875 -10.28125 L 5.796875 0 L 2.65625 0 L 2.65625 -18.90625 L 5.796875 -18.90625 Z M 5.796875 -15.828125 "/></g></g></g><g fill="#ffffff" fill-opacity="1"><g transform="translate(417.09142, 36.494437)"><g/></g></g><g fill="#ffffff" fill-opacity="1"><g transform="translate(426.990586, 36.494437)"><g><path d="M 10.34375 -16.3125 L 6.375 -16.3125 L 6.375 0 L 3.25 0 L 3.25 -16.3125 L 0.796875 -16.3125 L 0.796875 -18.90625 L 3.25 -18.90625 L 3.25 -20.25 C 3.25 -22.363281 3.789062 -23.910156 4.875 -24.890625 C 5.96875 -25.867188 7.722656 -26.359375 10.140625 -26.359375 L 10.140625 -23.734375 C 8.765625 -23.734375 7.789062 -23.460938 7.21875 -22.921875 C 6.65625 -22.378906 6.375 -21.488281 6.375 -20.25 L 6.375 -18.90625 L 10.34375 -18.90625 Z M 10.34375 -16.3125 "/></g></g></g><g fill="#ffffff" fill-opacity="1"><g transform="translate(439.02819, 36.494437)"><g><path d="M 1.484375 -9.515625 C 1.484375 -11.453125 1.875 -13.148438 2.65625 -14.609375 C 3.4375 -16.066406 4.507812 -17.195312 5.875 -18 C 7.25 -18.8125 8.773438 -19.21875 10.453125 -19.21875 C 12.109375 -19.21875 13.546875 -18.859375 14.765625 -18.140625 C 15.984375 -17.429688 16.890625 -16.535156 17.484375 -15.453125 L 17.484375 -18.90625 L 20.671875 -18.90625 L 20.671875 0 L 17.484375 0 L 17.484375 -3.515625 C 16.867188 -2.410156 15.945312 -1.492188 14.71875 -0.765625 C 13.488281 -0.046875 12.054688 0.3125 10.421875 0.3125 C 8.742188 0.3125 7.222656 -0.0976562 5.859375 -0.921875 C 4.503906 -1.753906 3.4375 -2.914062 2.65625 -4.40625 C 1.875 -5.90625 1.484375 -7.609375 1.484375 -9.515625 Z M 17.484375 -9.484375 C 17.484375 -10.910156 17.195312 -12.148438 16.625 -13.203125 C 16.050781 -14.265625 15.273438 -15.078125 14.296875 -15.640625 C 13.316406 -16.203125 12.242188 -16.484375 11.078125 -16.484375 C 9.898438 -16.484375 8.828125 -16.207031 7.859375 -15.65625 C 6.898438 -15.101562 6.128906 -14.296875 5.546875 -13.234375 C 4.972656 -12.179688 4.6875 -10.941406 4.6875 -9.515625 C 4.6875 -8.066406 4.972656 -6.804688 5.546875 -5.734375 C 6.128906 -4.671875 6.898438 -3.859375 7.859375 -3.296875 C 8.828125 -2.734375 9.898438 -2.453125 11.078125 -2.453125 C 12.242188 -2.453125 13.316406 -2.734375 14.296875 -3.296875 C 15.273438 -3.859375 16.050781 -4.671875 16.625 -5.734375 C 17.195312 -6.804688 17.484375 -8.054688 17.484375 -9.484375 Z M 17.484375 -9.484375 "/></g></g></g><g fill="#ffffff" fill-opacity="1"><g transform="translate(463.03439, 36.494437)"><g><path d="M 25.390625 -19.25 C 26.859375 -19.25 28.164062 -18.941406 29.3125 -18.328125 C 30.46875 -17.722656 31.378906 -16.8125 32.046875 -15.59375 C 32.710938 -14.375 33.046875 -12.890625 33.046875 -11.140625 L 33.046875 0 L 29.953125 0 L 29.953125 -10.6875 C 29.953125 -12.582031 29.484375 -14.03125 28.546875 -15.03125 C 27.617188 -16.03125 26.359375 -16.53125 24.765625 -16.53125 C 23.140625 -16.53125 21.84375 -16.003906 20.875 -14.953125 C 19.90625 -13.910156 19.421875 -12.398438 19.421875 -10.421875 L 19.421875 0 L 16.3125 0 L 16.3125 -10.6875 C 16.3125 -12.582031 15.847656 -14.03125 14.921875 -15.03125 C 13.992188 -16.03125 12.734375 -16.53125 11.140625 -16.53125 C 9.503906 -16.53125 8.203125 -16.003906 7.234375 -14.953125 C 6.273438 -13.910156 5.796875 -12.398438 5.796875 -10.421875 L 5.796875 0 L 2.65625 0 L 2.65625 -18.90625 L 5.796875 -18.90625 L 5.796875 -16.1875 C 6.421875 -17.164062 7.253906 -17.921875 8.296875 -18.453125 C 9.335938 -18.984375 10.492188 -19.25 11.765625 -19.25 C 13.347656 -19.25 14.75 -18.890625 15.96875 -18.171875 C 17.1875 -17.460938 18.097656 -16.421875 18.703125 -15.046875 C 19.234375 -16.378906 20.109375 -17.410156 21.328125 -18.140625 C 22.546875 -18.878906 23.898438 -19.25 25.390625 -19.25 Z M 25.390625 -19.25 "/></g></g></g><g fill="#ffffff" fill-opacity="1"><g transform="translate(499.250612, 36.494437)"><g><path d="M 4.28125 -21.96875 C 3.675781 -21.96875 3.164062 -22.175781 2.75 -22.59375 C 2.34375 -23.007812 2.140625 -23.515625 2.140625 -24.109375 C 2.140625 -24.710938 2.34375 -25.21875 2.75 -25.625 C 3.164062 -26.039062 3.675781 -26.25 4.28125 -26.25 C 4.851562 -26.25 5.335938 -26.039062 5.734375 -25.625 C 6.140625 -25.21875 6.34375 -24.710938 6.34375 -24.109375 C 6.34375 -23.515625 6.140625 -23.007812 5.734375 -22.59375 C 5.335938 -22.175781 4.851562 -21.96875 4.28125 -21.96875 Z M 5.796875 -18.90625 L 5.796875 0 L 2.65625 0 L 2.65625 -18.90625 Z M 5.796875 -18.90625 "/></g></g></g><g fill="#ffffff" fill-opacity="1"><g transform="translate(508.425413, 36.494437)"><g><path d="M 5.796875 -25.53125 L 5.796875 0 L 2.65625 0 L 2.65625 -25.53125 Z M 5.796875 -25.53125 "/></g></g></g><g fill="#ffffff" fill-opacity="1"><g transform="translate(517.600257, 36.494437)"><g><path d="M 18.9375 -18.90625 L 7.5625 8.90625 L 4.3125 8.90625 L 8.03125 -0.203125 L 0.40625 -18.90625 L 3.90625 -18.90625 L 9.828125 -3.59375 L 15.703125 -18.90625 Z M 18.9375 -18.90625 "/></g></g></g></g></g></svg>